<svg width="220" height="100" viewBox="0 0 220 100" fill="none" xmlns="http://www.w3.org/2000/svg">
<g clip-path="url(#clip0_603_431)">
<path d="M149 61.2999C149.4 61.4999 149.7 61.5999 150.1 61.5999C150.5 61.5999 150.8 61.4999 151.2 61.2999C151.5 61.0999 151.8 60.8 152 60.5C152.2 60.2 152.3 59.8 152.3 59.4C152.3 59 152.2 58.5999 152 58.2999C151.8 57.8999 151.5 57.7 151.2 57.5C150.8 57.3 150.5 57.2 150.1 57.2C149.7 57.2 149.3 57.3 149 57.5C148.6 57.7 148.4 57.9999 148.2 58.2999C148 58.5999 147.9 59 147.9 59.4C147.9 59.8 148 60.1 148.2 60.5C148.4 60.8 148.7 61.0999 149 61.2999ZM148.5 58.5C148.7 58.2 148.9 57.9999 149.2 57.7999C149.5 57.5999 149.8 57.5999 150.1 57.5999C150.4 57.5999 150.7 57.6999 151 57.7999C151.3 57.9999 151.5 58.2 151.7 58.5C151.9 58.8 151.9 59.1 151.9 59.4C151.9 59.7 151.8 59.9999 151.7 60.2999C151.5 60.5999 151.3 60.8 151 61C150.7 61.2 150.4 61.2 150.1 61.2C149.8 61.2 149.5 61.1 149.2 61C148.9 60.8 148.7 60.5999 148.5 60.2999C148.3 59.9999 148.2 59.7 148.2 59.4C148.3 59.1 148.4 58.7 148.5 58.5Z" fill="#818181"/>
<path d="M149.5 59.6H149.7C149.8 59.6 149.9 59.6 150 59.7C150 59.7 150 59.7 150.1 59.7C150.2 59.8 150.3 60 150.5 60.2L150.7 60.6H151.2L150.9 60.1C150.8 59.9 150.6 59.7 150.5 59.6C150.4 59.5 150.4 59.5 150.3 59.5C150.5 59.5 150.7 59.4 150.8 59.3C150.9 59.2 151 59 151 58.9C151 58.8 151 58.7 150.9 58.6C150.8 58.5 150.7 58.4 150.6 58.4C150.5 58.4 150.3 58.3 150.1 58.3H150H149.2V60.7H149.6L149.5 59.6ZM149.5 58.5H150.1C150.2 58.5 150.3 58.5 150.3 58.5C150.4 58.5 150.4 58.6 150.5 58.6C150.5 58.7 150.6 58.7 150.6 58.8C150.6 58.9 150.6 59 150.5 59.1C150.4 59.2 150.3 59.2 150.2 59.2H149.6L149.5 58.5ZM92.1 58.8H95.6L92.1 53L89.2 48.2L76.8 55.6L78.7 58.8H92.1ZM124.2 58.8H141.1L130.6 41.3L119 22L114.2 24.9L106.6 29.5L114.2 42.1L124.2 58.8ZM118.3 64.6C117.1 63.8 115.7 63.4 114.2 63.4C110 63.4 106.6 66.8 106.6 71C106.6 75.2 110 78.6 114.2 78.6C115.7 78.6 117.1 78.2 118.3 77.4V78.2H121.8V58.8H118.3V64.6ZM118.3 71.8C117.9 73.7 116.2 75.2 114.2 75.2C111.9 75.2 110.1 73.3 110.1 71C110.1 68.7 112 66.8 114.2 66.8C116.2 66.8 117.9 68.3 118.3 70.2V71.8ZM134.7 64.6C133.5 63.8 132.1 63.4 130.6 63.4C126.4 63.4 123 66.8 123 71C123 75.2 126.4 78.6 130.6 78.6C132.1 78.6 133.5 78.2 134.7 77.4V78.2H138.2V63.7H134.7V64.6ZM134.7 71.8C134.3 73.7 132.6 75.2 130.6 75.2C128.3 75.2 126.5 73.3 126.5 71C126.5 68.7 128.4 66.8 130.6 66.8C132.6 66.8 134.3 68.3 134.7 70.2V71.8ZM150.6 70C150.5 69.9 150.3 69.9 150.1 69.8C149.3 69.5 148.1 69.2 146.3 68.8C144.8 68.5 144 68 144 67.5C144 67.1 144.1 66.8 144.4 66.6C144.8 66.3 145.4 66.1 146.3 66.1C147.2 66.1 147.9 66.3 148.3 66.7C148.5 66.9 148.7 67.4 148.8 68H152.5C152.5 66.2 151.8 64.9 150.3 64.1C150.2 64 150.1 64 150.1 64C149.1 63.5 147.7 63.3 146.1 63.3C144.1 63.3 142.5 63.8 141.5 64.9C140.7 65.8 140.3 66.8 140.3 68.1C140.3 69.7 141.1 70.8 142.6 71.5C143.2 71.8 144.6 72.2 146.9 72.7C148.4 73 149.2 73.5 149.2 74.1C149.2 74.5 149 74.8 148.7 75C148.3 75.4 147.6 75.5 146.8 75.5C145.7 75.5 144.9 75.3 144.4 74.9C143.9 74.5 143.7 74 143.7 73.4H139.8C139.8 75.2 140.5 76.5 142 77.4C143.2 78.1 144.8 78.4 146.7 78.4C148 78.4 149.1 78.2 150.1 77.8C150.3 77.7 150.5 77.6 150.7 77.5C152.2 76.7 153 75.3 153 73.5C153 71.9 152.2 70.8 150.6 70ZM79.7 64.6C78.5 63.8 77.1 63.4 75.6 63.4C71.4 63.4 68 66.8 68 71C68 75.2 71.4 78.6 75.5 78.6C77 78.6 78.4 78.2 79.6 77.4V78.2H83.1V63.7H79.6L79.7 64.6ZM79.7 71.8C79.3 73.7 77.6 75.2 75.6 75.2C73.3 75.2 71.5 73.3 71.5 71C71.5 68.7 73.4 66.8 75.6 66.8C77.6 66.8 79.3 68.3 79.7 70.2V71.8ZM101.5 62.2H105.3V58.9H101.5V62.2ZM101.5 78.1H105.3V63.4H101.5V78.1ZM96.3 64.6C95.1 63.8 93.7 63.4 92.2 63.4C88 63.4 84.6 66.8 84.6 71C84.6 75.2 88 78.6 92.2 78.6C93.7 78.6 95.1 78.2 96.3 77.4V78.2H99.8V58.8H96.3V64.6ZM96.3 71.8C95.9 73.7 94.2 75.2 92.2 75.2C89.9 75.2 88.1 73.3 88.1 71C88.1 68.7 90 66.8 92.2 66.8C94.2 66.8 95.9 68.3 96.3 70.2V71.8ZM118.3 58.8L114.2 51.9L104.1 35.1L92.1 42.3L91.7 42.5L92.1 43.2L101.5 58.8H118.3Z" fill="#818181"/>
</g>
<defs>
<clipPath id="clip0_603_431">
<rect width="85" height="56.6" fill="white" transform="translate(68 22)"/>
</clipPath>
</defs>
</svg>
