<svg width="60" height="60" viewBox="0 0 60 60" fill="none" xmlns="http://www.w3.org/2000/svg">
<path d="M37.8543 7.10554L38.457 6.2062L39.0488 5.31894L40.381 3.32811C40.5441 3.08323 40.478 2.75381 40.2345 2.59019C39.9865 2.42657 39.6559 2.49246 39.4918 2.73843L38.0647 4.87312L37.4642 5.77026L36.8548 6.67948C34.9242 5.93387 32.7721 5.5155 30.4988 5.5155C28.2277 5.5155 26.0756 5.93387 24.145 6.67948L23.5389 5.77026L22.9383 4.87312L21.5091 2.73733C21.346 2.49246 21.0144 2.42658 20.7675 2.58909C20.5229 2.75161 20.4568 3.08213 20.6199 3.32701L21.951 5.31785L22.545 6.2051L23.1477 7.10444C18.6132 9.20838 15.5465 13.1944 15.5465 17.757H45.4555C45.4555 13.1955 42.3888 9.20948 37.8543 7.10554ZM24.0921 13.4997C23.205 13.4997 22.4888 12.7849 22.4888 11.9031C22.4888 11.0213 23.205 10.3076 24.0921 10.3076C24.9769 10.3076 25.6932 11.0213 25.6932 11.9031C25.6932 12.7849 24.9769 13.4997 24.0921 13.4997ZM36.9088 13.4997C36.0239 13.4997 35.3077 12.7849 35.3077 11.9031C35.3077 11.0213 36.0239 10.3076 36.9088 10.3076C37.7959 10.3076 38.5121 11.0213 38.5121 11.9031C38.5121 12.7849 37.7959 13.4997 36.9088 13.4997Z" fill="#E0E0E0"/>
<path d="M15.7768 19.8867H15.5465V22.5419V24.7084V43.3057C15.5465 45.1647 17.0628 46.6768 18.9284 46.6768H21.3703C21.2887 46.9579 21.2425 47.2555 21.2425 47.563V47.7409V48.8049V54.3063C21.2425 56.0688 22.6783 57.4996 24.448 57.4996C26.2177 57.4996 27.6525 56.0688 27.6525 54.3063V48.8049V47.7409V47.563C27.6525 47.2566 27.6051 46.9579 27.5257 46.6768H33.4762C33.3947 46.9579 33.3495 47.2555 33.3495 47.563V47.7409V48.8049V54.3063C33.3495 56.0688 34.7853 57.4996 36.554 57.4996C38.3226 57.4996 39.7584 56.0688 39.7584 54.3063V48.8049V47.7409V47.563C39.7584 47.2566 39.7132 46.9579 39.6317 46.6768H42.0725C43.9381 46.6768 45.4555 45.1647 45.4555 43.3057V24.7084V22.5419V19.8867H45.2252H15.7768Z" fill="#E0E0E0"/>
<path d="M10.2045 19.8867C8.43473 19.8867 7 21.3153 7 23.0811V36.7402C7 38.5026 8.43473 39.9334 10.2045 39.9334C11.9731 39.9334 13.4089 38.5026 13.4089 36.7402V23.08C13.4089 21.3153 11.9742 19.8867 10.2045 19.8867Z" fill="#E0E0E0"/>
<path d="M50.7976 19.8867C49.0268 19.8867 47.5931 21.3153 47.5931 23.0811V36.7402C47.5931 38.5026 49.0268 39.9334 50.7976 39.9334C52.5662 39.9334 53.9998 38.5026 53.9998 36.7402V23.08C53.9998 21.3153 52.5662 19.8867 50.7976 19.8867Z" fill="#E0E0E0"/>
</svg>
