<svg width="220" height="100" viewBox="0 0 220 100" fill="none" xmlns="http://www.w3.org/2000/svg">
<g clip-path="url(#clip0_603_435)">
<path d="M134.2 54.8C135.3 48.9 142.3 45.9 147.4 46.2C149.4 46.3 151.1 46.9 152.1 48C152.5 47.6 152.9 47.1 153.3 46.7C153.5 46.5 154.2 46.5 154.8 46.6C155.5 46.7 156.2 47 156.7 47C157.2 47 158.3 46.7 159.4 46.5C160.5 46.3 161.5 46.4 161.3 46.8L160.3 49.2L157.1 57C156.5 58.6 158.9 58.1 162.4 54.5C163 54.9 163.3 55 163.8 56.4C160.9 58.9 158.1 60.7 154.2 62.1C150.7 63.3 148.2 61.6 147.4 58.7C142.5 63.3 135.6 63.3 133.6 58.1C130.4 59.7 126.5 61.4 125 61.8C123.8 62.2 122.6 62.4 121.5 62.4C119.8 62.4 117.9 60.8 118.5 58.5C115.7 59.8 113.4 60.6 110.2 61.7C106.7 62.9 104.7 61.6 103.9 58.7C99 63.3 92.1 63.3 90.1 58.1C88.2 59 85.5 60.4 83 61.4C79 63.2 74.4 62.8 70.9 59.2L72 57.4C73.6 59.1 75.6 59 77.2 57.6C78.9 56.1 79.9 53.2 79.2 50.8C78.9 49.8 77.7 48.9 75.5 49.1L76.2 47.3C78.5 47.2 80.2 46.9 81.2 45.5C82.6 43.5 82.6 40.4 79.7 40.5C79.2 40.5 78.6 40.6 77.9 40.9C77.4 42.4 76.5 44.2 75.8 46.1C74.2 50.4 72.3 55.1 70.2 58.2C67.6 61.8 64.9 62.6 62.7 62.4C60.4 62.2 58.6 61.5 56.1 59.3C56.1 58.3 56.2 57.9 56.4 56.7C57.3 57.9 60.3 59.3 61.3 57.8C63.5 54.6 65.9 48.3 67.8 44.3C66.2 44.8 64.6 45.8 62.5 47.3C62.5 47.1 61.8 46.5 61.8 45.8C65.2 41.8 71.3 39.4 75.4 38.5C81.7 37.2 88.4 39.1 89.4 43.1C90.1 45.7 87 48.2 84 48.6C85.7 49.6 87.5 51.3 87.9 53.4C88.1 54.5 88.1 55.6 87.7 56.7C88.7 56.2 89.9 55.6 90.7 55.3C91.9 46.7 105 44 108.6 48.1L109.8 46.8C110 46.6 110.7 46.6 111.3 46.7C112 46.8 112.7 47.1 113.2 47.1C113.7 47.1 114.8 46.8 115.9 46.6C117 46.4 118 46.5 117.8 46.9L113.7 57.1C112.8 59.4 119.6 55.3 120 55.1L122.9 48.9H119.9L120.4 46.3H123.7C124.3 45.6 124.4 44.7 125.1 44.1C126.1 43.4 128.3 43.8 129.4 43.1C130.3 42.5 131 41.6 131.8 40.3C132.5 39.1 135.1 39.4 134.6 40.5L132.3 46.3H135.2C136.6 46.4 135.4 48.7 133.8 48.7H131.4L128.6 56C127.9 58.6 131.5 56.4 134.2 54.8ZM107.1 49.8C106.8 48.7 105.8 48.4 105 48.5C103 48.7 101.1 50.9 100.1 52.4C98.5 54.8 98.9 58.5 101.4 57.8C104.1 57.1 107.6 51.5 107.1 49.8ZM150.7 49.8C150.4 48.7 149.4 48.4 148.6 48.5C146.6 48.7 144.7 50.9 143.7 52.4C142.1 54.8 142.5 58.5 145 57.8C147.6 57.1 151.1 51.5 150.7 49.8Z" fill="#818181"/>
</g>
<defs>
<clipPath id="clip0_603_435">
<rect width="108" height="24.6" fill="white" transform="translate(56 38)"/>
</clipPath>
</defs>
</svg>
