<svg width="22" height="22" viewBox="0 0 22 22" fill="none" xmlns="http://www.w3.org/2000/svg">
<g clip-path="url(#clip0_122_1364)">
<path d="M11 22C17.0751 22 22 17.0751 22 11C22 4.92487 17.0751 0 11 0C4.92487 0 0 4.92487 0 11C0 17.0751 4.92487 22 11 22Z" fill="#4176FA"/>
<path d="M14.9435 9.08722C11.7663 9.08722 11.7622 12.2524 11.7622 12.2687C11.7622 12.2687 11.5445 15.4378 14.9435 15.4378C14.9435 15.4378 17.7781 15.599 17.7781 13.2323H16.3225C16.3225 13.2323 16.3708 14.1233 14.9919 14.1233C14.9919 14.1233 13.5364 14.2201 13.5364 12.6838H17.8265C17.8265 12.6838 18.2983 9.08722 14.9435 9.08722ZM13.5201 11.575C13.5201 11.575 13.6975 10.3008 14.9758 10.3008C16.258 10.3008 16.2378 11.575 16.2378 11.575H13.5201ZM9.88348 10.7606C9.88348 10.7606 11.1455 10.6679 11.1455 9.18408C11.1455 7.70442 10.1133 6.97852 8.80286 6.97852H4.49231V15.2643H8.80246C8.80246 15.2643 11.4355 15.3451 11.4355 12.817C11.4355 12.817 11.5486 10.7606 9.88348 10.7606ZM6.39159 8.45014H8.80266C8.80266 8.45014 9.38739 8.45014 9.38739 9.31291C9.38739 10.1757 9.04463 10.3008 8.65344 10.3008H6.39159V8.45014ZM8.68187 13.7927H6.39159V11.575H8.80266C8.80266 11.575 9.67779 11.5669 9.67367 12.716C9.67367 13.6839 9.02463 13.7846 8.68187 13.7927ZM13.1612 7.46638V8.48661H16.5806V7.46638H13.1612Z" fill="#F1F2F2"/>
</g>
<defs>
<clipPath id="clip0_122_1364">
<rect width="22" height="22" fill="white"/>
</clipPath>
</defs>
</svg>
