<svg width="22" height="22" viewBox="0 0 22 22" fill="none" xmlns="http://www.w3.org/2000/svg">
<g clip-path="url(#clip0_122_1347)">
<path d="M14.3096 11.9938C15.3885 14.7234 16.1898 17.5337 16.7104 20.4047C17.4532 19.9517 18.1473 19.4078 18.7784 18.7769C20.4171 17.1379 21.4748 15.0727 21.8485 12.8314C20.2386 12.1654 18.4753 11.7969 16.6273 11.7969C15.8373 11.7969 15.0631 11.8648 14.3096 11.9938Z" fill="#EA4C89"/>
<path d="M18.7876 3.23125C18.7843 3.22822 18.7812 3.22493 18.7782 3.2219C16.7006 1.14427 13.9382 0 11.0001 0C9.85115 0 8.72915 0.175725 7.66435 0.51315C9.37073 2.65128 10.872 4.93295 12.1587 7.34443C14.5825 6.3151 16.815 4.92085 18.7876 3.23125Z" fill="#EA4C89"/>
<path d="M19.6517 4.20508C17.5826 5.9824 15.2702 7.42258 12.7542 8.4992C13.1252 9.24583 13.4755 10.0046 13.8061 10.7746C14.7295 10.5988 15.6714 10.5092 16.6273 10.5092C18.4789 10.5092 20.2796 10.8422 21.9884 11.4975C21.9958 11.3323 22 11.1664 22 11.0003C22 8.50388 21.1739 6.1353 19.6517 4.20508Z" fill="#EA4C89"/>
<path d="M4.22926 19.6724C6.15509 21.1825 8.51459 22.0014 11 22.0014C12.5799 22.0014 14.1086 21.67 15.5076 21.0414C14.9831 18.0029 14.1436 15.0714 13.0235 12.2812C9.13059 13.3436 5.92326 16.0834 4.22926 19.6724Z" fill="#EA4C89"/>
<path d="M10.7921 11.6871C11.3578 11.4478 11.9347 11.2449 12.5205 11.0782C12.2114 10.3704 11.8833 9.67243 11.5382 8.98438C8.56653 10.0877 5.4417 10.647 2.23163 10.647C1.48582 10.647 0.744975 10.6162 0.00962496 10.5563C0.00357496 10.7034 0 10.8513 0 11.0001C0 13.9382 1.14427 16.7006 3.2219 18.7782C3.22245 18.7788 3.22328 18.7796 3.2241 18.7801C3.94268 17.3471 4.88235 16.0444 6.02745 14.8993C7.40382 13.523 9.0068 12.4422 10.7921 11.6871Z" fill="#EA4C89"/>
<path d="M10.9351 7.82732C9.62964 5.40979 8.10257 3.12894 6.38134 1.01172C5.2214 1.54907 4.15274 2.29184 3.22187 3.22272C1.55757 4.88702 0.49277 6.99104 0.134995 9.27272C0.82662 9.32937 1.52567 9.35879 2.23187 9.35879C5.28684 9.35852 8.21834 8.81787 10.9351 7.82732Z" fill="#EA4C89"/>
</g>
<defs>
<clipPath id="clip0_122_1347">
<rect width="22" height="22" fill="white"/>
</clipPath>
</defs>
</svg>
