<svg width="96" height="96" viewBox="0 0 96 96" fill="none" xmlns="http://www.w3.org/2000/svg">
<path d="M89.2342 32.013L52.1782 12.5893C51.4415 12.2022 50.6217 12 49.7895 12C48.9573 12 48.1376 12.2022 47.4009 12.5893L10.3449 32.013C9.50819 32.4475 8.8074 33.1042 8.31949 33.9109C7.83158 34.7177 7.57542 35.6432 7.57914 36.586L7.57929 57.8327C6.8523 58.1332 6.22199 58.6279 5.7574 59.2627C5.29281 59.8974 5.01185 60.6478 4.94529 61.4316C4.87873 62.2154 5.02914 63.0024 5.38004 63.7065C5.73094 64.4105 6.26881 65.0044 6.93473 65.4231L4.26326 73.4219C4.00605 74.195 3.93601 75.0181 4.05889 75.8236C4.18178 76.629 4.49409 77.3938 4.97013 78.055C5.44618 78.7162 6.07238 79.255 6.79723 79.627C7.52208 79.9991 8.32489 80.1938 9.13965 80.1951C9.9544 80.1964 10.7578 80.0043 11.4839 79.6346C12.2099 79.2649 12.8379 78.7282 13.3161 78.0685C13.7943 77.4088 14.109 76.6451 14.2345 75.8401C14.36 75.035 14.2927 74.2117 14.0379 73.4378L11.3819 65.4232C12.045 65.0016 12.5796 64.4061 12.9276 63.7016C13.2756 62.9971 13.4237 62.2106 13.3556 61.4278C13.2876 60.645 13.006 59.8958 12.5417 59.262C12.0773 58.6281 11.448 58.1338 10.7221 57.8329V41.3477C17.2395 44.7553 39.9192 56.6599 47.4008 60.5829C48.1388 60.966 48.9581 61.1661 49.7896 61.1661C50.6211 61.166 51.4404 60.966 52.1784 60.5828C53.912 59.681 80.2199 45.8592 81.1881 45.3708L89.2341 41.1434C90.0682 40.7077 90.767 40.0519 91.2546 39.2471C91.7422 38.4422 92 37.5192 92 36.5782C92 35.6372 91.7422 34.7142 91.2546 33.9094C90.767 33.1045 90.0682 32.4487 89.2342 32.013Z" fill="#E0E0E0"/>
<path d="M53.6395 63.364C52.4468 63.9801 51.1238 64.3016 49.7814 64.3016C48.439 64.3017 47.1161 63.9802 45.9233 63.3641L18.375 48.922V66.1298C18.3735 67.0701 18.6307 67.9927 19.1186 68.7965C19.6064 69.6003 20.306 70.2544 21.1408 70.6872L47.4006 84.4535C48.1396 84.8333 48.9585 85.0314 49.7893 85.0314C50.6201 85.0314 51.439 84.8333 52.178 84.4535L78.4378 70.6872C79.2726 70.2544 79.9723 69.6003 80.4601 68.7965C80.9479 67.9927 81.2052 67.0701 81.2037 66.1298V48.9062L79.5222 49.7863L53.6395 63.364Z" fill="#E0E0E0"/>
</svg>
