<svg width="96" height="96" viewBox="0 0 96 96" fill="none" xmlns="http://www.w3.org/2000/svg">
<path d="M8 34.6667V68C8 79 17 88 28 88H68C79 88 88 79 88 68V34.6667H8ZM68 28H88C88 17 79 8 68 8H58L68 28ZM44.6667 28H61.3333L51.3333 8H34.6667L44.6667 28ZM8 28H38L28 8C17 8 8 17 8 28ZM41.3333 71.3333C39.6667 71.3333 38 69.6667 38 68V48C38 46.6667 38.6667 45.6667 39.6667 45C40.6667 44.3333 42 44.3333 43 45L59.6667 55C60.6667 55.6667 61.3333 56.6667 61.3333 58C61.3333 59.3333 60.6667 60.3333 59.6667 61L43 71C42.6667 71.3333 42 71.3333 41.3333 71.3333Z" fill="#E0E0E0"/>
</svg>
