<svg width="200" height="200" viewBox="0 0 200 200" fill="none" xmlns="http://www.w3.org/2000/svg">
<path d="M111.275 85.9051C108.457 85.2059 103.862 85.1802 99.9999 85.2059M99.9999 85.2059C98.7084 85.2145 99.4892 85.1596 97.7448 85.2059C93.1927 85.3479 88.7337 87.2398 88.7244 92.6C88.7145 98.3101 94.3621 99.9995 99.9999 99.9995C105.638 99.9995 111.275 101.303 111.275 107.399C111.275 111.98 106.723 113.988 101.049 114.652C96.5389 114.652 94.3621 114.799 88.7244 114.094M99.9999 85.2059L99.9999 77.4482M99.9999 114.655V122.55" stroke="white" stroke-width="6" stroke-linecap="round" stroke-linejoin="round"/>
<path d="M50.8432 89.8326C49.3098 90.4236 48.2966 91.8971 48.2966 93.5394V106.457C48.2966 108.102 49.3098 109.576 50.8432 110.164L56.8541 112.476C57.7774 115.677 59.0548 118.757 60.6672 121.674L58.0498 127.565C57.3825 129.069 57.7093 130.825 58.8723 131.988L68.0072 141.123C69.1702 142.286 70.9269 142.613 72.4303 141.946L78.3242 139.328C81.2438 140.941 84.3215 142.218 87.519 143.141L89.834 149.155C90.425 150.688 91.8985 151.702 93.5408 151.702H106.459C108.104 151.702 109.577 150.688 110.166 149.155L112.478 143.144C115.678 142.221 118.758 140.943 121.675 139.331L127.567 141.948C129.07 142.616 130.827 142.289 131.99 141.126L141.125 131.991C142.288 130.828 142.614 129.071 141.947 127.568L139.33 121.674C140.942 118.754 142.219 115.677 143.143 112.479L149.156 110.164C150.69 109.573 151.703 108.1 151.703 106.457V93.5394C151.703 91.8944 150.69 90.4209 149.156 89.8326L143.145 87.5176C142.222 84.3201 140.945 81.2397 139.332 78.32L141.95 72.4289C142.617 70.9255 142.29 69.1688 141.127 68.0058L131.992 58.8709C130.829 57.7079 129.073 57.3811 127.569 58.0484L121.675 60.6657C118.756 59.0534 115.678 57.776 112.481 56.8527L110.166 50.839C109.575 49.3057 108.101 48.2925 106.459 48.2925H93.5408C91.8958 48.2925 90.4223 49.3057 89.834 50.839L87.519 56.8527C84.3215 57.776 81.2411 59.0534 78.3242 60.6657L72.4303 58.0484C70.9269 57.3811 69.1702 57.7079 68.0072 58.8709L58.8723 68.0058C57.7093 69.1688 57.3825 70.9255 58.0498 72.4289L60.6672 78.3227C59.0548 81.2397 57.7774 84.3201 56.8541 87.5176L50.8432 89.8326Z" stroke="white" stroke-width="6" stroke-linecap="round"/>
<path d="M187.5 99.9985C187.5 148.299 148.3 187.499 100 187.499C51.7 187.499 22.2125 138.849 22.2125 138.849M22.2125 138.849H42.3181M22.2125 138.849V163.154M12.5 99.9985C12.5 51.6985 51.35 12.4985 100 12.4985C158.362 12.4985 187.5 61.1485 187.5 61.1485M187.5 61.1485V36.843M187.5 61.1485H168.094" stroke="white" stroke-width="6" stroke-linecap="round" stroke-linejoin="round"/>
</svg>
