<svg width="96" height="96" viewBox="0 0 96 96" fill="none" xmlns="http://www.w3.org/2000/svg">
<path d="M35.1336 77.0736C36.6845 78.4353 38.2855 79.8403 39.9324 81.2969C39.9436 81.3068 39.9551 81.317 39.9665 81.3269L45.4451 86.0592C46.1791 86.6934 47.0902 87.0103 48.0012 87.0103C48.9122 87.0103 49.8235 86.6931 50.5575 86.0592L56.035 81.3269C56.0465 81.317 56.0577 81.3071 56.0689 81.2972C66.9143 71.7058 75.0457 64.363 80.9285 57.2015C87.7996 48.8374 91 41.2748 91 33.4018C91 19.1576 79.8424 8 65.5987 8C59.1969 8 52.8714 10.4106 48.0012 14.5893C43.1297 10.4103 36.8042 8 30.4021 8C16.1579 7.99974 5 19.1576 5 33.4015C5 50.6196 16.9879 61.1435 35.1336 77.0736ZM32.3601 39.6856H42.7864V29.2588H53.2131V39.6856H63.6396V50.1121H53.2131V60.5383H42.7864V50.1121H32.3601V39.6856Z" fill="white"/>
</svg>
