<svg width="25" height="25" viewBox="0 0 25 25" fill="none" xmlns="http://www.w3.org/2000/svg">
<path d="M17.3333 6.45833C17.3333 5.33462 17.3333 4.77276 17.2098 4.31178C16.8746 3.06082 15.8975 2.08371 14.6466 1.74852C14.1856 1.625 13.6237 1.625 12.5 1.625C11.3763 1.625 10.8144 1.625 10.3534 1.74852C9.10249 2.08371 8.12538 3.06082 7.79019 4.31178C7.66667 4.77276 7.66667 5.33462 7.66667 6.45833M14.9167 11.8959C14.3125 11.746 13.3278 11.7405 12.5 11.746M12.5 11.746C12.2232 11.7479 12.3905 11.7361 12.0167 11.746C11.041 11.7765 10.0853 12.1819 10.0833 13.3308C10.0812 14.5546 11.2917 14.9167 12.5 14.9167C13.7083 14.9167 14.9167 15.1961 14.9167 16.5026C14.9167 17.4845 13.9409 17.9148 12.7249 18.0572C11.7582 18.0572 11.2917 18.0886 10.0833 17.9375M12.5 11.746L12.5 10.0833M12.5 18.0577V19.75M7.425 23.375H17.575C19.6052 23.375 20.6203 23.375 21.3957 22.9799C22.0778 22.6324 22.6324 22.0778 22.9799 21.3957C23.375 20.6203 23.375 19.6052 23.375 17.575V12.2583C23.375 10.2281 23.375 9.21305 22.9799 8.43762C22.6324 7.75553 22.0778 7.20098 21.3957 6.85344C20.6203 6.45833 19.6052 6.45833 17.575 6.45833H7.425C5.39481 6.45833 4.37971 6.45833 3.60428 6.85344C2.9222 7.20098 2.36764 7.75553 2.0201 8.43762C1.625 9.21305 1.625 10.2281 1.625 12.2583V17.575C1.625 19.6052 1.625 20.6203 2.0201 21.3957C2.36764 22.0778 2.9222 22.6324 3.60428 22.9799C4.37971 23.375 5.39481 23.375 7.425 23.375Z" stroke="#FF0036" strokeWidth="1.6" strokeLinecap="round" strokeLinejoin="round"/>
</svg>
