<svg width="22" height="22" viewBox="0 0 22 22" fill="none" xmlns="http://www.w3.org/2000/svg">
<path d="M11 20.668C16.3395 20.668 20.668 16.3395 20.668 11C20.668 5.66053 16.3395 1.33203 11 1.33203C5.66053 1.33203 1.33203 5.66053 1.33203 11C1.33203 16.3395 5.66053 20.668 11 20.668Z" fill="url(#paint0_linear_122_1411)"/>
<path d="M13.0539 5.62891H8.95037C7.1199 5.62891 5.63318 7.11562 5.63318 8.94609V13.0496C5.63318 14.8801 7.1199 16.3668 8.95037 16.3668H13.0539C14.8843 16.3668 16.3711 14.8801 16.3711 13.0496V8.94609C16.3711 7.11562 14.8843 5.62891 13.0539 5.62891ZM15.1722 13.0539C15.1722 14.2227 14.2226 15.1766 13.0496 15.1766H8.94607C7.77732 15.1766 6.82341 14.227 6.82341 13.0539V8.95039C6.82341 7.78164 7.77302 6.82773 8.94607 6.82773H13.0496C14.2183 6.82773 15.1722 7.77734 15.1722 8.95039V13.0539Z" fill="white"/>
<path d="M11 8.25391C9.48748 8.25391 8.25427 9.48711 8.25427 10.9996C8.25427 12.5121 9.48748 13.7453 11 13.7453C12.5125 13.7453 13.7457 12.5121 13.7457 10.9996C13.7457 9.48711 12.5125 8.25391 11 8.25391ZM11 12.6668C10.0804 12.6668 9.33279 11.9191 9.33279 10.9996C9.33279 10.0801 10.0804 9.33242 11 9.33242C11.9195 9.33242 12.6672 10.0801 12.6672 10.9996C12.6672 11.9191 11.9195 12.6668 11 12.6668Z" fill="white"/>
<path d="M13.9548 8.5547C14.2078 8.51369 14.3796 8.27538 14.3386 8.02242C14.2976 7.76946 14.0593 7.59763 13.8063 7.63864C13.5533 7.67965 13.3815 7.91796 13.4225 8.17092C13.4635 8.42388 13.7018 8.59571 13.9548 8.5547Z" fill="white"/>
<defs>
<linearGradient id="paint0_linear_122_1411" x1="3.63855" y1="18.3614" x2="17.3778" y2="4.62219" gradientUnits="userSpaceOnUse">
<stop stop-color="#FEE411"/>
<stop offset="0.0518459" stop-color="#FEDB16"/>
<stop offset="0.1381" stop-color="#FEC125"/>
<stop offset="0.2481" stop-color="#FE983D"/>
<stop offset="0.3762" stop-color="#FE5F5E"/>
<stop offset="0.5" stop-color="#FE2181"/>
<stop offset="1" stop-color="#9000DC"/>
</linearGradient>
</defs>
</svg>
