<svg width="60" height="60" viewBox="0 0 60 60" fill="none" xmlns="http://www.w3.org/2000/svg">
<path d="M30.5 2.5C15.3131 2.5 3 14.8131 3 30C3 45.1869 15.3131 57.5 30.5 57.5C45.6869 57.5 58 45.1869 58 30C58 25.5977 56.9375 21.4524 55.0996 17.7629C54.1279 18.9912 52.8146 19.9131 51.2906 20.4081C52.6404 23.3277 53.4167 26.5717 53.4167 30C53.4167 42.6569 43.1569 52.9167 30.5 52.9167C17.8431 52.9167 7.58333 42.6569 7.58333 30C7.58333 17.3431 17.8431 7.08333 30.5 7.08333C34.444 7.08333 38.1584 8.0806 41.3988 9.83602C41.9878 8.36706 42.989 7.11094 44.2724 6.21948C40.2207 3.86823 35.5256 2.5 30.5 2.5ZM48.8333 7.08333C47.3139 7.08333 45.8566 7.68694 44.7822 8.76137C43.7078 9.83579 43.1042 11.293 43.1042 12.8125C43.1042 14.332 43.7078 15.7892 44.7822 16.8636C45.8566 17.9381 47.3139 18.5417 48.8333 18.5417C50.3528 18.5417 51.81 17.9381 52.8845 16.8636C53.9589 15.7892 54.5625 14.332 54.5625 12.8125C54.5625 11.293 53.9589 9.83579 52.8845 8.76137C51.81 7.68694 50.3528 7.08333 48.8333 7.08333ZM30.5 17.9688C27.3091 17.9688 24.2489 19.2363 21.9926 21.4926C19.7363 23.7489 18.4688 26.8091 18.4688 30C18.4688 33.1909 19.7363 36.2511 21.9926 38.5074C24.2489 40.7637 27.3091 42.0312 30.5 42.0312C33.6909 42.0312 36.7511 40.7637 39.0074 38.5074C41.2637 36.2511 42.5312 33.1909 42.5312 30C42.5312 26.8091 41.2637 23.7489 39.0074 21.4926C36.7511 19.2363 33.6909 17.9688 30.5 17.9688Z" fill="#E0E0E0"/>
</svg>
