<svg width="60" height="60" viewBox="0 0 60 60" fill="none" xmlns="http://www.w3.org/2000/svg">
<path d="M54 42.8529C52.718 45.7159 52.1003 46.9957 50.4514 49.5224C48.143 53.0533 44.887 57.4622 40.8646 57.4902C37.2835 57.5229 36.3592 55.141 31.4961 55.183C26.6377 55.2064 25.6252 57.5369 22.0394 57.4996C18.0124 57.4622 14.9329 53.4923 12.6245 49.9661C6.16827 40.0787 5.4855 28.4865 9.47534 22.3215C12.2994 17.9499 16.763 15.3812 20.9572 15.3812C25.2304 15.3812 27.915 17.7398 31.4451 17.7398C34.8729 17.7398 36.9584 15.3765 41.9004 15.3765C45.6348 15.3765 49.5828 17.4222 52.4068 20.9531C43.1731 26.0439 44.6733 39.3034 54 42.8529ZM38.1474 11.43C39.945 9.10873 41.3105 5.83472 40.8135 2.5C37.8827 2.70083 34.4549 4.58303 32.453 7.02102C30.6369 9.24417 29.132 12.5415 29.7172 15.7315C32.9174 15.8342 36.2292 13.9146 38.1474 11.43Z" fill="#E0E0E0"/>
</svg>
