<svg width="22" height="22" viewBox="0 0 22 22" fill="none" xmlns="http://www.w3.org/2000/svg">
<g clip-path="url(#clip0_122_1385)">
<path d="M11 22C17.0751 22 22 17.0751 22 11C22 4.92487 17.0751 0 11 0C4.92487 0 0 4.92487 0 11C0 17.0751 4.92487 22 11 22Z" fill="#007AB9"/>
<path d="M17.5724 11.8842V16.4192H14.9431V12.1881C14.9431 11.1257 14.5635 10.4002 13.6115 10.4002C12.885 10.4002 12.4534 10.8887 12.2628 11.3616C12.1936 11.5306 12.1757 11.7654 12.1757 12.0024V16.419H9.54623C9.54623 16.419 9.58152 9.25291 9.54623 8.51112H12.1759V9.63175C12.1706 9.64057 12.1632 9.6492 12.1585 9.65763H12.1759V9.63175C12.5254 9.09408 13.1485 8.32543 14.5456 8.32543C16.2755 8.32543 17.5724 9.45566 17.5724 11.8842ZM6.79554 4.69922C5.8961 4.69922 5.30765 5.28963 5.30765 6.06535C5.30765 6.82459 5.87904 7.43206 6.76103 7.43206H6.77809C7.69518 7.43206 8.2654 6.82459 8.2654 6.06535C8.24795 5.28963 7.69518 4.69922 6.79554 4.69922ZM5.46393 16.4192H8.09245V8.51112H5.46393V16.4192Z" fill="#F1F2F2"/>
</g>
<defs>
<clipPath id="clip0_122_1385">
<rect width="22" height="22" fill="white"/>
</clipPath>
</defs>
</svg>
