<svg width="132" height="60" viewBox="0 0 132 60" fill="none" xmlns="http://www.w3.org/2000/svg">
<g clip-path="url(#clip0_70_354)">
<path d="M6.65739 59.5969L0 37.6008H7.46087L10.3304 48.5989L13.6591 37.5432H19.9722L23.3583 48.6564L26.2852 37.6008H33.6313L26.9739 59.5969H20.3739L16.8157 48.2534L13.2 59.5969H6.65739Z" fill="#DFDFDF"/>
<path d="M43.847 60C38.8539 60 34.8365 58.3301 31.8522 54.9904L36.7878 50.0384C38.8539 52.1689 41.0922 53.263 43.5026 53.263C44.593 53.263 45.4539 52.975 46.1426 52.4568C46.7739 51.9386 47.1183 51.2476 47.1183 50.3839V50.3263C47.1183 49.405 46.7165 48.714 45.913 48.1958C45.1096 47.6775 43.9617 47.4472 42.527 47.4472H39.2557L38.1078 43.3589L44.593 37.4856H33.8035V31.1516H54.1774V36.737L47.4626 42.4952C52.3409 43.5893 54.7513 46.238 54.7513 50.4415V50.499C54.7513 53.3205 53.7183 55.6238 51.7096 57.2937C49.6435 59.1363 47.0609 60 43.847 60Z" fill="#FF0036"/>
<path d="M55.153 59.4242V37.6008H62.7861V40.6526C64.6226 38.2917 66.8035 37.0825 69.3287 37.0825C71.6244 37.0825 73.4609 37.8311 74.7809 39.2706C76.1009 40.7102 76.7322 42.6679 76.7322 45.144V59.4242H69.0991V47.5624C69.0991 46.4107 68.8122 45.4894 68.2957 44.856C67.7217 44.2227 66.9757 43.8772 66.0574 43.8772C65.0817 43.8772 64.3357 44.2227 63.7044 44.856C63.1304 45.4894 62.8435 46.4107 62.8435 47.5624V59.3666H55.153V59.4242Z" fill="#DFDFDF"/>
<path d="M84.8817 59.8848C82.5861 59.8848 80.7496 59.1939 79.4296 57.7543C78.1096 56.3148 77.4783 54.357 77.4783 51.881V37.6008H85.1113V49.405C85.1113 50.5566 85.3983 51.4779 85.9722 52.1113C86.5461 52.7447 87.2922 53.0902 88.2104 53.0902C89.1287 53.0902 89.9322 52.7447 90.5061 52.1113C91.08 51.4779 91.367 50.5566 91.367 49.405V37.6008H99V59.4242H91.367V56.4299C89.5878 58.7332 87.4643 59.8848 84.8817 59.8848Z" fill="#DFDFDF"/>
<path d="M108.814 59.8848C103.936 59.8848 101.468 57.4664 101.468 52.6871V43.762H98.8852V37.6008H101.468V32.0729H109.101V37.6008H114.151V43.762H109.101V51.1324C109.101 52.572 109.79 53.3205 111.167 53.3205C112.085 53.3205 113.061 53.0902 114.037 52.572V58.5605C112.602 59.4242 110.88 59.8848 108.814 59.8848Z" fill="#DFDFDF"/>
<path d="M123.104 59.8848C119.202 59.8848 115.758 58.7908 112.831 56.6603L115.701 51.9962C118.226 53.666 120.694 54.4722 123.162 54.4722C124.424 54.4722 125.113 54.0691 125.113 53.3205V53.263C125.113 52.8599 124.883 52.572 124.367 52.3417C123.85 52.1113 122.932 51.7658 121.612 51.4204C120.35 51.0749 119.374 50.787 118.513 50.4415C117.71 50.096 116.906 49.6929 116.16 49.1747C115.414 48.6564 114.84 47.9655 114.438 47.2169C114.037 46.4108 113.864 45.4894 113.864 44.453V44.3378C113.864 42.0921 114.668 40.3071 116.275 39.0403C117.882 37.7735 120.005 37.1401 122.588 37.1401C125.917 37.1401 128.958 38.0038 131.541 39.6737L128.901 44.5106C126.49 43.1862 124.367 42.4952 122.473 42.4952C121.268 42.4952 120.694 42.8407 120.694 43.5317V43.5893C120.694 43.9923 120.923 44.2802 121.44 44.5106C121.957 44.7409 122.875 45.0864 124.195 45.4894C126.72 46.238 128.671 47.0441 129.991 48.0806C131.311 49.0595 131.943 50.499 131.943 52.4568V52.5144C131.943 54.8752 131.139 56.6603 129.532 57.9271C127.983 59.2514 125.802 59.8848 123.104 59.8848Z" fill="#DFDFDF"/>
<path d="M85.3409 8.17658C85.3409 8.17658 86.3165 7.1977 87.12 6.5643C87.12 6.5643 88.9565 4.26104 91.08 3.51248C91.08 3.51248 93.2035 2.87908 94.1218 3.51248C94.1218 3.51248 94.2939 2.41843 95.327 1.95777C95.327 1.95777 98.0244 0.978886 98.5409 0.575815C98.5409 0.575815 98.5983 2.1881 98.9426 2.99424C98.9426 2.99424 99.2296 4.49136 97.4504 5.41267C97.4504 5.41267 98.4261 7.37044 98.4835 8.52207C98.4835 8.52207 102.903 17.3321 104.739 19.0019C104.739 19.0019 108.986 23.7812 108.584 27.6967C108.584 27.6967 109.79 25.3359 113.463 23.2054C113.463 23.2054 117.997 20.8445 116.734 13.5317C116.734 13.5317 115.816 8.92514 111.339 9.96161C111.339 9.96161 108.24 10.7678 110.363 13.762C110.363 13.762 110.478 14.453 110.134 14.2802C110.134 14.2802 108.527 13.8196 108.068 13.1862C108.068 13.1862 107.723 13.1286 108.125 13.8772C108.125 13.8772 99.1148 8.69482 107.092 2.01535C107.092 2.01535 106.977 1.38196 105.715 1.90019C105.715 1.90019 115.529 -3.91555 123.908 4.49136C123.908 4.49136 129.647 11.8618 126.031 20.499C126.031 20.499 124.367 24.2994 119.317 26.8906C119.317 26.8906 113.118 30.2303 112.774 30.4607L113.29 30.5758C113.29 30.5758 111.167 31.0365 110.937 31.5547L110.995 31.9002C110.995 31.9002 109.445 32.1881 107.666 33.6852C107.666 33.6852 105.887 35.9885 103.821 36.2764C103.821 36.2764 103.993 36.3916 104.165 35.8157C104.165 35.8157 102.73 35.4702 102.501 37.1401C102.501 37.1401 102.616 37.8887 99.3444 37.6008C99.3444 37.6008 93.3757 37.3704 91.4244 38.0038L91.6539 37.5432C91.6539 37.5432 90.9652 37.428 90.7357 37.7159C90.7357 37.7159 90.7357 36.4491 93.2609 36.6795C93.2609 36.6795 90.9078 35.1823 90.9078 32.8791C90.9078 32.8791 90.4487 30.5182 91.9983 28.1574C91.9983 28.1574 94.3513 24.0115 92.687 23.4357C92.687 23.4357 92.3426 23.0902 91.9983 23.7812C91.9983 23.7812 91.4244 24.2418 89.8174 22.3992C89.8174 22.3992 87.4644 20.0384 87.407 22.8023C87.407 22.8023 87.3496 23.5509 86.7183 22.572C86.7183 22.572 86.3739 22.6871 86.4887 23.0902C86.4887 23.0902 85.1687 22.572 85.7426 21.3052C85.7426 21.3052 85.9722 18.9443 88.727 19.1747C88.727 19.1747 88.1531 16.1228 89.1287 14.9712C89.1287 14.9712 88.4974 14.7985 88.44 15.3167C88.44 15.3167 88.44 13.5893 90.2191 12.2649C90.2191 12.2649 90.2191 11.4587 89.2435 11.8042C89.2435 11.7466 84.8244 11.286 85.3409 8.17658Z" fill="#FF0036"/>
</g>
<defs>
<clipPath id="clip0_70_354">
<rect width="132" height="60" fill="white"/>
</clipPath>
</defs>
</svg>
