<svg width="96" height="96" viewBox="0 0 96 96" fill="none" xmlns="http://www.w3.org/2000/svg">
<path d="M54.4767 62.456C54.1481 62.0961 53.7323 61.8269 53.3027 61.6026C52.3671 61.1148 51.344 60.8189 50.3281 60.5518V68.4237C51.977 68.2373 53.87 67.6389 54.7358 66.0995C55.1491 65.3642 55.2313 64.4608 55.0629 63.6422C54.9716 63.1987 54.783 62.7916 54.4767 62.456Z" fill="#E0E0E0"/>
<path d="M54.7344 66.1181C54.738 66.112 54.74 66.1081 54.7439 66.1016C54.7407 66.107 54.7375 66.1124 54.7344 66.1181Z" fill="#E0E0E0"/>
<path d="M42.5942 49.8727C42.3108 50.2867 42.1329 50.7569 42.0838 51.2568C42.0347 51.7577 42.0623 52.3149 42.2526 52.7864C42.4338 53.2357 42.8133 53.5674 43.2051 53.8346C43.6447 54.1336 44.1282 54.3671 44.6206 54.5651C45.0337 54.7314 45.4984 54.8904 45.9993 55.044V47.9209C44.7339 48.1909 43.3513 48.7674 42.5942 49.8727Z" fill="#E0E0E0"/>
<path d="M54.7747 66.042C54.7643 66.0604 54.7532 66.0797 54.7422 66.1C54.755 66.0764 54.7652 66.059 54.7747 66.042Z" fill="#E0E0E0"/>
<path d="M53.1061 23.1474C59.8004 17.5238 64.2735 4.85474 61.5207 4.30063C57.8631 3.56408 49.9204 6.79373 46.0813 7.36275C40.6363 8.02019 34.7058 1.4582 31.377 5.11585C28.6704 8.08977 33.3174 18.9049 40.5878 23.6166C18.897 34.2773 -11.5909 87.7949 41.5968 91.678C115.191 97.0512 78.3399 33.536 53.1061 23.1474ZM59.4265 65.3539C59.2001 67.4403 58.0944 69.3271 56.4416 70.608C54.6964 71.9606 52.5075 72.5897 50.3326 72.7659V75.0712C50.3326 75.688 50.0632 76.2846 49.6015 76.6929C48.9668 77.2545 48.0342 77.393 47.2639 77.0381C46.5033 76.6882 46.0037 75.9081 46.0037 75.0712V72.5516C45.6307 72.4807 45.2605 72.3965 44.8946 72.296C42.862 71.7376 40.9767 70.649 39.5995 69.0384C38.9134 68.2356 38.3542 67.3247 37.9674 66.3414C37.8663 66.0844 37.7762 65.8227 37.6973 65.558C37.6259 65.3185 37.5522 65.0749 37.5267 64.8252C37.4838 64.4063 37.5669 63.9789 37.7621 63.6058C38.1634 62.8382 39.0091 62.3746 39.8726 62.4516C40.7224 62.527 41.4672 63.1167 41.7348 63.9268C41.8172 64.1763 41.8731 64.432 41.9656 64.6788C42.0574 64.924 42.1681 65.1623 42.2984 65.3893C42.5556 65.8361 42.8778 66.2482 43.2488 66.6058C44.0137 67.3428 44.988 67.8217 46.0037 68.1066V59.5419C44.0177 59.0277 41.9677 58.3637 40.3277 57.0885C39.5307 56.4686 38.8544 55.6983 38.4115 54.7865C37.9442 53.8243 37.7506 52.7523 37.7427 51.6876C37.7346 50.6065 37.94 49.5349 38.391 48.5499C38.8134 47.6276 39.4216 46.7995 40.1672 46.1131C41.7617 44.6456 43.8796 43.827 46.0039 43.5264V43.338V41.1333C46.0039 40.5166 46.2733 39.9199 46.735 39.5115C47.3699 38.9502 48.3021 38.8114 49.0726 39.1664C49.833 39.5165 50.3328 40.2963 50.3328 41.1333V43.338V43.5133C50.6159 43.549 50.8981 43.5916 51.1789 43.6426C53.2649 44.02 55.3052 44.8814 56.8306 46.3854C57.5533 47.0977 58.1449 47.9465 58.5609 48.8721C58.6771 49.1303 58.7787 49.3945 58.8667 49.6639C58.9487 49.9151 59.0312 50.1737 59.0703 50.4358C59.1328 50.8543 59.069 51.2867 58.8899 51.6696C58.523 52.4539 57.7001 52.9534 56.8344 52.9163C55.9837 52.8792 55.213 52.3253 54.9084 51.5302C54.8177 51.2937 54.7724 51.0434 54.6798 50.8075C54.5864 50.5688 54.4655 50.341 54.3262 50.1259C54.0553 49.7076 53.7043 49.3489 53.3036 49.0535C52.436 48.4128 51.3837 48.079 50.3322 47.8924V56.0886C51.5819 56.3878 52.8326 56.7141 54.0298 57.1863C55.8394 57.8998 57.5541 58.994 58.5419 60.7193C58.3886 60.4505 58.2395 60.1885 58.547 60.7282C58.8489 61.2583 58.7048 61.0056 58.5532 60.74C59.3391 62.1248 59.5973 63.7808 59.4265 65.3539Z" fill="#E0E0E0"/>
<path d="M54.712 66.1553C54.6994 66.1778 54.6884 66.1977 54.6797 66.2128C54.6871 66.1998 54.6983 66.1801 54.712 66.1553Z" fill="#E0E0E0"/>
</svg>
