<svg width="60" height="60" viewBox="0 0 60 60" fill="none" xmlns="http://www.w3.org/2000/svg">
<path d="M30.4247 57.5C15.6488 57.5 3.1167 45.0213 3.00068 30.1417C2.94924 22.8972 5.80044 15.9329 10.9184 10.8049C13.4689 8.19298 16.5131 6.1138 19.8741 4.68812C23.2351 3.26243 26.846 2.51867 30.4969 2.50001C37.7371 2.49345 44.6817 5.3781 49.7865 10.5105C52.3569 13.0154 54.4059 16.0041 55.8155 19.3045C57.2251 22.6049 57.9675 26.1515 57.9997 29.7401C58.0676 44.9371 45.8474 57.3359 30.637 57.4902L30.4247 57.5ZM30.5013 3.95985C27.0417 3.98001 23.6205 4.68698 20.4364 6.03974C17.2523 7.3925 14.3686 9.36411 11.9527 11.8401C9.54969 14.2424 7.64751 17.0976 6.3564 20.2404C5.06528 23.3831 4.41091 26.7508 4.43121 30.1483C4.54066 44.2389 16.4161 56.0566 30.4083 56.0566H30.5943C45.0178 55.9154 56.6163 44.1656 56.5506 29.7565C56.5183 26.3568 55.8134 22.997 54.4767 19.8708C53.14 16.7446 51.1978 13.9138 48.7621 11.5414C46.3733 9.13231 43.5303 7.22092 40.3977 5.91785C37.2651 4.61479 33.9051 3.94593 30.5122 3.95L30.5013 3.95985ZM9.15839 38.0483V21.9835H13.0658V23.4225H10.9928V36.6366H13.0658V38.0756L9.15839 38.0483ZM22.4348 29.8572C22.4348 32.7867 20.6573 34.4556 18.2461 34.4556C15.8349 34.4556 14.2292 32.5777 14.2292 30.0082C14.2292 27.3238 15.9148 25.4306 18.3752 25.4306C20.8357 25.4306 22.4249 27.4026 22.4249 29.8561L22.4348 29.8572ZM15.9137 29.9863C15.9137 31.7635 16.8057 33.1741 18.3391 33.1741C19.8725 33.1741 20.7503 31.7351 20.7503 29.9218C20.7503 28.2737 19.9371 26.7197 18.3391 26.7197C16.7411 26.7197 15.8984 28.2234 15.8984 30.0246L15.9137 29.9863ZM23.7898 25.7338C24.5553 25.6014 25.331 25.5362 26.1079 25.539C26.9806 25.4534 27.858 25.6473 28.6133 26.0927C29.1901 26.421 29.537 27.0579 29.5217 27.7265C29.4998 28.602 28.9197 29.3647 28.0824 29.6197C28.5803 29.7208 29.0279 29.9911 29.3491 30.3847C29.6703 30.7783 29.8454 31.2709 29.8446 31.7788C29.8502 32.1229 29.7773 32.4638 29.6315 32.7755C29.4856 33.0873 29.2707 33.3617 29.0029 33.5779C28.3834 34.1251 27.3546 34.391 25.7632 34.391C25.1087 34.3943 24.4547 34.3559 23.8051 34.2761L23.7898 25.7338ZM25.3735 29.1809H26.1867C27.2878 29.1809 27.9073 28.6633 27.9073 27.9224C27.9073 27.1816 27.2878 26.7274 26.2732 26.7274C25.9689 26.7165 25.6658 26.7384 25.3648 26.7931L25.3735 29.1809ZM25.3735 33.1971C25.6531 33.226 25.9342 33.238 26.2152 33.2332C27.2375 33.2332 28.1437 32.8447 28.1437 31.7942C28.1437 30.7436 27.2659 30.3551 26.1649 30.3551H25.3735V33.1971ZM32.988 25.6189H34.5783V31.3094C34.5783 33.7202 33.4127 34.5267 31.6998 34.5267C31.2426 34.5213 30.7889 34.4475 30.3535 34.3078L30.5484 33.0275C30.8678 33.1273 31.1999 33.1808 31.5345 33.1862C32.443 33.1862 32.9738 32.7703 32.9738 31.2579L32.988 25.6189ZM39.1173 30.3464V31.4473H35.8064V30.3464H39.1173ZM46.8368 34.089C46.1213 34.374 45.354 34.5063 44.5843 34.4775C41.813 34.4775 40.1297 32.7429 40.1297 30.087C40.0967 29.4683 40.1952 28.8496 40.4186 28.2717C40.642 27.6937 40.9853 27.1696 41.4259 26.7339C41.8664 26.2982 42.3943 25.9606 42.9747 25.7436C43.5551 25.5265 44.175 25.4347 44.7934 25.4744C45.533 25.4436 46.2703 25.5762 46.9528 25.8629L46.6004 27.129C46.0586 26.9102 45.4753 26.7832 44.8875 26.8007C43.11 26.8007 41.8284 27.9169 41.8284 30.0181C41.8284 31.9331 42.9579 33.1697 44.8733 33.1697C45.4676 33.1785 46.0575 33.068 46.6081 32.8458L46.8368 34.089ZM51.8442 21.9397V38.0483H47.9368V36.6092H50.0098V23.3809H47.9259V21.9397H51.8442Z" fill="#E0E0E0"/>
</svg>
