<svg width="154" height="133" viewBox="0 0 154 133" fill="none" xmlns="http://www.w3.org/2000/svg">
<path d="M33.9788 129.671H49.5507H120.015" stroke="white" strokeWidth="6" strokeLinecap="round" strokeLinejoin="round"/>
<path d="M97.7551 129.69L107.628 93.4787C107.86 92.639 107.914 91.7601 107.787 90.8982C107.66 90.0364 107.354 89.2105 106.889 88.4737L79.6431 45.1237C79.3613 44.6766 78.9708 44.3081 78.508 44.0527C78.0452 43.7974 77.5253 43.6635 76.9967 43.6635C76.4682 43.6635 75.9482 43.7974 75.4854 44.0527C75.0227 44.3081 74.6321 44.6766 74.3503 45.1237L47.1041 88.4862C46.6393 89.223 46.3336 90.0489 46.2065 90.9107C46.0794 91.7726 46.1336 92.6515 46.3659 93.4912L56.2383 129.69" stroke="white" strokeWidth="6" strokeLinecap="round" strokeLinejoin="round"/>
<path d="M76.9965 43.6597V103.908" stroke="white" strokeWidth="6" strokeLinecap="round" strokeLinejoin="round"/>
<path d="M76.9961 121.1C81.7436 121.1 85.5922 117.252 85.5922 112.504C85.5922 107.757 81.7436 103.908 76.9961 103.908C72.2485 103.908 68.3999 107.757 68.3999 112.504C68.3999 117.252 72.2485 121.1 76.9961 121.1Z" stroke="white" strokeWidth="6" stroke-miterlimit="10"/>
<path d="M141.738 26.1671C146.485 26.1671 150.334 22.3184 150.334 17.5709C150.334 12.8234 146.485 8.97473 141.738 8.97473C136.99 8.97473 133.141 12.8234 133.141 17.5709C133.141 22.3184 136.99 26.1671 141.738 26.1671Z" stroke="white" strokeWidth="6" strokeLinecap="round" strokeLinejoin="round"/>
<path d="M12.2628 26.1671C17.0103 26.1671 20.8589 22.3184 20.8589 17.5709C20.8589 12.8234 17.0103 8.97473 12.2628 8.97473C7.51526 8.97473 3.66663 12.8234 3.66663 17.5709C3.66663 22.3184 7.51526 26.1671 12.2628 26.1671Z" stroke="white" strokeWidth="6" strokeLinecap="round" strokeLinejoin="round"/>
<path d="M88.4453 3H65.5534C63.8258 3 62.4253 4.40052 62.4253 6.12815V29.02C62.4253 30.7476 63.8258 32.1481 65.5534 32.1481H88.4453C90.1729 32.1481 91.5734 30.7476 91.5734 29.02V6.12815C91.5734 4.40052 90.1729 3 88.4453 3Z" stroke="white" strokeWidth="6" strokeLinecap="round" strokeLinejoin="round"/>
<path d="M133.141 17.5709H91.5676" stroke="white" strokeWidth="6" strokeLinecap="round" strokeLinejoin="round"/>
<path d="M62.4259 17.5709H20.8528" stroke="white" strokeWidth="6" strokeLinecap="round" strokeLinejoin="round"/>
<path d="M9.42859 74.3219C11.4979 60.6364 17.6723 47.9013 27.1352 37.8005C36.5982 27.6996 48.9041 20.7088 62.4257 17.7524" stroke="white" strokeWidth="6" sstrokeLinecap="round" strokeLinejoin="round"/>
<path d="M91.5676 17.7524C105.089 20.7088 117.395 27.6996 126.858 37.8005C136.321 47.9013 142.495 60.6364 144.565 74.3219" stroke="white" strokeWidth="6" strokeLinecap="round" strokeLinejoin="round"/>
</svg>
