<svg width="220" height="100" viewBox="0 0 220 100" fill="none" xmlns="http://www.w3.org/2000/svg">
<g clip-path="url(#clip0_603_441)">
<path d="M109.7 17C78.4 17 53 31.8 53 50C53 61.5 63 71.5 78.3 77.5L90 36.2C91.1 32.3 95.2 24.1 104.1 23.7C106.5 23.5 111.4 25.3 111.4 30.1C111.4 31.9 109.8 33.4 107.8 33.4C105.8 33.4 104.2 31.9 104.2 30.1C104.2 28.3 105.8 26.8 107.8 26.8C107.3 26.1 105.4 25 104.1 25C102.8 25 99.7 25.5 97.8 32.1L94.8 42.5H106.2L101.3 59.7H95.2L99.5 44.6H94.1L84.1 79.5C91.7 81.7 100.4 83 109.5 83C140.8 83 166.2 68.2 166.2 50C166.4 31.8 141 17 109.7 17ZM85.2 44.1C83.2 51.7 76.3 51.6 74.1 51.6H69.7L67.3 59.8H60.6L67.3 36.3H64L64.5 34.6H78.3C86.1 34.5 86.2 40 85.2 44.1ZM119 59.8H104.8L114.9 44.6H109.1L109.7 42.5H124L113.9 57.7H119.6L119 59.8ZM141.9 51.6H129.8C128.9 54.4 128.4 58 130.8 58C133.2 58.1 134.5 55.7 135.2 53.4H141.1C139.2 59.8 133.8 60.4 130.4 60.2C123.2 59.8 122.2 55.2 123.8 50.4C125.8 44 130.1 41.7 135.3 41.7C142.8 41.8 142.8 48.1 141.9 51.6ZM159.6 48.4C157.8 48.4 156.2 46.9 156.3 44.8C155 45.1 153.1 47.6 152.8 48.9L149.7 59.7H143L147.4 44.6H144.8L145.4 42.5H154.6L153.8 45.3C155.7 42.8 158.4 42.1 159.5 42.1C161.3 42.1 162.8 43.3 162.8 45.1C162.9 46.9 161.4 48.4 159.6 48.4ZM130.4 49.8C131 47.9 131.9 43.5 134.9 43.5C137.9 43.5 136.4 48.1 135.9 49.8H130.4ZM74.1 36.2H76.8C78.9 36.3 79.8 38.2 78.6 43.2C77.5 48.2 74.9 49.8 72.9 49.8H70.2L74.1 36.2Z" fill="#818181"/>
</g>
<defs>
<clipPath id="clip0_603_441">
<rect width="113.4" height="66" fill="white" transform="translate(53 17)"/>
</clipPath>
</defs>
</svg>
