<svg width="420" height="330" viewBox="0 0 420 330" fill="none" xmlns="http://www.w3.org/2000/svg">
<g clip-path="url(#clip0_616_6269)">
<path d="M72.7538 296.847C72.1381 299.654 72.3597 302.579 73.3912 305.262C74.4226 307.945 76.2188 310.267 78.5578 311.942C83.3998 314.994 88.5758 317.482 93.9846 319.358C115.835 326.831 139.691 325.912 160.901 316.782C164.682 314.999 168.709 313.207 171.922 310.489C177.849 304.829 177.121 298.224 174.418 291.158C156.014 241.219 85.5622 245.201 72.7821 296.818L72.7538 296.847ZM72.7538 296.847C85.5055 244.786 156.59 240.417 175.288 290.846C176.319 293.557 177.014 296.383 177.358 299.262C177.467 301.475 177.086 303.685 176.243 305.734C175.4 307.784 174.115 309.623 172.48 311.122C169.143 313.952 165.117 315.697 161.203 317.518C140.105 326.595 115.527 327.085 93.9374 319.471C88.5291 317.569 83.3564 315.055 78.5199 311.98C76.1905 310.298 74.404 307.973 73.3797 305.291C72.3554 302.61 72.1378 299.688 72.7538 296.885V296.847Z" fill="#E0E0E0"/>
<path d="M124.659 240.794C138.854 240.794 150.361 229.309 150.361 215.141C150.361 200.973 138.854 189.488 124.659 189.488C110.464 189.488 98.9568 200.973 98.9568 215.141C98.9568 229.309 110.464 240.794 124.659 240.794Z" fill="#121212" stroke="#E0E0E0" stroke-miterlimit="10"/>
<path d="M293.475 296.847C292.859 299.655 293.082 302.581 294.115 305.264C295.148 307.947 296.947 310.269 299.289 311.942C304.128 314.992 309.301 317.48 314.706 319.358C336.549 326.83 360.397 325.918 381.603 316.801C385.384 315.018 389.411 313.226 392.625 310.508C398.542 304.847 397.824 298.243 395.121 291.176C376.716 241.238 306.265 245.22 293.475 296.837V296.847ZM293.475 296.847C306.236 244.786 377.321 240.417 396.009 290.846C397.048 293.555 397.747 296.382 398.089 299.262C398.196 301.476 397.814 303.686 396.97 305.736C396.125 307.785 394.839 309.624 393.202 311.122C389.874 313.952 385.847 315.697 381.934 317.518C360.826 326.595 336.258 327.085 314.659 319.471C309.254 317.569 304.084 315.055 299.251 311.98C296.921 310.298 295.133 307.974 294.107 305.292C293.081 302.611 292.862 299.689 293.475 296.885V296.847Z" fill="#E0E0E0"/>
<path d="M345.39 240.794C359.585 240.794 371.092 229.309 371.092 215.141C371.092 200.973 359.585 189.488 345.39 189.488C331.195 189.488 319.688 200.973 319.688 215.141C319.688 229.309 331.195 240.794 345.39 240.794Z" fill="#121212" stroke="#E0E0E0" stroke-miterlimit="10"/>
<path d="M183.115 112.83C182.5 115.638 182.723 118.564 183.756 121.247C184.789 123.93 186.587 126.252 188.928 127.926C193.777 130.977 198.963 133.459 204.383 135.323C226.225 142.804 250.076 141.892 271.28 132.766C275.061 130.983 279.088 129.19 282.293 126.473C288.22 120.812 287.492 114.208 284.798 107.141C266.384 57.2027 195.942 61.1842 183.152 112.802L183.115 112.83ZM183.115 112.83C195.876 60.7785 266.951 56.4007 285.677 106.83C286.708 109.543 287.404 112.373 287.747 115.255C287.851 117.469 287.465 119.678 286.617 121.726C285.769 123.774 284.48 125.61 282.841 127.105C279.504 129.936 275.477 131.681 271.564 133.502C250.465 142.578 225.898 143.069 204.298 135.455C198.89 133.555 193.717 131.045 188.881 127.973C186.553 126.289 184.768 123.964 183.744 121.283C182.72 118.602 182.501 115.681 183.115 112.877V112.83Z" fill="#E0E0E0"/>
<path d="M235.02 56.7781C249.214 56.7781 260.722 45.2928 260.722 31.1249C260.722 16.957 249.214 5.47168 235.02 5.47168C220.825 5.47168 209.318 16.957 209.318 31.1249C209.318 45.2928 220.825 56.7781 235.02 56.7781Z" fill="#121212" stroke="#E0E0E0" stroke-miterlimit="10"/>
<path d="M298.911 106.443C322.916 121.126 340.581 144.207 348.462 171.184L349.861 176.553L348.226 171.26C339.451 144.79 322.101 121.986 298.911 106.443Z" fill="url(#paint0_linear_616_6269)"/>
<path d="M186.31 314.131C213.44 325.692 243.812 327.221 271.97 318.443C275.981 317.209 279.925 315.77 283.786 314.131C280.007 315.923 276.128 317.498 272.169 318.848C244.387 328.368 212.872 326.773 186.357 314.131H186.31Z" fill="url(#paint1_linear_616_6269)"/>
<path d="M120.169 176.553C126.26 151.077 141.012 128.498 161.912 112.66L166.44 109.434L171.11 106.443L166.572 109.641C144.083 126.179 127.753 149.722 120.159 176.553H120.169Z" fill="url(#paint2_linear_616_6269)"/>
<path d="M221.237 254.833H248.972V267.099C248.972 270.987 247.424 274.717 244.669 277.466C241.914 280.216 238.178 281.76 234.282 281.76C230.823 281.76 227.505 280.389 225.058 277.947C222.612 275.505 221.237 272.194 221.237 268.74V254.833Z" stroke="#E0E0E0" stroke-miterlimit="10"/>
<path d="M221.237 262.164H248.972" stroke="#E0E0E0" stroke-miterlimit="10"/>
<path d="M221.237 269.976H248.972" stroke="#E0E0E0" stroke-miterlimit="10"/>
<path d="M215.084 241.153C215.81 241.839 216.389 242.666 216.785 243.582C217.182 244.498 217.387 245.486 217.39 246.484V252.079C217.393 252.936 217.735 253.758 218.343 254.364C218.95 254.971 219.773 255.312 220.632 255.315H249.312C250.171 255.312 250.994 254.971 251.602 254.364C252.209 253.758 252.552 252.936 252.554 252.079V247.257C252.557 246.221 252.778 245.197 253.205 244.252C253.632 243.308 254.254 242.464 255.031 241.776C259.436 237.835 262.548 232.659 263.96 226.926C265.373 221.192 265.021 215.167 262.95 209.636C260.879 204.105 257.186 199.326 252.352 195.922C247.518 192.519 241.769 190.649 235.854 190.556C229.939 190.464 224.134 192.154 219.196 195.405C214.258 198.657 210.417 203.318 208.174 208.782C205.931 214.246 205.391 220.257 206.623 226.032C207.856 231.807 210.804 237.076 215.084 241.153Z" fill="url(#paint3_linear_616_6269)"/>
<path d="M241.608 211.065H235.124C233.547 211.065 232.034 211.691 230.919 212.804C229.804 213.917 229.178 215.426 229.178 217C229.178 218.574 229.804 220.083 230.919 221.196C232.034 222.309 233.547 222.934 235.124 222.934H235.662C237.239 222.942 238.748 223.571 239.862 224.684C240.975 225.797 241.603 227.305 241.608 228.878C241.603 230.45 240.975 231.955 239.861 233.066C238.746 234.176 237.237 234.801 235.662 234.803H229.178" stroke="#E0E0E0" strokeLinecap="round" strokeLinejoin="round"/>
<path d="M235.398 238.936V234.803" stroke="#E0E0E0" strokeLinecap="round" strokeLinejoin="round"/>
<path d="M235.398 211.065V206.942" stroke="#E0E0E0" strokeLinecap="round" strokeLinejoin="round"/>
<path d="M235.398 171.845C236.045 175.613 236.045 179.464 235.398 183.233C234.745 179.465 234.745 175.613 235.398 171.845Z" fill="#E0E0E0"/>
<path d="M211.312 178.289C213.753 181.228 215.672 184.563 216.984 188.148C214.55 185.205 212.632 181.871 211.312 178.289Z" fill="#E0E0E0"/>
<path d="M193.683 195.885C197.276 197.193 200.617 199.108 203.561 201.546C199.97 200.232 196.63 198.317 193.683 195.885Z" fill="#E0E0E0"/>
<path d="M187.236 219.915C191.008 219.269 194.864 219.269 198.636 219.915C194.864 220.566 191.008 220.566 187.236 219.915Z" fill="#E0E0E0"/>
<path d="M193.683 243.955C196.628 241.52 199.969 239.605 203.561 238.294C200.615 240.729 197.274 242.643 193.683 243.955Z" fill="#E0E0E0"/>
<path d="M277.103 243.955C273.512 242.643 270.171 240.729 267.225 238.294C270.817 239.605 274.158 241.52 277.103 243.955Z" fill="#E0E0E0"/>
<path d="M283.55 219.915C279.778 220.566 275.922 220.566 272.15 219.915C275.922 219.269 279.777 219.269 283.55 219.915Z" fill="#E0E0E0"/>
<path d="M277.103 195.885C274.156 198.317 270.816 200.232 267.225 201.546C270.168 199.108 273.51 197.193 277.103 195.885Z" fill="#E0E0E0"/>
<path d="M259.474 178.289C258.154 181.871 256.236 185.205 253.802 188.148C255.114 184.563 257.033 181.228 259.474 178.289Z" fill="#E0E0E0"/>
<path d="M290.403 55.2027L289.363 71.4494L289.155 71.3268L303.703 61.6089C303.761 61.5872 303.825 61.5872 303.883 61.6089C307.248 62.1656 312.277 61.7693 315.727 61.8542L327.619 61.7976C331.56 61.7976 335.512 61.8637 339.264 60.5428C350.097 57.1368 357.518 45.7585 356.147 34.4839C355.676 30.3652 354.184 26.4285 351.806 23.03C349.428 19.6316 346.238 16.8785 342.526 15.0199C339.025 13.2667 335.155 12.3739 331.239 12.4159H319.338L307.418 12.3687C303.488 12.4152 299.624 13.3891 296.143 15.2108C292.662 17.0326 289.662 19.6506 287.388 22.8508C280.27 32.5026 281.565 47.0322 290.403 55.2027C287.48 52.4803 285.25 49.1001 283.9 45.3435C282.55 41.587 282.119 37.5629 282.642 33.6065C284.07 21.511 295.224 11.6045 307.418 11.6045H319.319H331.239C337.355 11.4974 343.306 13.5862 348.009 17.4906C352.711 21.3951 355.853 26.8554 356.861 32.8774C357.868 38.8993 356.676 45.0822 353.5 50.3002C350.324 55.5183 345.376 59.4243 339.557 61.307C335.776 62.6562 331.636 62.5996 327.666 62.5335L315.774 62.4769C312.286 62.3448 307.267 62.7128 303.854 62.1184C304.677 61.8165 289.193 71.5532 289.354 71.5532C289.334 71.5673 289.31 71.5754 289.285 71.5768C289.261 71.5781 289.236 71.5726 289.215 71.5608C289.193 71.5491 289.175 71.5315 289.163 71.5102C289.151 71.4888 289.145 71.4645 289.146 71.44L290.403 55.2027Z" fill="#E0E0E0"/>
<path d="M305.773 39.3993C307.439 39.3993 308.789 38.0518 308.789 36.3896C308.789 34.7274 307.439 33.3799 305.773 33.3799C304.108 33.3799 302.758 34.7274 302.758 36.3896C302.758 38.0518 304.108 39.3993 305.773 39.3993Z" stroke="#E0E0E0" strokeLinecap="round" strokeLinejoin="round"/>
<path d="M319.385 39.3993C321.051 39.3993 322.401 38.0518 322.401 36.3896C322.401 34.7274 321.051 33.3799 319.385 33.3799C317.72 33.3799 316.37 34.7274 316.37 36.3896C316.37 38.0518 317.72 39.3993 319.385 39.3993Z" stroke="#E0E0E0" strokeLinecap="round" strokeLinejoin="round"/>
<path d="M332.988 39.3993C334.653 39.3993 336.003 38.0518 336.003 36.3896C336.003 34.7274 334.653 33.3799 332.988 33.3799C331.322 33.3799 329.972 34.7274 329.972 36.3896C329.972 38.0518 331.322 39.3993 332.988 39.3993Z" stroke="#E0E0E0" strokeLinecap="round" strokeLinejoin="round"/>
<path d="M87.7931 166.986L89.1259 183.204C89.1288 183.23 89.1243 183.255 89.1129 183.278C89.1015 183.301 89.0837 183.32 89.0617 183.333C89.0397 183.346 89.0145 183.352 88.989 183.351C88.9635 183.35 88.9388 183.342 88.9179 183.327L74.2378 173.883H74.4174C71.0145 174.487 65.9762 174.128 62.4975 174.251L50.5965 174.307C46.6358 174.364 42.5144 174.43 38.705 173.081C27.4751 169.599 19.7711 157.844 21.1607 146.173C21.8572 139.845 24.8866 134.003 29.6597 129.781C34.4328 125.559 40.6084 123.26 46.9856 123.331H58.8771H70.7781C83.0005 123.331 94.1548 133.238 95.5443 145.333C96.0714 149.289 95.6429 153.313 94.2945 157.07C92.9461 160.827 90.7169 164.207 87.7931 166.929C96.6219 158.787 97.9264 144.286 90.799 134.634C88.5291 131.43 85.5299 128.809 82.0478 126.987C78.5657 125.165 74.7001 124.193 70.7687 124.152H58.8771H46.9856C43.0697 124.114 39.2008 125.006 35.699 126.756C31.2871 128.918 27.6223 132.346 25.1737 136.599C22.725 140.853 21.6041 145.739 21.9543 150.633C22.3046 155.526 24.1101 160.204 27.1397 164.067C30.1693 167.93 34.2852 170.802 38.9602 172.317C42.7413 173.647 46.6547 173.59 50.5965 173.581L62.4975 173.638C65.9478 173.524 70.9483 173.939 74.3324 173.383C74.394 173.364 74.4598 173.364 74.5214 173.383L89.0597 183.101L88.8518 183.223L87.7931 166.986Z" fill="#E0E0E0"/>
<path d="M72.4418 151.182C74.1072 151.182 75.4572 149.835 75.4572 148.173C75.4572 146.511 74.1072 145.163 72.4418 145.163C70.7764 145.163 69.4264 146.511 69.4264 148.173C69.4264 149.835 70.7764 151.182 72.4418 151.182Z" stroke="#E0E0E0" strokeLinecap="round" strokeLinejoin="round"/>
<path d="M58.8393 151.182C60.5047 151.182 61.8548 149.835 61.8548 148.173C61.8548 146.511 60.5047 145.163 58.8393 145.163C57.174 145.163 55.8239 146.511 55.8239 148.173C55.8239 149.835 57.174 151.182 58.8393 151.182Z" stroke="#E0E0E0" strokeLinecap="round" strokeLinejoin="round"/>
<path d="M45.2274 151.182C46.8927 151.182 48.2428 149.835 48.2428 148.173C48.2428 146.511 46.8927 145.163 45.2274 145.163C43.562 145.163 42.2119 146.511 42.2119 148.173C42.2119 149.835 43.562 151.182 45.2274 151.182Z" stroke="#E0E0E0" strokeLinecap="round" strokeLinejoin="round"/>
</g>
<defs>
<linearGradient id="paint0_linear_616_6269" x1="349.89" y1="106.443" x2="281.659" y2="148.376" gradientUnits="userSpaceOnUse">
<stop stop-color="#FF0036"/>
<stop offset="1" stop-color="#9C1A36"/>
</linearGradient>
<linearGradient id="paint1_linear_616_6269" x1="283.842" y1="314.131" x2="280.786" y2="337.374" gradientUnits="userSpaceOnUse">
<stop stop-color="#FF0036"/>
<stop offset="1" stop-color="#9C1A36"/>
</linearGradient>
<linearGradient id="paint2_linear_616_6269" x1="171.139" y1="106.443" x2="102.908" y2="148.376" gradientUnits="userSpaceOnUse">
<stop stop-color="#FF0036"/>
<stop offset="1" stop-color="#9C1A36"/>
</linearGradient>
<linearGradient id="paint3_linear_616_6269" x1="264.845" y1="190.553" x2="196.587" y2="242.993" gradientUnits="userSpaceOnUse">
<stop stop-color="#FF0036"/>
<stop offset="1" stop-color="#9C1A36"/>
</linearGradient>
<clipPath id="clip0_616_6269">
<rect width="377.108" height="320" fill="white" transform="translate(21 5)"/>
</clipPath>
</defs>
</svg>
