<svg width="420" height="330" viewBox="0 0 420 330" fill="none" xmlns="http://www.w3.org/2000/svg">
<g clip-path="url(#clip0_616_6225)">
<path d="M93.2626 93.9802C97.0814 104.4 100.206 120.229 93.2626 129.866C89.702 134.582 83.3018 134.511 78.584 131.646C69.2642 126.173 63.5672 116.216 59.7306 106.42C56.2234 96.5072 54.0248 85.2512 57.4875 75.0185C60.2558 67.0102 67.4928 64.3408 74.7742 68.7009C83.8893 74.4045 89.5062 84.2457 93.2626 93.9802ZM93.2626 93.9802C89.4617 84.308 83.8181 74.4045 74.6051 69.0657C67.4839 64.9726 60.6119 67.5441 58.0394 75.3477C54.8348 85.4381 57.0246 96.4894 60.5407 106.233C64.2526 115.896 69.825 125.693 78.8511 131.227C83.3552 134.004 89.4884 134.199 92.9511 129.706C100.072 120.123 97.0013 104.533 93.2626 94.0514V93.9802Z" fill="#E0E0E0"/>
<path d="M85.1004 122.77C90.5093 120.757 91.1272 109.011 86.4806 96.535C81.834 84.0589 73.6824 75.5768 68.2735 77.5897C62.8646 79.6026 62.2467 91.3483 66.8933 103.824C71.5399 116.301 79.6915 124.783 85.1004 122.77Z" fill="url(#paint0_linear_616_6225)"/>
<path d="M151.292 191.191C158.751 199.404 167.617 212.894 164.786 224.443C163.291 230.147 157.318 232.452 151.879 231.66C141.197 230.094 132.153 223.02 124.908 215.394C117.929 207.528 111.644 197.927 111.003 187.143C110.656 181.626 113.451 175.931 119.3 174.908C131.041 173.066 143.752 183.059 151.292 191.191ZM151.292 191.191C143.645 183.085 131.165 173.289 119.38 175.264C113.807 176.305 111.181 181.848 111.618 187.125C112.445 197.678 118.641 207.092 125.566 214.789C132.687 222.352 141.5 229.328 151.95 231.055C157.167 231.944 162.926 229.809 164.412 224.337C167.394 212.769 158.68 199.493 151.265 191.191H151.292Z" fill="#E0E0E0"/>
<path d="M154.606 220.888C158.858 216.986 155.004 205.873 145.998 196.066C136.992 186.259 126.244 181.471 121.992 185.372C117.741 189.274 121.595 200.387 130.601 210.194C139.607 220.002 150.354 224.789 154.606 220.888Z" fill="#121212" stroke="#E0E0E0" stroke-miterlimit="10"/>
<path d="M115.027 177.124C111.618 180.054 108.487 183.292 105.671 186.796C104.381 188.531 103.001 190.444 102.734 192.615C101.675 205.072 108.226 216.8 116.878 225.306C122.424 230.752 128.771 235.717 136.177 238.28C138.791 239.239 141.599 239.55 144.36 239.188C147.121 238.825 149.753 237.799 152.03 236.198C153.918 234.845 158.217 231.544 160.14 230.138C158.235 231.66 154.087 235.041 152.226 236.473C149.922 238.178 147.235 239.293 144.4 239.721C141.565 240.149 138.669 239.877 135.963 238.929C128.352 236.456 121.943 231.402 116.264 225.929C107.461 217.289 100.829 205.206 102.173 192.562C102.52 190.23 103.953 188.326 105.333 186.529C108.247 183.083 111.494 179.932 115.027 177.124Z" fill="#E0E0E0"/>
<path d="M65.036 67.2861L53.2148 73.2033C47.1706 76.3532 45.2034 83.5072 44.7227 89.8515C44.3133 104.604 49.939 121.342 61.4576 131.014C64.8401 133.532 68.6678 136.442 73.1364 136.077C75.0324 135.97 77.6939 135.143 79.5899 134.822L86.0702 133.461L79.6434 135.054C77.6939 135.481 75.1392 136.281 73.172 136.513C68.5877 136.976 64.5909 134.11 61.0392 131.557C49.1379 121.884 43.3964 104.863 43.9483 89.7982C44.4735 83.3026 46.7434 75.935 53.01 72.8207C57.0246 70.9432 61.0125 69.0657 65.036 67.2861Z" fill="#E0E0E0"/>
<path d="M47.1439 78.978C30.1153 86.8973 27.2936 104.782 32.9015 121.199C36.1951 142.608 45.2034 162.886 56.4727 181.261C67.9897 199.68 82.186 216.281 98.5947 230.52C105.858 243.529 120.332 248.388 134.379 244.179C138.852 242.909 143.161 241.117 147.215 238.84C142.207 241.806 136.764 243.968 131.085 245.247C124.786 246.793 118.153 246.224 112.209 243.629C106.265 241.033 101.34 236.555 98.1941 230.885C82.7085 217.61 69.1646 202.226 57.9593 185.185C45.6307 165.876 35.7856 143.96 32.4297 121.395C26.804 104.658 29.7771 86.8617 47.1439 78.978Z" fill="#E0E0E0"/>
<path d="M66.8341 134.911C66.8341 134.911 71.178 162.299 102.333 193.834" stroke="#E0E0E0" stroke-miterlimit="10"/>
<path d="M123.599 245.843C125.29 249.732 126.697 253.914 128.281 257.802C129.171 259.333 130.952 259.537 132.527 258.888C132.997 258.781 133.436 258.564 133.805 258.254C134.175 257.945 134.466 257.552 134.655 257.108C135.242 256.058 134.655 254.243 134.486 253.122C134.058 250.622 133.48 247.089 133.159 244.606C133.818 247.009 134.601 250.533 135.153 252.988C135.402 254.314 136.043 256.129 135.429 257.437C135.191 257.994 134.825 258.487 134.361 258.877C133.897 259.266 133.348 259.541 132.759 259.68C131.859 260.124 130.826 260.217 129.861 259.941C128.897 259.664 128.07 259.038 127.542 258.185C125.985 254.118 124.818 249.963 123.581 245.799L123.599 245.843Z" fill="#E0E0E0"/>
<path d="M130.818 259.697C129.527 260.16 125.005 261.664 126.679 263.612C127.714 264.463 128.854 265.177 130.07 265.739C130.827 266.193 131.851 266.495 132.109 267.465C131.984 270.304 127.97 268.782 126.234 268.756C125.807 268.756 125.29 268.755 125.344 269.147C125.655 271.105 128.068 273.365 126.786 275.554C125.762 276.959 123.946 275.554 122.976 274.868C122.006 274.183 120.074 271.309 119.148 273.445C118.667 275.151 118.522 276.934 118.721 278.695C118.623 279.638 117.973 280.608 116.941 279.949C114.502 278.036 113.727 274.842 111.911 272.475C111.716 272.199 111.359 271.986 111.368 272.066C111.204 272.315 111.112 272.604 111.101 272.902C110.834 275.118 111.27 277.396 110.914 279.656C110.858 279.878 110.757 280.087 110.618 280.27C110.479 280.453 110.305 280.606 110.106 280.721C109.907 280.835 109.686 280.909 109.458 280.937C109.23 280.965 108.999 280.947 108.778 280.884C107.354 279.994 107.06 278.214 106.606 276.782C106.33 275.838 106.241 274.566 105.422 274.032C103.945 273.952 102.565 277.716 102.324 278.997C102.031 280.777 100.224 280.919 99.3424 279.451C98.1051 277.476 98.8172 274.922 97.8648 272.911C97.7045 272.635 97.5443 272.475 97.3485 272.519C95.6928 273.151 95.3634 275.349 94.4822 276.782C94.2733 277.168 93.9722 277.497 93.6058 277.739C93.2393 277.981 92.8188 278.129 92.3814 278.17C91.2955 278.348 90.6545 277.28 90.6545 276.39C90.5121 274.388 91.4557 272.706 91.5447 270.864C91.5447 270.544 91.4557 270.313 91.3133 270.295C91.0387 270.246 90.7556 270.283 90.5032 270.402C88.8653 271.248 87.3647 272.337 86.0525 273.632C85.1623 273.916 83.471 274.397 82.8123 273.267C82.6527 272.951 82.6057 272.59 82.6788 272.244C83.1239 270.215 84.9754 268.213 84.5036 266.113C84.4146 265.766 83.7826 265.837 83.1862 266.051C81.9489 266.54 80.7294 267.323 79.4653 267.83C78.7621 268.186 77.3023 268.604 77.053 267.474C76.9284 265.303 78.4417 263.381 78.5841 261.299C79.1004 257.962 74.1333 262.438 73.0118 263.007C70.6172 264.235 71.3561 260.81 71.6409 259.599C71.9609 258.293 72.1075 256.949 72.0771 255.604C71.9881 254.875 71.6231 254.964 71.0356 255.15C69.5203 255.943 68.0785 256.869 66.7273 257.918C65.0983 259.066 64.4485 258.113 64.5019 256.387C64.5941 255.018 64.5792 253.643 64.4574 252.276C64.3773 251.653 64.1013 250.906 63.7364 251.04C62.5703 251.467 61.876 252.819 61.3241 253.905C60.879 254.723 60.336 256.574 58.9652 256.111C56.5885 255.115 57.4074 252.178 57.2472 250.194C57.2472 249.046 56.1256 249.073 55.3957 249.562C54.0515 250.523 53.4551 252.303 53.0724 253.86C53.0121 254.261 52.8357 254.635 52.565 254.937C51.1229 256.022 49.6453 253.727 49.2536 252.552C48.862 251.378 48.7462 249.74 47.3754 249.402C45.4349 249.251 45.871 253.042 45.5951 254.403C45.564 254.691 45.4921 254.972 45.3815 255.239C45.2254 255.46 45.0082 255.629 44.7566 255.727C44.505 255.826 44.2302 255.848 43.9661 255.791C42.4796 255.4 41.5894 254.181 40.6548 253.122C38.8745 250.532 37.9843 250.692 37.4858 253.86C37.3282 254.864 37.3493 255.889 37.5481 256.886C37.6461 257.135 37.9131 257.66 37.5481 258.042C37.3887 258.163 37.2052 258.247 37.0101 258.29C36.815 258.333 36.6129 258.334 36.4176 258.291C35.3623 258.112 34.3541 257.722 33.4534 257.144C32.1716 256.254 30.8364 256.254 30.783 258.265C30.6851 259.644 31.9313 260.988 31.1301 262.349C30.329 263.71 28.3796 262.749 27.2224 263.426C26.0652 264.315 26.2165 265.988 26.4658 267.243C26.5057 268.02 26.2897 268.789 25.8508 269.432C25.4119 270.075 24.7743 270.556 24.0356 270.802C24.7599 270.555 25.3834 270.077 25.8109 269.443C26.2384 268.808 26.4465 268.051 26.4034 267.287C26.2398 266.606 26.1828 265.904 26.2343 265.205C26.3767 263.381 27.5606 262.901 29.2163 263.061C29.5538 263.087 29.8927 263.031 30.2032 262.896C30.5136 262.761 30.7861 262.552 30.9966 262.287C31.7265 260.996 30.4625 259.617 30.5694 258.291C30.5694 256.218 32.0114 255.898 33.587 256.93C34.1745 257.348 38.1267 259.101 37.1476 257.037C36.753 255.278 36.902 253.441 37.5748 251.769C38.6786 249.678 40.1741 251.769 40.9663 252.873C41.812 253.807 43.3875 256.014 44.8029 255.186C44.9364 255.106 45.0076 254.714 45.0521 254.403C45.1002 252.994 45.2851 251.594 45.604 250.221C46.2983 248.201 48.3991 248.806 49.1646 250.408C49.4374 251.062 49.6316 251.746 49.7432 252.445C49.9503 253.04 50.2775 253.585 50.7046 254.047C52.2712 255.569 52.3335 254.047 52.7163 252.712C53.2148 250.879 55.0307 247.578 57.3095 248.993C58.5735 250.666 56.9979 253.362 58.3955 255.008C59.6773 256.423 60.1224 254.697 60.6654 253.629C61.3241 252.348 62.0718 250.817 63.5762 250.372C66.2021 250.372 64.6087 256.156 65.3565 257.677C65.3565 257.677 65.3565 257.677 65.401 257.677C65.4455 257.677 65.401 257.677 65.4989 257.677C66.6828 257.233 67.7243 256.147 68.8369 255.489C74.7654 251.387 72.3975 258.576 72.0326 261.717C71.9938 261.964 72.0247 262.217 72.1216 262.447H72.2106C73.5547 261.868 74.5962 260.667 76.0116 259.911C80.9786 257.286 79.225 262.918 78.1924 265.445C77.9613 266.01 77.8434 266.615 77.8453 267.225C77.8453 267.35 77.9966 267.323 78.1835 267.296C80.1953 266.949 85.4383 262.331 85.4205 266.896C85.2869 268.836 83.9784 270.526 83.4799 272.288V272.493V272.662C83.7203 273.382 85.0377 272.955 85.6697 272.786C87.0032 271.474 88.5428 270.389 90.2273 269.574C93.5564 268.515 92.0076 272.484 91.6515 274.139C91.3222 275.518 90.9661 278.348 93.2093 277.04C93.3408 276.977 93.4564 276.886 93.5475 276.773C94.5 275.438 94.7492 273.73 96.0845 272.395C96.5117 271.968 97.4197 271.443 98.0339 271.977C99.8142 273.916 98.5947 276.924 99.9032 279.033C100.197 279.495 100.793 280.003 101.256 279.611C101.469 279.403 101.607 279.131 101.648 278.837C101.884 277.702 102.292 276.61 102.859 275.598C103.446 274.708 104.22 273.027 105.636 273.391C106.829 274.032 106.864 275.509 107.194 276.577C107.567 277.823 107.906 279.576 108.974 280.287C109.463 280.563 110.184 279.887 110.291 279.469C110.621 277.289 110.229 275.02 110.505 272.777C110.549 272.066 111.003 270.998 111.84 271.638C113.62 273.418 114.252 275.945 115.73 277.867C116.335 278.757 117.92 280.768 118.205 278.57C118.205 277.093 117.742 272.733 119.798 272.163C120.313 272.149 120.814 272.334 121.196 272.68C122.549 273.792 123.75 275.269 125.459 275.678C126.35 275.856 126.786 274.833 126.786 274.103C126.786 272.884 125.896 271.549 125.424 270.411C125.255 269.903 124.81 269.245 125.139 268.631C125.798 268.07 126.786 268.506 127.56 268.56C129.002 268.747 131.762 269.512 131.895 267.385C131.842 267.18 131.745 266.989 131.612 266.825C131.478 266.661 131.311 266.527 131.121 266.433C129.99 265.712 128.744 265.179 127.64 264.404C123.795 262.189 128.628 260.249 130.783 259.591L130.818 259.697Z" fill="#E0E0E0"/>
<path d="M327.737 138.026C323.999 148.516 320.937 164.088 328.049 173.68C331.512 178.174 337.645 177.996 342.149 175.202C351.175 169.667 356.747 159.87 360.459 150.207C363.975 140.464 366.165 129.412 362.961 119.322C360.397 111.545 353.489 108.938 346.395 113.04C337.182 118.45 331.538 128.327 327.702 138.026H327.737ZM327.737 138.026C331.485 128.238 337.111 118.397 346.253 112.791C353.516 108.449 360.762 111.118 363.539 119.108C367.002 129.341 364.803 140.606 361.296 150.518C357.46 160.306 351.763 170.263 342.443 175.735C337.725 178.556 331.298 178.636 327.764 173.956C320.794 164.337 323.919 148.481 327.764 138.07L327.737 138.026Z" fill="#E0E0E0"/>
<path d="M354.095 147.828C358.741 135.352 358.123 123.606 352.715 121.594C347.306 119.581 339.154 128.063 334.507 140.539C329.861 153.015 330.479 164.761 335.888 166.774C341.297 168.787 349.448 160.304 354.095 147.828Z" fill="#121212" stroke="#E0E0E0" stroke-miterlimit="10"/>
<path d="M269.682 235.21C262.258 243.521 253.561 256.788 256.534 268.355C258.056 273.819 263.798 275.963 268.996 275.073C279.447 273.347 288.295 266.371 295.38 258.816C302.306 251.111 308.501 241.697 309.329 231.144C309.765 225.876 307.148 220.324 301.567 219.282C289.79 217.307 277.292 227.113 269.655 235.21H269.682ZM269.682 235.21C276.803 227.584 285.767 220.555 296.342 218.811C300.721 218.126 305.822 219.318 308.198 223.367C311.412 228.964 309.765 235.904 307.602 241.572C301.371 256.619 285.704 273.107 269.094 275.678C264.697 276.292 259.587 275.038 257.255 270.936C251.469 259.804 262.151 243.352 269.717 235.21H269.682Z" fill="#E0E0E0"/>
<path d="M290.397 254.245C299.403 244.438 303.257 233.325 299.005 229.423C294.754 225.522 284.006 230.31 275 240.117C265.994 249.924 262.14 261.037 266.392 264.939C270.644 268.84 281.391 264.052 290.397 254.245Z" fill="url(#paint1_linear_616_6225)"/>
<path d="M305.973 221.142C309.504 223.953 312.75 227.104 315.667 230.547C317.064 232.327 318.48 234.249 318.827 236.58C320.171 249.224 313.539 261.308 304.736 269.948C299.057 275.42 292.648 280.474 285.037 282.948C282.334 283.893 279.441 284.163 276.609 283.735C273.778 283.307 271.094 282.194 268.792 280.492C266.922 279.077 262.756 275.643 260.878 274.157C262.819 275.607 267.109 278.846 268.987 280.225C271.263 281.821 273.89 282.843 276.646 283.204C279.402 283.565 282.204 283.254 284.814 282.298C292.22 279.745 298.567 274.771 304.113 269.334C312.765 260.818 319.325 249.082 318.257 236.634C317.972 234.462 316.61 232.558 315.32 230.814C312.504 227.31 309.373 224.073 305.964 221.142H305.973Z" fill="#E0E0E0"/>
<path d="M355.964 111.305L367.314 116.741C370.621 118.324 373.207 121.099 374.55 124.509C376.114 128.471 376.853 132.71 376.722 136.967C376.455 144.975 374.417 158.002 365.293 169.756C362.619 173.18 359.29 176.038 355.501 178.165L354.157 178.93C353.869 179.098 353.572 179.25 353.267 179.384C351.066 180.382 348.598 180.629 346.244 180.086L334.939 177.497" stroke="#E0E0E0" stroke-miterlimit="10"/>
<path d="M373.829 123.006C391.196 130.872 394.178 148.659 388.553 165.387C385.197 187.953 375.352 209.877 363.023 229.177C351.818 246.221 338.274 261.608 322.788 274.886C319.641 280.555 314.716 285.033 308.773 287.628C302.829 290.223 296.196 290.792 289.897 289.248C284.202 287.968 278.744 285.8 273.723 282.823C277.775 285.105 282.084 286.897 286.559 288.162C300.606 292.371 315.044 287.53 322.343 274.504C338.754 260.267 352.95 243.665 364.465 225.244C375.734 206.87 384.743 186.591 388.036 165.182C393.671 148.766 390.876 130.898 373.794 122.97L373.829 123.006Z" fill="#E0E0E0"/>
<path d="M354.166 178.912C354.166 178.912 349.831 206.318 318.693 237.853" stroke="#E0E0E0" stroke-miterlimit="10"/>
<path d="M297.401 289.871C296.164 294.035 294.998 298.19 293.44 302.248C292.914 303.103 292.087 303.731 291.123 304.009C290.158 304.287 289.124 304.195 288.223 303.752C287.634 303.61 287.085 303.333 286.622 302.942C286.158 302.551 285.792 302.057 285.553 301.501C284.894 300.192 285.553 298.368 285.829 297.051C286.39 294.578 287.164 291.072 287.823 288.661C287.502 291.125 286.933 294.693 286.497 297.176L286.132 299.303C286 299.925 286.066 300.573 286.322 301.155C286.577 301.738 287.009 302.226 287.556 302.55C290.671 304.01 292.514 303.289 293.458 299.881C294.713 296.544 295.994 293.136 297.383 289.853L297.401 289.871Z" fill="#E0E0E0"/>
<path d="M290.155 303.716C292.345 304.383 297.125 306.314 293.297 308.53C292.194 309.313 290.947 309.847 289.817 310.559C289.627 310.655 289.459 310.79 289.326 310.956C289.192 311.121 289.096 311.314 289.043 311.52C289.158 313.646 291.971 312.872 293.378 312.694C294.134 312.632 295.158 312.205 295.799 312.765C296.119 313.335 295.701 313.993 295.514 314.545C295.051 315.675 294.197 317.01 294.152 318.229C294.152 318.958 294.588 320.008 295.478 319.804C297.187 319.394 298.398 317.917 299.742 316.805C300.126 316.463 300.625 316.279 301.14 316.289C303.169 316.85 302.751 321.201 302.733 322.696C303.045 324.885 304.576 322.936 305.208 321.993C306.534 320.213 307.273 317.997 308.653 316.182C308.946 315.844 309.365 315.337 309.925 315.666C310.245 315.992 310.426 316.429 310.433 316.885C310.709 319.127 310.308 321.396 310.647 323.568C310.744 323.995 311.483 324.662 311.964 324.395C313.059 323.683 313.397 321.921 313.744 320.685C314.074 319.608 314.109 318.131 315.302 317.499C316.708 317.134 317.501 318.78 318.079 319.697C318.645 320.712 319.054 321.807 319.29 322.945C319.333 323.236 319.471 323.505 319.682 323.71C320.18 324.101 320.741 323.594 321.035 323.132C322.343 321.023 321.159 318.015 322.904 316.075C323.518 315.542 324.426 316.075 324.853 316.494C326.189 317.828 326.438 319.546 327.39 320.88C327.484 320.988 327.599 321.076 327.729 321.138C329.981 322.446 329.607 319.626 329.286 318.238C328.904 316.592 327.381 312.614 330.711 313.673C332.395 314.488 333.935 315.573 335.268 316.885C335.891 317.054 337.226 317.481 337.458 316.761C337.485 316.64 337.485 316.516 337.458 316.396C336.959 314.616 335.678 312.943 335.517 310.995C335.517 306.439 340.734 311.048 342.754 311.404C342.959 311.404 343.075 311.448 343.093 311.333C343.093 310.723 342.975 310.118 342.745 309.553C341.713 307.026 339.959 301.403 344.926 304.019C346.342 304.775 347.383 305.976 348.727 306.555H348.816C348.912 306.321 348.943 306.066 348.905 305.816C348.567 302.675 346.172 295.477 352.101 299.587C353.214 300.255 354.255 301.367 355.439 301.785H355.537C355.537 301.785 355.537 301.785 355.581 301.785C356.311 300.264 354.691 294.471 357.362 294.48C358.875 294.925 359.605 296.464 360.272 297.737C360.512 298.35 360.829 298.93 361.216 299.463C361.286 299.554 361.384 299.619 361.496 299.648C361.607 299.677 361.725 299.668 361.83 299.623C364.358 298.44 362.213 294.934 363.61 293.101C365.889 291.686 367.696 294.996 368.204 296.82C368.586 298.19 368.649 299.667 370.215 298.164C370.671 297.686 371.017 297.115 371.23 296.491C371.343 295.791 371.537 295.108 371.809 294.453C372.521 292.887 374.666 292.229 375.369 294.275C375.689 295.645 375.874 297.043 375.921 298.448C375.966 298.76 376.037 299.16 376.171 299.24C376.286 299.325 376.417 299.385 376.556 299.417C376.696 299.449 376.84 299.453 376.981 299.427C378.227 299.107 379.188 297.888 380.007 296.918C380.826 295.948 382.313 293.715 383.399 295.815C384.067 297.488 384.216 299.323 383.826 301.082C383.675 301.429 383.568 301.714 383.746 301.874C383.867 301.96 384.005 302.019 384.151 302.048C384.296 302.077 384.446 302.075 384.591 302.043C385.989 301.919 387.137 301.038 388.401 300.513C388.753 300.374 389.143 300.358 389.505 300.468C389.835 300.648 390.102 300.924 390.271 301.259C390.439 301.595 390.502 301.974 390.449 302.346C390.432 303.053 390.271 303.749 389.977 304.392C389.443 305.967 390.075 307.062 391.757 307.106C392.46 307.007 393.177 307.112 393.822 307.409C394.097 307.633 394.32 307.915 394.473 308.235C394.627 308.555 394.709 308.905 394.712 309.26C394.764 309.955 394.707 310.655 394.543 311.333C394.499 312.102 394.706 312.865 395.133 313.507C395.56 314.149 396.184 314.635 396.911 314.892C396.561 314.739 396.227 314.551 395.914 314.331C395.433 314.007 395.048 313.561 394.796 313.039C394.544 312.517 394.435 311.937 394.481 311.359C394.944 309.082 394.614 306.866 391.721 307.293C391.36 307.321 390.998 307.26 390.666 307.116C390.334 306.972 390.042 306.749 389.817 306.466C389.015 305.104 390.262 303.796 390.164 302.381C390.164 300.477 388.9 300.353 387.493 301.269C386.589 301.84 385.582 302.23 384.529 302.417C384.333 302.458 384.131 302.456 383.936 302.412C383.74 302.367 383.557 302.281 383.399 302.159C383.025 301.785 383.292 301.269 383.399 301.002C383.735 299.34 383.571 297.615 382.927 296.046C382.09 294.4 380.951 296.455 380.256 297.238C379.233 298.395 377.586 300.735 375.806 299.667C375.45 299.436 375.414 298.929 375.343 298.555C375.067 297.176 375.458 293.394 373.562 293.546C372.183 293.902 371.96 295.485 371.684 296.696C371.248 298.431 368.542 300.984 367.865 298.012C367.411 296.233 366.503 293.279 364.305 293.412C363.895 293.519 363.771 293.866 363.726 294.302C363.539 296.082 364.216 298.012 362.978 299.534C362.786 299.79 362.531 299.993 362.238 300.122C361.945 300.251 361.624 300.303 361.305 300.273C360.326 299.934 360.059 298.733 359.649 298.012C359.106 296.927 358.403 295.583 357.237 295.147C356.872 295.014 356.596 295.761 356.516 296.384C356.39 297.751 356.375 299.126 356.471 300.495C356.516 302.23 355.875 303.164 354.246 302.025C352.892 300.977 351.447 300.051 349.929 299.258C349.341 299.08 348.985 298.982 348.887 299.721C348.857 301.063 349.004 302.403 349.324 303.707C349.608 304.926 350.347 308.352 347.953 307.124C346.849 306.555 341.864 302.07 342.38 305.416C342.523 307.498 344.036 309.411 343.911 311.582C343.653 312.73 342.211 312.285 341.499 311.938C340.235 311.395 339.016 310.612 337.778 310.158C337.182 309.945 336.55 309.874 336.461 310.229C335.989 312.32 337.841 314.323 338.241 316.36C338.314 316.707 338.267 317.067 338.108 317.383C337.44 318.505 335.802 318.024 334.868 317.739C333.544 316.441 332.028 315.354 330.372 314.518C330.122 314.394 329.838 314.353 329.562 314.403C329.42 314.403 329.34 314.652 329.331 314.972C329.429 316.814 330.372 318.531 330.221 320.507C330.212 320.955 330.08 321.392 329.838 321.77C329.682 321.97 329.475 322.125 329.238 322.219C329.002 322.313 328.745 322.342 328.494 322.304C328.062 322.262 327.646 322.116 327.283 321.877C326.92 321.638 326.621 321.314 326.411 320.934C325.521 319.501 325.2 317.303 323.545 316.663C323.349 316.618 323.189 316.778 323.029 317.063C321.88 319.332 323.126 322.9 320.607 324.475C319.673 324.982 318.64 324.084 318.569 323.141C318.239 321.37 317.415 319.729 316.192 318.407C316.103 318.308 315.989 318.236 315.862 318.197C315.735 318.157 315.6 318.153 315.471 318.184C314.652 318.709 314.581 319.964 314.287 320.925C314.041 322.057 313.62 323.143 313.041 324.146C312.935 324.408 312.759 324.637 312.533 324.806C312.306 324.975 312.037 325.079 311.756 325.107C311.474 325.135 311.19 325.084 310.935 324.962C310.68 324.84 310.463 324.65 310.308 324.413C309.667 323.621 309.899 322.402 309.845 321.494C309.904 320.011 309.886 318.526 309.792 317.045C309.779 316.748 309.687 316.459 309.525 316.209C309.525 316.129 309.178 316.342 308.982 316.627C307.157 318.994 306.392 322.18 303.953 324.093C303.758 324.218 303.534 324.291 303.303 324.306C302.546 324.306 302.217 323.416 302.154 322.838C302.354 321.077 302.209 319.294 301.727 317.588C300.837 315.497 298.986 318.407 297.9 319.012C296.814 319.617 295.122 321.103 294.09 319.697C292.799 317.508 295.238 315.248 295.532 313.29C295.594 312.89 295.078 312.881 294.642 312.899C292.817 312.899 288.945 314.456 288.767 311.618C288.828 311.385 288.94 311.17 289.093 310.985C289.247 310.801 289.439 310.652 289.657 310.55C290.805 309.838 292.06 309.331 293.173 308.566C296.974 306.492 292.158 304.499 290.093 303.841L290.155 303.716Z" fill="#E0E0E0"/>
<path d="M163.059 158.598L162.08 173.671L161.884 173.555L175.326 164.568C175.38 164.548 175.44 164.548 175.495 164.568C178.61 165.084 183.275 164.711 186.47 164.8L197.499 164.746C201.149 164.746 204.807 164.809 208.279 163.572C212.599 162.159 216.4 159.492 219.198 155.911C221.995 152.33 223.662 147.998 223.986 143.466C224.31 138.934 223.276 134.408 221.016 130.466C218.756 126.524 215.372 123.344 211.297 121.333C208.069 119.702 204.498 118.866 200.882 118.895H189.853H178.833C175.191 118.936 171.61 119.838 168.384 121.529C165.158 123.219 162.379 125.649 160.273 128.62C153.677 137.581 154.87 151.061 163.059 158.651C160.351 156.123 158.286 152.985 157.035 149.498C155.784 146.011 155.384 142.276 155.867 138.604C157.158 127.374 167.501 118.138 178.824 118.138H189.853H200.882C206.528 118.084 212.007 120.048 216.332 123.676C220.657 127.304 223.542 132.357 224.468 137.924C225.394 143.492 224.3 149.207 221.382 154.038C218.464 158.87 213.915 162.5 208.555 164.275C204.994 165.529 201.202 165.467 197.535 165.414L186.506 165.36C183.275 165.236 178.628 165.574 175.459 165.022C176.234 164.737 161.867 173.796 162.027 173.778C162.007 173.792 161.984 173.8 161.96 173.801C161.936 173.802 161.912 173.796 161.891 173.783C161.871 173.771 161.854 173.753 161.843 173.732C161.832 173.71 161.828 173.686 161.831 173.662L163.059 158.607V158.598Z" fill="#E0E0E0"/>
<path d="M177.284 143.925C178.828 143.925 180.079 142.674 180.079 141.131C180.079 139.588 178.828 138.337 177.284 138.337C175.74 138.337 174.489 139.588 174.489 141.131C174.489 142.674 175.74 143.925 177.284 143.925Z" stroke="#E0E0E0" strokeLinecap="round" strokeLinejoin="round"/>
<path d="M189.897 143.925C191.441 143.925 192.693 142.674 192.693 141.131C192.693 139.588 191.441 138.337 189.897 138.337C188.354 138.337 187.102 139.588 187.102 141.131C187.102 142.674 188.354 143.925 189.897 143.925Z" stroke="#E0E0E0" strokeLinecap="round" strokeLinejoin="round"/>
<path d="M202.502 143.925C204.046 143.925 205.297 142.674 205.297 141.131C205.297 139.588 204.046 138.337 202.502 138.337C200.958 138.337 199.707 139.588 199.707 141.131C199.707 142.674 200.958 143.925 202.502 143.925Z" stroke="#E0E0E0" strokeLinecap="round" strokeLinejoin="round"/>
<path d="M319.13 106.811L320.367 121.867C320.37 121.89 320.365 121.915 320.355 121.936C320.344 121.958 320.327 121.976 320.306 121.988C320.286 122 320.262 122.006 320.238 122.005C320.214 122.004 320.191 121.996 320.171 121.982L306.561 113.191H306.73C303.579 113.752 298.914 113.422 295.683 113.538H284.663C280.987 113.6 277.168 113.654 273.634 112.408C268.261 110.638 263.699 107.005 260.771 102.166C257.843 97.3272 256.743 91.6012 257.67 86.0226C258.597 80.4439 261.488 75.3804 265.823 71.7468C270.158 68.1132 275.65 66.1491 281.307 66.2094H292.336H303.365C314.688 66.2094 325.031 75.401 326.322 86.6748C326.807 90.3474 326.407 94.0827 325.156 97.5697C323.905 101.057 321.839 104.195 319.13 106.722C327.319 99.1321 328.521 85.6605 321.916 76.7001C319.812 73.7272 317.033 71.2955 313.807 69.6048C310.58 67.9142 306.999 67.0127 303.356 66.9746H292.336H281.307C277.681 66.9417 274.099 67.7712 270.857 69.3948C266.735 71.3858 263.306 74.567 261.012 78.5271C258.719 82.4871 257.666 87.0439 257.991 91.6082C258.316 96.1725 260.004 100.534 262.835 104.13C265.667 107.725 269.512 110.389 273.874 111.776C277.355 113.004 280.995 112.96 284.663 112.942L295.683 112.995C298.888 112.897 303.525 113.28 306.659 112.764C306.713 112.746 306.773 112.746 306.828 112.764L320.305 121.751L320.109 121.867L319.13 106.793V106.811Z" fill="#E0E0E0"/>
<path d="M304.905 92.1475C306.449 92.1475 307.7 90.8966 307.7 89.3536C307.7 87.8105 306.449 86.5596 304.905 86.5596C303.361 86.5596 302.11 87.8105 302.11 89.3536C302.11 90.8966 303.361 92.1475 304.905 92.1475Z" stroke="#E0E0E0" strokeLinecap="round" strokeLinejoin="round"/>
<path d="M292.292 92.1475C293.835 92.1475 295.087 90.8966 295.087 89.3536C295.087 87.8105 293.835 86.5596 292.292 86.5596C290.748 86.5596 289.496 87.8105 289.496 89.3536C289.496 90.8966 290.748 92.1475 292.292 92.1475Z" stroke="#E0E0E0" strokeLinecap="round" strokeLinejoin="round"/>
<path d="M279.687 92.1475C281.231 92.1475 282.482 90.8966 282.482 89.3536C282.482 87.8105 281.231 86.5596 279.687 86.5596C278.143 86.5596 276.892 87.8105 276.892 89.3536C276.892 90.8966 278.143 92.1475 279.687 92.1475Z" stroke="#E0E0E0" strokeLinecap="round" strokeLinejoin="round"/>
<path d="M163.059 45.5219L162.08 60.5951L161.884 60.4795L175.326 51.4925C175.381 51.4759 175.44 51.4759 175.495 51.4925C178.61 52.0174 183.275 51.6437 186.47 51.7238L197.579 51.6348C201.229 51.6348 204.888 51.6971 208.359 50.4692C213.324 48.8128 217.578 45.5167 220.42 41.1229C223.263 36.7291 224.525 31.4992 223.999 26.2932C223.564 22.4707 222.181 18.8171 219.977 15.6632C217.773 12.5092 214.817 9.95451 211.377 8.23022C208.122 6.59776 204.523 5.76788 200.882 5.80995H189.853H178.833C175.193 5.84476 171.614 6.74104 168.388 8.42535C165.162 10.1097 162.381 12.5341 160.273 15.4999C153.677 24.4602 154.852 37.923 163.059 45.5219C160.349 42.9934 158.282 39.8541 157.031 36.3654C155.78 32.8767 155.381 29.1397 155.867 25.4657C157.158 14.2542 167.501 5.06252 178.824 5.06252H189.853H200.882C206.783 4.99672 212.498 7.12277 216.92 11.0287C221.342 14.9347 224.157 20.3425 224.818 26.2042C225.349 31.5972 224.028 37.0102 221.072 41.5528C218.116 46.0955 213.702 49.4973 208.555 51.1988C204.994 52.4534 201.202 52.3912 197.535 52.3378L186.506 52.2844C183.275 52.1509 178.628 52.4979 175.459 51.9374C176.234 51.6615 161.867 60.7197 162.027 60.693C162.007 60.7069 161.984 60.7148 161.96 60.7158C161.936 60.7168 161.912 60.7108 161.891 60.6986C161.871 60.6864 161.854 60.6684 161.843 60.6469C161.833 60.6254 161.828 60.6012 161.831 60.5774L163.059 45.5219Z" fill="#E0E0E0"/>
<path d="M177.284 30.8575C178.828 30.8575 180.079 29.6066 180.079 28.0635C180.079 26.5204 178.828 25.2695 177.284 25.2695C175.74 25.2695 174.489 26.5204 174.489 28.0635C174.489 29.6066 175.74 30.8575 177.284 30.8575Z" stroke="#E0E0E0" strokeLinecap="round" strokeLinejoin="round"/>
<path d="M189.897 30.8575C191.441 30.8575 192.693 29.6066 192.693 28.0635C192.693 26.5204 191.441 25.2695 189.897 25.2695C188.354 25.2695 187.102 26.5204 187.102 28.0635C187.102 29.6066 188.354 30.8575 189.897 30.8575Z" stroke="#E0E0E0" strokeLinecap="round" strokeLinejoin="round"/>
<path d="M202.502 30.8575C204.046 30.8575 205.297 29.6066 205.297 28.0635C205.297 26.5204 204.046 25.2695 202.502 25.2695C200.958 25.2695 199.707 26.5204 199.707 28.0635C199.707 29.6066 200.958 30.8575 202.502 30.8575Z" stroke="#E0E0E0" strokeLinecap="round" strokeLinejoin="round"/>
<path d="M246.725 210.375C252.194 215.071 257.257 220.22 261.857 225.769C256.385 221.076 251.323 215.926 246.725 210.375Z" fill="#E0E0E0"/>
<path d="M263.584 195.605C265.949 203.221 267.735 211.006 268.925 218.891C266.551 211.277 264.766 203.492 263.584 195.605Z" fill="#E0E0E0"/>
<path d="M231.699 227.006C239.567 228.298 247.324 230.187 254.905 232.656C247.038 231.364 239.28 229.475 231.699 227.006Z" fill="#E0E0E0"/>
<path d="M121.498 86.1855C114.773 88.8086 107.837 90.8595 100.767 92.3163C107.491 89.6904 114.427 87.6394 121.498 86.1855Z" fill="#E0E0E0"/>
<path d="M126.599 108.004C118.768 106.501 111.063 104.401 103.553 101.722C111.383 103.231 119.087 105.331 126.599 108.004Z" fill="#E0E0E0"/>
<path d="M113.905 65.1064C109.064 71.4348 103.746 77.3841 97.9983 82.9025C102.839 76.5742 108.157 70.6248 113.905 65.1064Z" fill="#E0E0E0"/>
</g>
<defs>
<linearGradient id="paint0_linear_616_6225" x1="78.0785" y1="73.9408" x2="50.5755" y2="97.479" gradientUnits="userSpaceOnUse">
<stop stop-color="#FF0036"/>
<stop offset="1" stop-color="#9C1A36"/>
</linearGradient>
<linearGradient id="paint1_linear_616_6225" x1="291.326" y1="222.339" x2="305.406" y2="260.383" gradientUnits="userSpaceOnUse">
<stop stop-color="#FF0036"/>
<stop offset="1" stop-color="#9C1A36"/>
</linearGradient>
<clipPath id="clip0_616_6225">
<rect width="373" height="320" fill="white" transform="translate(24 5)"/>
</clipPath>
</defs>
</svg>
