<svg width="420" height="330" viewBox="0 0 420 330" fill="none" xmlns="http://www.w3.org/2000/svg">
<g clip-path="url(#clip0_616_6363)">
<path d="M352.497 162.983C363.54 162.956 374.337 159.716 383.572 153.66C415.519 133.113 419.526 87.4468 391.8 61.5477C368.489 39.5354 332.664 41.0659 311.097 64.7202C303.622 72.8308 298.584 82.8839 296.561 93.7267C298.456 82.8093 303.395 72.6487 310.809 64.4141C320.07 53.9582 332.863 47.2861 346.737 45.6755C360.611 44.0648 374.592 47.6289 386.002 55.6852C409.424 71.6958 417.801 104.042 405.482 129.505C396.122 149.699 374.917 163.437 352.608 162.983H352.497Z" fill="#E0E0E0"/>
<path d="M323.147 93.7268C324.427 79.9331 327.905 65.6664 336.532 54.5257C345.957 42.6058 359.222 41.8359 369.175 53.663C389.267 77.7068 389.202 131.972 368.247 155.488C364.222 159.884 358.591 163.261 352.478 162.983C361.828 163.168 368.943 155.562 373.201 147.983C387.44 122.854 387.115 77.0853 368.516 54.2196C358.962 42.7635 346.254 43.4592 336.978 54.9153C328.332 65.9168 324.631 80.0166 323.11 93.7268H323.147Z" fill="#E0E0E0"/>
<path d="M307.451 68.5322C313.264 72.2131 319.532 75.1194 326.097 77.1776C334.848 79.9314 343.971 81.3205 353.146 81.2962C362.323 81.3208 371.45 79.9316 380.204 77.1776C386.769 75.1194 393.037 72.2131 398.85 68.5322" stroke="#E0E0E0" stroke-miterlimit="10"/>
<path d="M398.85 139.978L398.748 139.913C392.96 136.266 386.724 133.385 380.195 131.342V131.342C371.444 128.588 362.32 127.199 353.146 127.223V127.223" stroke="#E0E0E0" stroke-miterlimit="10"/>
<path d="M410.723 104.255H383.637H348.276" stroke="#E0E0E0" stroke-miterlimit="10"/>
<path d="M38.0436 181.109C37.7654 164.912 37.6819 146.879 37.6262 130.581C37.7746 125.554 37.1531 118.606 38.1828 113.68C40.5389 102.4 51.1045 93.5229 62.6719 93.4209C73.9146 93.4209 85.1295 93.56 96.3629 93.7363C86.3818 93.9496 72.5046 93.9496 62.6904 94.1259C57.131 94.3639 51.8054 96.429 47.5389 100.001C43.2724 103.573 40.3034 108.453 39.0919 113.884C38.0622 118.578 38.628 125.711 38.4704 130.581C38.424 146.889 38.3219 164.903 38.0436 181.109Z" fill="#E0E0E0"/>
<path d="M82.9496 267.135C156.908 266.811 247.657 266.829 321.477 266.718C323.861 266.718 327.59 266.773 329.946 266.588C335.542 266.038 340.794 263.633 344.867 259.756C348.939 255.878 351.599 250.751 352.422 245.188C353.016 239.743 352.589 225.439 352.728 219.715C352.728 202.731 352.793 168.539 352.803 151.563C352.756 141.861 352.932 127.111 352.803 117.511C352.227 106.166 343.063 96.0827 331.838 94.3202C327.043 93.6153 319.779 94.0976 314.872 93.9492C303.741 93.9492 242.101 93.7358 229.68 93.6987C248.492 93.6338 305.55 93.439 323.369 93.4483C326.222 93.3267 329.079 93.4415 331.913 93.7915C345.28 95.925 354.5 108.355 353.461 121.722C353.461 129.301 353.461 143.79 353.461 151.536C353.461 168.52 353.526 202.703 353.535 219.688C353.387 225.559 353.906 239.566 353.285 245.29C351.838 256.904 341.643 266.523 329.993 267.432C324.278 267.683 293.676 267.432 287.322 267.497C226.637 267.414 143.542 267.386 82.8754 267.107L82.9496 267.135Z" fill="#E0E0E0"/>
<path d="M92.2908 324.536C158.04 323.933 231.804 323.924 297.554 324.536C231.804 325.148 158.04 325.139 92.2908 324.536Z" fill="#E0E0E0"/>
<path d="M153.003 267.135L137.67 324.536" stroke="#E0E0E0" strokeLinecap="round" strokeLinejoin="round"/>
<path d="M239.262 267.135L254.596 324.536" stroke="#E0E0E0" strokeLinecap="round" strokeLinejoin="round"/>
<path d="M115.806 137.018C116.627 136.542 117.317 135.868 117.812 135.058C118.308 134.249 118.594 133.328 118.644 132.38C118.644 130.525 117.967 128.67 117.828 126.74C117.355 122.949 117.355 119.113 117.828 115.321C117.967 113.466 118.756 111.611 118.533 109.691C118.4 108.753 118.043 107.861 117.493 107.091C116.942 106.321 116.214 105.695 115.37 105.266C114.563 104.726 113.888 104.013 113.394 103.178C112.899 102.343 112.598 101.409 112.513 100.442C112.253 98.4664 113.246 96.6575 114.238 95.0435C115.231 93.4294 116.093 91.7411 117.104 90.09C117.931 88.872 119.146 87.9709 120.552 87.5344C121.958 87.0979 123.47 87.1518 124.841 87.6875C125.653 88.1623 126.531 88.5125 127.447 88.7264C128.366 88.8838 129.309 88.8267 130.202 88.5596C131.095 88.2925 131.914 87.8226 132.596 87.1865C135.448 84.6337 138.611 82.4519 142.011 80.6932C143.71 79.7768 145.467 78.9712 147.271 78.2814C149.042 77.6692 150.907 77.1497 151.909 75.4986C153.152 73.9216 152.567 71.7881 153.282 70.072C153.826 68.684 154.808 67.5108 156.078 66.7293C157.348 65.9479 158.838 65.6007 160.322 65.74H166.046C167.544 65.6327 169.035 66.0315 170.279 66.8725C171.524 67.7135 172.45 68.948 172.91 70.3781C173.392 72.1777 172.984 74.1999 174.32 75.7026C175.433 77.3074 177.335 77.6599 179.079 78.3185C180.881 78.986 182.638 79.77 184.338 80.6654C187.747 82.4488 190.916 84.6554 193.772 87.2329C194.447 87.8282 195.255 88.2526 196.129 88.4705C197.002 88.6884 197.915 88.6935 198.79 88.4852C199.718 88.2811 200.469 87.6596 201.378 87.3721C202.836 86.8966 204.41 86.9213 205.852 87.4422C207.294 87.9631 208.52 88.9505 209.337 90.2477L212.222 95.2011C213.443 96.8173 214.006 98.8357 213.799 100.85C213.655 101.865 213.286 102.834 212.719 103.687C212.153 104.541 211.403 105.258 210.525 105.785C209.564 106.327 208.795 107.153 208.323 108.15C207.851 109.146 207.7 110.265 207.89 111.351C209.201 117.479 209.261 123.808 208.067 129.959C207.602 131.244 207.615 132.653 208.102 133.93C208.588 135.207 209.517 136.266 210.72 136.916C211.566 137.47 212.277 138.207 212.8 139.072C213.324 139.937 213.646 140.909 213.744 141.916C214.04 143.929 213.039 145.868 212.018 147.482C210.998 149.096 210.163 150.765 209.115 152.435C208.254 153.68 207.004 154.602 205.561 155.055C204.117 155.509 202.564 155.468 201.147 154.94C198.716 153.493 195.655 153.316 193.512 155.376C189.188 159.201 184.181 162.175 178.754 164.142C175.971 164.902 173.448 166.294 173.142 169.466C173.159 170.439 173.002 171.406 172.678 172.323C172.131 173.701 171.152 174.865 169.887 175.639C168.623 176.413 167.141 176.757 165.665 176.618H159.951C155.656 176.813 152.679 173.288 152.855 169.132C152.354 165.858 149.729 164.8 146.918 163.928C145.131 163.254 143.389 162.464 141.705 161.563C138.327 159.764 135.186 157.552 132.354 154.977C131.626 154.378 130.769 153.956 129.85 153.742C128.932 153.528 127.976 153.528 127.058 153.743C126.13 153.91 125.37 154.559 124.423 154.819C123.501 155.096 122.53 155.172 121.576 155.042C120.622 154.904 119.712 154.557 118.91 154.024C118.108 153.492 117.434 152.787 116.937 151.962L114.09 146.999C111.696 143.799 112.16 139.105 115.787 137.037L115.806 137.018ZM115.806 137.018C112.225 139.087 111.743 143.78 114.155 146.953L117.03 151.897C117.776 153.126 118.913 154.068 120.259 154.573C121.605 155.078 123.081 155.115 124.451 154.68C125.379 154.439 126.121 153.752 127.086 153.595C128.029 153.369 129.012 153.364 129.958 153.579C130.904 153.795 131.787 154.226 132.54 154.838C135.369 157.382 138.503 159.563 141.872 161.331C143.555 162.216 145.294 162.994 147.076 163.659C148.003 164.002 148.866 164.253 149.775 164.587C150.674 164.983 151.46 165.597 152.062 166.372C152.665 167.148 153.065 168.061 153.226 169.03C153.068 173 155.86 176.451 160.016 176.201H165.73C166.656 176.288 167.59 176.174 168.468 175.866C169.346 175.558 170.146 175.063 170.815 174.416C171.483 173.769 172.003 172.985 172.339 172.118C172.675 171.25 172.819 170.32 172.761 169.392C173.077 165.997 175.702 164.476 178.652 163.65C180.431 162.996 182.166 162.228 183.846 161.35C187.197 159.58 190.313 157.399 193.123 154.856C194.046 154.005 195.196 153.44 196.435 153.229C197.673 153.018 198.945 153.171 200.098 153.669C201.283 154.384 202.662 154.708 204.041 154.596C204.944 154.516 205.818 154.235 206.599 153.774C207.381 153.314 208.05 152.685 208.558 151.934C209.913 149.55 211.554 147.027 212.714 144.513C213.161 143.23 213.168 141.835 212.733 140.548C212.298 139.261 211.446 138.156 210.311 137.408C209.413 136.935 208.643 136.252 208.067 135.417C207.49 134.581 207.124 133.619 207 132.612C206.824 130.664 207.584 128.799 207.723 126.87C208.368 121.7 208.127 116.458 207.009 111.37C206.777 110.097 206.944 108.784 207.489 107.611C208.034 106.438 208.929 105.463 210.052 104.821C210.816 104.367 211.469 103.748 211.963 103.01C212.457 102.272 212.78 101.433 212.909 100.554C213.095 98.7348 212.581 96.9134 211.471 95.4609L208.623 90.5167C207.906 89.3748 206.83 88.5041 205.563 88.0422C204.297 87.5802 202.912 87.5533 201.629 87.9657C200.766 88.3865 199.881 88.7581 198.976 89.0789C197.983 89.3133 196.948 89.306 195.959 89.0574C194.969 88.8088 194.054 88.3263 193.29 87.6503C190.484 85.1037 187.367 82.9219 184.013 81.157C182.345 80.2633 180.619 79.4824 178.847 78.8194C177.066 78.1701 174.96 77.6692 173.81 75.9717C172.39 74.3019 172.78 72.3354 172.325 70.406C171.913 69.0917 171.068 67.9558 169.927 67.1828C168.787 66.4097 167.419 66.0451 166.046 66.1482H163.179H160.322C159.403 66.0542 158.474 66.1607 157.599 66.4605C156.725 66.7603 155.926 67.2461 155.258 67.8845C154.589 68.523 154.067 69.2988 153.728 70.1585C153.388 71.0182 153.239 71.9413 153.291 72.8641C153.193 73.8553 152.849 74.8066 152.292 75.6324C151.735 76.4581 150.982 77.1326 150.1 77.595C143.733 79.6049 137.849 82.9082 132.818 87.2979C131.913 88.1315 130.785 88.6848 129.572 88.8906C128.358 89.0964 127.111 88.9459 125.982 88.4574C124.793 87.6924 123.396 87.3163 121.984 87.3813C121.056 87.4539 120.158 87.7353 119.354 88.2044C118.551 88.6734 117.865 89.318 117.346 90.09C115.945 92.5296 114.349 94.9785 113.125 97.5109C112.64 98.835 112.609 100.283 113.037 101.626C113.466 102.97 114.329 104.133 115.49 104.932C116.352 105.375 117.094 106.019 117.653 106.811C118.212 107.602 118.571 108.517 118.7 109.477C118.904 111.397 118.116 113.188 117.976 115.145C117.476 118.924 117.448 122.75 117.893 126.536C118.023 128.447 118.691 130.247 118.681 132.195C118.626 133.145 118.335 134.066 117.835 134.876C117.335 135.686 116.64 136.358 115.815 136.833L115.806 137.018Z" fill="#E0E0E0"/>
<path d="M163.012 144.226C175.728 144.226 186.036 133.918 186.036 121.202C186.036 108.487 175.728 98.1787 163.012 98.1787C150.297 98.1787 139.989 108.487 139.989 121.202C139.989 133.918 150.297 144.226 163.012 144.226Z" fill="url(#paint0_linear_616_6363)"/>
<path d="M205.135 209.697C205.757 209.334 206.278 208.821 206.65 208.206C207.023 207.59 207.236 206.891 207.269 206.172C207.269 204.744 206.759 203.389 206.657 201.924C206.304 199.071 206.304 196.186 206.657 193.334C206.759 191.915 207.343 190.551 207.185 189.085C207.088 188.379 206.82 187.706 206.405 187.126C205.989 186.546 205.439 186.075 204.801 185.755C204.199 185.347 203.695 184.809 203.326 184.182C202.957 183.555 202.732 182.853 202.668 182.128C202.619 180.672 203.074 179.243 203.957 178.084C204.681 176.841 205.377 175.589 206.119 174.373C206.727 173.446 207.636 172.755 208.693 172.417C209.751 172.08 210.892 172.115 211.925 172.518C212.538 172.873 213.201 173.132 213.892 173.288C214.581 173.404 215.288 173.36 215.957 173.159C216.626 172.958 217.24 172.605 217.751 172.129C219.897 170.198 222.275 168.54 224.829 167.194C226.131 166.541 227.473 165.967 228.845 165.478C230.172 165.014 231.554 164.633 232.324 163.372C233.251 162.185 232.797 160.589 233.335 159.3C233.751 158.24 234.5 157.344 235.468 156.745C236.436 156.147 237.572 155.878 238.706 155.979H243.01C244.161 155.895 245.306 156.201 246.262 156.847C247.217 157.493 247.928 158.442 248.279 159.541C248.678 160.969 248.325 162.324 249.327 163.511C250.171 164.698 251.553 164.93 252.87 165.422C254.231 165.926 255.557 166.518 256.841 167.194C259.412 168.546 261.805 170.213 263.965 172.156C264.452 172.591 265.037 172.903 265.67 173.064C266.303 173.225 266.965 173.232 267.601 173.084C268.306 172.926 268.853 172.463 269.549 172.249C270.672 171.887 271.884 171.908 272.994 172.309C274.104 172.711 275.049 173.469 275.681 174.466L277.851 178.177C278.778 179.42 279.205 180.966 279.048 182.509C278.934 183.29 278.649 184.036 278.213 184.693C277.777 185.351 277.2 185.904 276.525 186.312C275.82 186.708 275.256 187.314 274.912 188.046C274.568 188.777 274.46 189.598 274.605 190.393L274.809 191.451C275.462 195.029 275.556 198.687 275.087 202.295C274.994 203.658 274.419 205.133 274.53 206.45C274.607 207.105 274.844 207.731 275.219 208.272C275.594 208.814 276.097 209.256 276.682 209.558C277.336 209.985 277.885 210.554 278.289 211.222C278.694 211.89 278.944 212.64 279.02 213.417C279.097 214.947 278.63 216.455 277.703 217.675C276.256 220.105 274.92 223.519 271.636 223.648C269.966 223.89 268.9 222.925 267.443 222.554C266.784 222.434 266.107 222.468 265.463 222.653C264.82 222.838 264.228 223.169 263.733 223.621C261.565 225.543 259.162 227.183 256.581 228.5C255.297 229.165 253.971 229.745 252.611 230.235C251.275 230.689 249.893 231.032 249.114 232.285C248.563 233.177 248.292 234.214 248.334 235.262C248.198 236.191 247.807 237.063 247.205 237.782C246.602 238.501 245.811 239.038 244.921 239.334C243.678 239.78 241.869 239.52 240.58 239.576C239.29 239.631 237.472 239.733 236.266 239.195C235.581 238.916 234.966 238.49 234.464 237.947C233.962 237.403 233.586 236.756 233.363 236.051C232.982 234.669 233.307 233.157 232.277 231.997C231.424 230.773 229.94 230.485 228.632 229.975C227.289 229.461 225.979 228.866 224.708 228.194C222.167 226.843 219.804 225.179 217.677 223.24C217.125 222.788 216.477 222.469 215.782 222.308C215.086 222.147 214.364 222.149 213.669 222.313C212.964 222.443 212.399 222.934 211.694 223.12C210.65 223.441 209.53 223.405 208.51 223.016C207.49 222.628 206.629 221.91 206.063 220.977L203.911 217.266C203.457 216.708 203.128 216.058 202.945 215.362C202.763 214.666 202.731 213.938 202.852 213.229C202.973 212.519 203.245 211.844 203.648 211.247C204.051 210.651 204.577 210.148 205.191 209.771L205.135 209.697ZM205.135 209.697C204.524 210.074 204.001 210.577 203.601 211.173C203.2 211.769 202.932 212.443 202.813 213.151C202.695 213.859 202.729 214.584 202.913 215.278C203.098 215.972 203.428 216.618 203.883 217.174L206.044 220.884C206.416 221.496 206.919 222.018 207.518 222.411C208.116 222.804 208.795 223.059 209.504 223.157C211.109 223.463 212.176 222.647 213.595 222.164C214.303 221.997 215.039 221.994 215.748 222.155C216.457 222.316 217.12 222.636 217.686 223.092C220.881 225.984 224.595 228.244 228.632 229.752C230.756 230.337 232.917 231.348 233.27 233.797C233.288 234.507 233.384 235.213 233.558 235.902C233.887 236.904 234.539 237.768 235.412 238.361C236.284 238.953 237.328 239.24 238.381 239.177H242.685C243.377 239.238 244.074 239.149 244.728 238.917C245.382 238.684 245.979 238.313 246.476 237.828C246.974 237.344 247.361 236.758 247.611 236.11C247.862 235.462 247.969 234.768 247.926 234.075C248.005 233.321 248.266 232.599 248.688 231.97C249.11 231.341 249.68 230.824 250.347 230.466C251.043 230.114 251.73 229.975 252.388 229.696C253.723 229.199 255.024 228.617 256.284 227.953C258.805 226.633 261.149 225 263.26 223.092C263.968 222.432 264.853 221.993 265.807 221.828C266.761 221.664 267.742 221.78 268.631 222.164C269.496 222.709 270.515 222.957 271.534 222.869C272.195 222.812 272.835 222.608 273.407 222.271C273.978 221.933 274.467 221.472 274.836 220.921C275.838 219.149 277.091 217.211 277.953 215.356C278.277 214.418 278.281 213.399 277.964 212.459C277.647 211.519 277.026 210.71 276.2 210.161C272.749 208.148 273.677 205.347 274.196 202.109C274.638 198.589 274.532 195.022 273.881 191.534C273.688 190.802 273.594 190.047 273.603 189.289C273.655 188.497 273.902 187.73 274.323 187.056C274.744 186.383 275.325 185.824 276.015 185.431C276.574 185.095 277.052 184.64 277.414 184.098C277.777 183.556 278.015 182.94 278.111 182.295C278.232 180.969 277.851 179.645 277.044 178.585L274.892 174.874C274.365 174.041 273.576 173.406 272.649 173.07C271.722 172.734 270.71 172.716 269.772 173.019C269.133 173.328 268.477 173.598 267.805 173.826C267.038 174.01 266.237 174.006 265.471 173.814C264.706 173.621 263.998 173.247 263.408 172.722C261.309 170.814 258.978 169.177 256.47 167.852C255.219 167.182 253.927 166.594 252.601 166.09C251.256 165.598 249.633 165.162 248.761 163.901C247.722 162.75 247.936 160.997 247.639 159.689C247.334 158.719 246.71 157.88 245.868 157.309C245.026 156.738 244.015 156.469 243.001 156.545H240.811H238.659C237.976 156.474 237.286 156.552 236.636 156.774C235.986 156.996 235.392 157.356 234.895 157.829C234.398 158.303 234.009 158.878 233.756 159.516C233.502 160.155 233.39 160.84 233.428 161.526C233.35 162.28 233.087 163.002 232.661 163.629C232.235 164.255 231.66 164.766 230.988 165.116C226.208 166.627 221.788 169.102 218.001 172.388C217.318 173.014 216.469 173.428 215.555 173.581C214.641 173.735 213.703 173.62 212.853 173.251C211.957 172.673 210.904 172.387 209.838 172.435C209.133 172.482 208.449 172.689 207.836 173.041C207.224 173.393 206.7 173.881 206.304 174.466C205.247 176.321 204.05 178.177 203.122 180.032C202.75 181.038 202.724 182.14 203.05 183.162C203.377 184.184 204.035 185.068 204.922 185.672C205.567 186.003 206.123 186.486 206.541 187.079C206.959 187.672 207.228 188.357 207.325 189.076C207.482 190.523 206.889 191.905 206.786 193.343C206.408 196.189 206.386 199.072 206.722 201.924C206.824 203.352 207.325 204.706 207.325 206.172C207.288 206.892 207.071 207.592 206.696 208.208C206.32 208.823 205.796 209.335 205.172 209.697H205.135Z" fill="#E0E0E0"/>
<path d="M240.663 215.124C250.233 215.124 257.991 207.366 257.991 197.796C257.991 188.226 250.233 180.468 240.663 180.468C231.093 180.468 223.335 188.226 223.335 197.796C223.335 207.366 231.093 215.124 240.663 215.124Z" fill="url(#paint1_linear_616_6363)"/>
<path d="M72.4583 49.3864C68.3675 51.5663 57.9875 57.1413 54.073 59.2933C52.2177 60.2209 49.8152 61.8721 47.8115 62.4287C46.643 62.7272 45.4215 62.7536 44.2411 62.5059C43.0607 62.2583 41.9529 61.7431 41.0028 61.0001C40.0556 60.2475 39.2834 59.2979 38.7395 58.2173C38.1829 57.2062 36.7729 54.6089 36.2534 53.6256C35.7226 52.6888 35.3832 51.6559 35.2551 50.5869C35.1269 49.5178 35.2124 48.434 35.5067 47.3983C35.801 46.3626 36.2982 45.3957 36.9695 44.5538C37.6407 43.7119 38.4725 43.0118 39.4166 42.4942L51.7539 36.0009L61.0301 31.2144C65.2322 28.4315 70.8906 29.3591 73.0891 34.1549C73.9332 36.0101 75.5287 38.4683 76.1688 40.407C76.6616 42.0932 76.5622 43.8973 75.8871 45.5192C75.212 47.1411 74.002 48.4829 72.4583 49.3214V49.3864ZM72.4583 49.3864C74.0022 48.5554 75.2135 47.2189 75.889 45.6009C76.5646 43.983 76.6634 42.1819 76.1688 40.4998C75.5287 38.5982 73.8868 36.14 72.9963 34.3219C70.7422 29.7951 65.3157 28.951 61.3455 31.7617L52.1713 36.7615L39.8526 43.3383C38.8827 43.8523 38.0439 44.5821 37.4006 45.4715C36.7573 46.3609 36.3267 47.386 36.1421 48.468C35.669 50.7685 36.643 52.8 37.7747 54.7851L39.3702 57.8741C40.0861 59.4066 41.3041 60.6486 42.8225 61.3943C44.3408 62.14 46.0683 62.3445 47.7188 61.9741C49.574 61.5103 52.1621 59.8592 53.9524 59.0336C57.8947 57.0299 68.4325 51.5013 72.5047 49.3771L72.4583 49.3864Z" fill="#E0E0E0"/>
<path d="M119.099 24.6652C115.017 26.8451 104.628 32.4108 100.713 34.5721C98.8582 35.4998 96.4557 37.1509 94.452 37.7075C93.2835 38.006 92.062 38.0324 90.8816 37.7848C89.7012 37.5371 88.5934 37.0219 87.6433 36.2789C86.6962 35.5263 85.9239 34.5768 85.3799 33.4961C84.8234 32.4757 83.4134 29.8877 82.8939 28.9044C82.3631 27.9676 82.0237 26.9347 81.8956 25.8657C81.7674 24.7966 81.8529 23.7128 82.1472 22.6771C82.4416 21.6414 82.9388 20.6745 83.61 19.8326C84.2812 18.9907 85.113 18.2906 86.0571 17.773L98.3944 11.2797L107.671 6.50245C111.873 3.7196 117.531 4.64721 119.73 9.44299C120.574 11.2982 122.169 13.7564 122.809 15.6859C123.303 17.3734 123.204 19.179 122.529 20.8024C121.854 22.4258 120.643 23.7693 119.099 24.6095V24.6652ZM119.099 24.6652C120.643 23.8342 121.854 22.4977 122.53 20.8797C123.205 19.2618 123.304 17.4607 122.809 15.7786C122.169 13.9234 120.527 11.4188 119.637 9.60069C117.336 5.06464 111.91 4.22979 107.94 7.04047C106.019 8.09795 100.76 10.955 98.7655 12.0403L86.4931 18.6171C85.5241 19.1323 84.6859 19.8624 84.0428 20.7515C83.3996 21.6407 82.9686 22.6653 82.7826 23.7468C82.3095 26.0473 83.2835 28.0695 84.4152 30.0639L85.9922 33.1529C86.7066 34.6872 87.9239 35.9312 89.4424 36.6786C90.9608 37.426 92.6892 37.6319 94.3407 37.2622C96.196 36.7984 98.7747 35.1473 100.565 34.3217C104.507 32.3088 115.045 26.7894 119.117 24.6652H119.099Z" fill="#E0E0E0"/>
<path d="M66.9111 40.3982L91.8269 27.1982" stroke="#E0E0E0" strokeLinecap="round" strokeLinejoin="round"/>
<path d="M98.9789 33.3298L97.337 35.4076C97.1026 35.7043 96.9954 36.0818 97.0389 36.4574C97.0824 36.833 97.273 37.176 97.5689 37.4113L106.251 44.2849C106.398 44.4006 106.52 44.544 106.61 44.7068C106.701 44.8697 106.759 45.0489 106.781 45.2341C106.802 45.4193 106.787 45.6069 106.736 45.7863C106.685 45.9656 106.599 46.1332 106.483 46.2793L99.4705 55.1473C99.2352 55.4433 98.8922 55.6338 98.5166 55.6773C98.141 55.7208 97.7635 55.6136 97.4669 55.3792L88.7751 48.5149C88.6294 48.3979 88.462 48.311 88.2825 48.2593C88.103 48.2076 87.915 48.1921 87.7294 48.2137C87.5438 48.2353 87.3644 48.2935 87.2016 48.385C87.0387 48.4765 86.8956 48.5995 86.7807 48.7468L85.1388 50.8246C84.9726 51.0334 84.7513 51.1915 84.4998 51.2809C84.2484 51.3703 83.9769 51.3875 83.7162 51.3306C83.4555 51.2736 83.2159 51.1447 83.0247 50.9586C82.8335 50.7724 82.6982 50.5364 82.6343 50.2773L78.4229 32.7176C78.3742 32.5075 78.3734 32.2892 78.4205 32.0787C78.4676 31.8683 78.5614 31.6712 78.695 31.5019C78.8287 31.3327 78.9986 31.1957 79.1924 31.101C79.3861 31.0063 79.5987 30.9565 79.8143 30.9551L97.8657 31.02C98.1342 31.0185 98.3976 31.0931 98.6253 31.2353C98.853 31.3774 99.0358 31.5813 99.1523 31.8231C99.2689 32.0649 99.3144 32.3348 99.2837 32.6015C99.253 32.8682 99.1473 33.1207 98.9789 33.3298Z" fill="#121212" stroke="#E0E0E0" stroke-miterlimit="10"/>
<path d="M53.3771 219.104C54.0501 219.746 54.688 220.424 55.288 221.135C60.1351 226.933 62.7476 234.274 62.6533 241.83C62.6533 257.841 51.6332 270.827 38.0529 270.827C24.4726 270.827 13.4525 257.804 13.4525 241.793C13.3637 234.25 15.9725 226.924 20.8085 221.135C21.4207 220.43 22.0515 219.771 22.7194 219.141" stroke="#E0E0E0" strokeLinecap="round" strokeLinejoin="round"/>
<path d="M22.7195 219.104C33.2758 231.163 38.053 250.939 38.053 270.79" stroke="#E0E0E0" strokeLinecap="round" strokeLinejoin="round"/>
<path d="M38.053 270.79C38.053 250.939 42.8209 231.163 53.3772 219.104" stroke="#E0E0E0" strokeLinecap="round" strokeLinejoin="round"/>
<path d="M22.7195 219.103C21.9475 216.69 21.7562 214.129 22.161 211.628C22.5659 209.127 23.5555 206.757 25.0494 204.71C26.5433 202.664 28.4993 200.999 30.7581 199.851C33.0169 198.704 35.5147 198.105 38.0484 198.105C40.582 198.105 43.0799 198.704 45.3387 199.851C47.5975 200.999 49.5534 202.664 51.0473 204.71C52.5412 206.757 53.5309 209.127 53.9357 211.628C54.3406 214.129 54.1492 216.69 53.3772 219.103V219.103" stroke="#E0E0E0" strokeLinecap="round" strokeLinejoin="round"/>
<path d="M22.7195 219.104H53.3772" stroke="#E0E0E0" strokeLinecap="round" strokeLinejoin="round"/>
<path d="M45.7151 200.078C45.7151 198.635 45.9995 197.206 46.552 195.873C47.1045 194.539 47.9144 193.328 48.9352 192.308C49.9561 191.288 51.1679 190.479 52.5015 189.928C53.8351 189.377 55.2643 189.094 56.7073 189.095" stroke="#E0E0E0" strokeLinecap="round" strokeLinejoin="round"/>
<path d="M30.3815 200.078C30.3815 198.635 30.0972 197.206 29.5446 195.873C28.9921 194.539 28.1823 193.328 27.1614 192.308C26.1406 191.288 24.9287 190.479 23.5951 189.928C22.2615 189.377 20.8324 189.094 19.3893 189.095" stroke="#E0E0E0" strokeLinecap="round" strokeLinejoin="round"/>
<path d="M58.173 258.48H63.8593L66.6328 270.79" stroke="#E0E0E0" strokeLinecap="round" strokeLinejoin="round"/>
<path d="M9.46387 270.79L12.2467 258.48H17.933" stroke="#E0E0E0" strokeLinecap="round" strokeLinejoin="round"/>
<path d="M9.46387 218.64L12.2467 230.958H15.2244" stroke="#E0E0E0" strokeLinecap="round" strokeLinejoin="round"/>
<path d="M60.8723 230.958H63.8592L66.6328 218.64" stroke="#E0E0E0" strokeLinecap="round" strokeLinejoin="round"/>
</g>
<defs>
<linearGradient id="paint0_linear_616_6363" x1="186.062" y1="98.1787" x2="136.53" y2="140.066" gradientUnits="userSpaceOnUse">
<stop stop-color="#FF0036"/>
<stop offset="1" stop-color="#9C1A36"/>
</linearGradient>
<linearGradient id="paint1_linear_616_6363" x1="258.011" y1="180.468" x2="220.732" y2="211.993" gradientUnits="userSpaceOnUse">
<stop stop-color="#FF0036"/>
<stop offset="1" stop-color="#9C1A36"/>
</linearGradient>
<clipPath id="clip0_616_6363">
<rect width="402.085" height="320" fill="white" transform="translate(9 5)"/>
</clipPath>
</defs>
</svg>
