<svg width="420" height="330" viewBox="0 0 420 330" fill="none" xmlns="http://www.w3.org/2000/svg">
<g clip-path="url(#clip0_616_6309)">
<path d="M368.551 230.449C368.729 233.851 368.522 237.263 367.933 240.619C367.559 242.293 367.048 243.933 366.403 245.522C364.261 250.529 360.711 254.807 356.185 257.836C351.659 260.865 346.35 262.516 340.905 262.587C302.411 262.695 210.361 262.793 170.808 262.862L61.9479 262.705H55.1711C50.5631 262.688 46.0274 261.558 41.951 259.409C37.901 257.23 34.4441 254.096 31.8805 250.278C29.3169 246.46 27.724 242.073 27.2401 237.5C27.0832 235.607 27.2401 180.01 27.348 176.244L27.5932 230.674V234.077C27.5282 238.02 28.3106 241.93 29.8875 245.544C31.4644 249.159 33.7991 252.392 36.7335 255.026C40.0742 258.055 44.1201 260.199 48.5022 261.263C51.6993 263.097 163.678 261.459 170.828 261.9C210.724 261.969 302.009 262.067 340.924 262.175C346.314 262.148 351.58 260.558 356.085 257.599C360.59 254.64 364.14 250.438 366.305 245.503C366.938 243.926 367.459 242.307 367.865 240.658C368.478 237.311 368.715 233.907 368.571 230.508L368.551 230.449Z" fill="#E0E0E0"/>
<path d="M159.981 19.2399C201.299 18.8868 266.576 18.877 308.404 18.7495L336.227 18.8084C338.914 18.8084 342.945 18.7103 345.553 19.2595C358.067 21.2209 368.247 32.5287 368.787 45.1996C369.022 47.9456 368.787 51.7312 368.855 54.4969C368.855 60.4793 368.796 76.1708 368.787 82.3298L368.551 119.431L368.139 45.2094C367.756 39.0737 365.293 33.2519 361.157 28.7038C358.591 25.8701 355.459 23.6056 351.964 22.0566C348.469 20.5076 344.688 19.7084 340.865 19.7106H326.959C277.432 19.7106 209.272 19.5929 159.981 19.2595V19.2399Z" fill="#E0E0E0"/>
<path d="M86.0638 324.51C157.264 323.872 237.144 323.862 308.345 324.51C237.144 325.147 157.313 325.147 86.0638 324.51Z" fill="#E0E0E0"/>
<path d="M151.802 262.352L135.208 324.51" stroke="#E0E0E0" strokeLinecap="round" strokeLinejoin="round"/>
<path d="M245.216 262.352L261.819 324.51" stroke="#E0E0E0" strokeLinecap="round" strokeLinejoin="round"/>
<path d="M115.897 121.402L121.125 118.705H121.184C121.184 118.705 121.184 118.705 121.184 118.764L115.897 121.402Z" fill="url(#paint0_linear_616_6309)"/>
<path d="M130.932 111.654C133.948 108.987 136.694 106.031 139.131 102.827C139.149 102.806 139.172 102.79 139.197 102.778C139.222 102.767 139.25 102.761 139.278 102.761C139.306 102.761 139.333 102.767 139.359 102.778C139.384 102.79 139.407 102.806 139.425 102.827C139.448 102.844 139.468 102.865 139.483 102.889C139.499 102.913 139.509 102.941 139.513 102.969C139.518 102.997 139.517 103.026 139.51 103.054C139.503 103.082 139.491 103.108 139.474 103.131C136.981 106.322 134.179 109.259 131.108 111.899C131.096 111.912 131.082 111.922 131.066 111.929C131.05 111.936 131.033 111.939 131.015 111.939C130.998 111.939 130.98 111.936 130.964 111.929C130.948 111.922 130.934 111.912 130.922 111.899C130.896 111.89 130.873 111.873 130.857 111.85C130.841 111.828 130.833 111.8 130.834 111.773C130.835 111.745 130.845 111.718 130.863 111.697C130.881 111.675 130.905 111.66 130.932 111.654Z" fill="url(#paint1_linear_616_6309)"/>
<path d="M145.398 92.5686C147.159 88.9538 148.555 85.1724 149.566 81.2804C149.574 81.2425 149.589 81.2067 149.612 81.175C149.634 81.1434 149.663 81.1166 149.696 81.0964C149.729 81.0762 149.766 81.063 149.804 81.0575C149.842 81.0521 149.881 81.0545 149.919 81.0647C149.957 81.0738 149.993 81.0906 150.025 81.1139C150.056 81.1372 150.083 81.1667 150.103 81.2005C150.123 81.2343 150.137 81.2719 150.142 81.3109C150.147 81.3499 150.145 81.3896 150.134 81.4276C149.103 85.3504 147.677 89.1587 145.878 92.7941C145.848 92.8579 145.794 92.9071 145.728 92.931C145.662 92.9549 145.589 92.9515 145.525 92.9216C145.461 92.8917 145.412 92.8377 145.388 92.7715C145.364 92.7053 145.368 92.6323 145.398 92.5686Z" fill="url(#paint2_linear_616_6309)"/>
<path d="M151.429 69.3846L151.498 66.3738C151.498 65.3931 151.498 64.4123 151.449 63.363C151.351 61.4015 151.164 59.3518 150.87 57.3707C150.863 57.3243 150.866 57.277 150.877 57.2315C150.889 57.186 150.909 57.1433 150.938 57.1059C150.966 57.0684 151.001 57.037 151.042 57.0135C151.083 56.9899 151.128 56.9747 151.174 56.9687C151.266 56.9571 151.359 56.9811 151.434 57.0358C151.508 57.0905 151.559 57.1718 151.576 57.2629C151.861 59.2734 152.037 61.2936 152.125 63.3237C152.125 64.3045 152.194 65.3538 152.125 66.364L152.037 69.414C152.032 69.499 151.995 69.5789 151.933 69.6372C151.871 69.6956 151.789 69.728 151.704 69.7279C151.661 69.7266 151.619 69.717 151.581 69.6995C151.542 69.6821 151.507 69.6571 151.478 69.6262C151.449 69.5952 151.426 69.5588 151.411 69.519C151.396 69.4793 151.389 69.4369 151.39 69.3944L151.429 69.3846Z" fill="url(#paint3_linear_616_6309)"/>
<path d="M147.947 45.7097C146.58 41.9507 144.842 38.3369 142.759 34.9218C142.727 34.8774 142.703 34.8269 142.689 34.7733C142.676 34.7197 142.673 34.6639 142.682 34.6093C142.69 34.5547 142.709 34.5022 142.737 34.4548C142.766 34.4075 142.803 34.3662 142.848 34.3334C142.892 34.3005 142.943 34.2768 142.996 34.2634C143.05 34.2501 143.106 34.2474 143.16 34.2556C143.215 34.2638 143.267 34.2827 143.315 34.3112C143.362 34.3397 143.403 34.3772 143.436 34.4216C145.536 37.9058 147.281 41.5922 148.644 45.4253C148.675 45.5217 148.669 45.6265 148.625 45.7179C148.581 45.8094 148.503 45.8802 148.408 45.9157C148.32 45.9432 148.224 45.9375 148.139 45.8996C148.054 45.8617 147.986 45.7942 147.947 45.7097Z" fill="url(#paint4_linear_616_6309)"/>
<path d="M135.522 25.3012C132.8 22.3574 129.794 19.6899 126.548 17.3377C126.447 17.2649 126.378 17.1547 126.358 17.0315C126.338 16.9083 126.367 16.7821 126.44 16.6806C126.513 16.5792 126.623 16.5108 126.746 16.4906C126.87 16.4704 126.996 16.4999 127.097 16.5727C130.38 18.9756 133.419 21.6955 136.169 24.6931C136.218 24.7343 136.258 24.7855 136.285 24.8431C136.313 24.9008 136.328 24.9637 136.33 25.0277C136.331 25.0917 136.319 25.1552 136.294 25.2141C136.269 25.2731 136.232 25.326 136.185 25.3695C136.138 25.4129 136.082 25.4459 136.022 25.4662C135.961 25.4865 135.897 25.4936 135.833 25.4872C135.769 25.4807 135.708 25.4608 135.652 25.4287C135.597 25.3967 135.549 25.3532 135.512 25.3012H135.522Z" fill="url(#paint5_linear_616_6309)"/>
<path d="M116.192 11.2964C112.552 9.60893 108.75 8.29459 104.845 7.37346C104.787 7.36081 104.732 7.33667 104.684 7.30247C104.636 7.26828 104.595 7.22473 104.564 7.17441C104.533 7.12409 104.512 7.06803 104.503 7.00956C104.494 6.9511 104.497 6.89141 104.511 6.83406C104.539 6.72078 104.61 6.62276 104.709 6.56058C104.808 6.49841 104.927 6.47691 105.041 6.50062C109.009 7.42271 112.876 8.7368 116.584 10.4235C116.688 10.4825 116.767 10.5783 116.804 10.6921C116.841 10.8058 116.834 10.9294 116.785 11.0386C116.736 11.1478 116.648 11.2348 116.538 11.2824C116.429 11.3301 116.305 11.3351 116.192 11.2964Z" fill="url(#paint6_linear_616_6309)"/>
<path d="M92.9388 5.85316C90.9283 5.79432 88.9276 5.85316 86.9269 5.96104C84.9262 6.06892 82.9256 6.33372 80.9543 6.66716C80.904 6.67703 80.8522 6.67669 80.8021 6.66615C80.7519 6.65561 80.7044 6.63509 80.6623 6.60582C80.6202 6.57654 80.5844 6.5391 80.5571 6.49573C80.5298 6.45236 80.5114 6.40393 80.5032 6.35333C80.4888 6.25353 80.5133 6.15201 80.5717 6.06983C80.6302 5.98765 80.718 5.93114 80.817 5.91201C84.8244 5.21006 88.8911 4.90456 92.9584 4.99993C93.019 4.99247 93.0805 4.99859 93.1385 5.01784C93.1965 5.03709 93.2494 5.06899 93.2935 5.11123C93.3377 5.15348 93.3718 5.205 93.3936 5.26208C93.4153 5.31916 93.4241 5.38037 93.4193 5.44126C93.418 5.49664 93.4059 5.55124 93.3835 5.60191C93.3611 5.65259 93.329 5.69836 93.2889 5.73662C93.2488 5.77487 93.2016 5.80485 93.1499 5.82485C93.0983 5.84484 93.0432 5.85447 92.9878 5.85316H92.9388Z" fill="url(#paint7_linear_616_6309)"/>
<path d="M69.3622 9.90379C65.6192 11.3422 62.0284 13.149 58.6429 15.2978C58.5695 15.3428 58.4817 15.3577 58.3976 15.3394C58.3135 15.3212 58.2398 15.2711 58.1917 15.1997C58.1682 15.1637 58.152 15.1235 58.1442 15.0812C58.1364 15.039 58.1371 14.9956 58.1462 14.9536C58.1553 14.9116 58.1727 14.8718 58.1974 14.8366C58.222 14.8014 58.2535 14.7715 58.2898 14.7486C61.6898 12.5399 65.3041 10.6801 69.0778 9.19767C69.1207 9.17872 69.1671 9.16878 69.2141 9.16846C69.261 9.16815 69.3075 9.17748 69.3507 9.19586C69.3939 9.21425 69.4329 9.2413 69.4652 9.27535C69.4976 9.3094 69.5226 9.34972 69.5387 9.39381C69.556 9.43755 69.5644 9.4843 69.5633 9.53132C69.5623 9.57834 69.5519 9.62468 69.5327 9.66761C69.5135 9.71055 69.4859 9.74923 69.4516 9.78136C69.4173 9.8135 69.3769 9.83845 69.3327 9.85475L69.3622 9.90379Z" fill="url(#paint8_linear_616_6309)"/>
<path d="M49.2083 22.7607C46.3156 25.5502 43.7131 28.6258 41.441 31.9403C41.4206 31.9689 41.3946 31.9931 41.3648 32.0115C41.3349 32.0299 41.3016 32.0423 41.267 32.0477C41.2323 32.0532 41.1969 32.0517 41.1628 32.0434C41.1287 32.0351 41.0966 32.02 41.0683 31.9991C41.0393 31.9804 41.0144 31.9559 40.9952 31.9273C40.9759 31.8986 40.9626 31.8664 40.9562 31.8324C40.9498 31.7985 40.9503 31.7636 40.9578 31.7299C40.9653 31.6962 40.9795 31.6643 40.9997 31.6363C43.2984 28.2804 45.9267 25.1625 48.8454 22.3292C48.9004 22.2753 48.9744 22.2451 49.0514 22.2451C49.1284 22.2451 49.2024 22.2753 49.2573 22.3292C49.2852 22.3558 49.3074 22.3877 49.3226 22.4231C49.3378 22.4585 49.3456 22.4967 49.3456 22.5352C49.3456 22.5737 49.3378 22.6118 49.3226 22.6472C49.3074 22.6826 49.2852 22.7146 49.2573 22.7411L49.2083 22.7607Z" fill="url(#paint9_linear_616_6309)"/>
<path d="M35.6057 42.4732C34.0041 46.1679 32.7817 50.0157 31.9574 53.9574C31.9503 53.9922 31.93 54.0229 31.9007 54.043C31.8714 54.0631 31.8355 54.0711 31.8005 54.0653C31.7835 54.0619 31.7675 54.055 31.7532 54.0452C31.739 54.0353 31.7269 54.0226 31.7177 54.008C31.7086 53.9933 31.7025 53.9769 31.6998 53.9598C31.6972 53.9426 31.6981 53.9252 31.7024 53.9084C32.4673 49.9182 33.6405 46.0173 35.2036 42.2672C35.2132 42.2398 35.2284 42.2146 35.2484 42.1935C35.2683 42.1723 35.2925 42.1557 35.3194 42.1446C35.3463 42.1334 35.3752 42.1281 35.4043 42.129C35.4333 42.1299 35.4619 42.1369 35.488 42.1496C35.54 42.1732 35.5811 42.2158 35.6029 42.2686C35.6248 42.3213 35.6258 42.3805 35.6057 42.434V42.4732Z" fill="url(#paint10_linear_616_6309)"/>
<path d="M30.653 66.0205L30.8883 71.9048L30.5647 66.0205H30.6137H30.653Z" fill="url(#paint11_linear_616_6309)"/>
<path d="M64.6939 52.3887L13.4904 81.9477V141.075L64.6939 170.634L115.897 141.075V81.9477L64.6939 52.3887Z" stroke="#E0E0E0" stroke-miterlimit="10"/>
<path d="M64.6939 70.2671L28.976 90.8917V132.131L64.6939 152.756L100.412 132.131V90.8917L64.6939 70.2671Z" fill="url(#paint12_linear_616_6309)"/>
<path d="M13.4904 81.9473L64.6939 111.516L115.897 81.9473" stroke="#E0E0E0" stroke-miterlimit="10"/>
<path d="M64.6938 111.516V170.634" stroke="#E0E0E0" stroke-miterlimit="10"/>
<path d="M347.162 125.521L310.09 224.368" stroke="#E0E0E0" strokeLinecap="round" strokeLinejoin="round"/>
<path d="M301.203 207.355L251 175.178L301.203 143" stroke="#E0E0E0" strokeLinecap="round" strokeLinejoin="round"/>
<path d="M356.361 207.117L406.574 174.94L356.361 142.762" stroke="url(#paint13_linear_616_6309)" strokeLinecap="round" strokeLinejoin="round"/>
<path d="M64.2035 209.324H180.527" stroke="#E0E0E0" strokeLinecap="round" strokeLinejoin="round"/>
<path d="M64.2035 230.076H118.526" stroke="#E0E0E0" strokeLinecap="round" strokeLinejoin="round"/>
<path d="M339.728 53.8204C342.913 53.8204 345.494 51.2386 345.494 48.0538C345.494 44.8689 342.913 42.2871 339.728 42.2871C336.543 42.2871 333.961 44.8689 333.961 48.0538C333.961 51.2386 336.543 53.8204 339.728 53.8204Z" fill="#121212"/>
<path d="M333.971 48.0539C334.216 55.3799 344.759 55.3309 345.004 48.0539C344.788 40.7868 334.216 40.7377 333.971 48.0539ZM333.971 48.0539C333.97 47.0573 334.217 46.0761 334.69 45.1986C335.162 44.3211 335.845 43.5748 336.678 43.0269C337.511 42.4791 338.466 42.1468 339.459 42.06C340.452 41.9731 341.451 42.1345 342.366 42.5296C343.281 42.9246 344.083 43.541 344.701 44.3231C345.319 45.1053 345.732 46.0287 345.904 47.0104C346.076 47.9921 346.002 49.0011 345.687 49.9468C345.373 50.8925 344.828 51.7451 344.102 52.4279C343.244 53.2226 342.174 53.7509 341.022 53.9486C339.87 54.1463 338.685 54.0048 337.611 53.5414C336.538 53.0779 335.623 52.3125 334.976 51.3383C334.33 50.3641 333.981 49.223 333.971 48.0539Z" fill="#E0E0E0"/>
<path d="M316.681 53.8204C319.866 53.8204 322.447 51.2386 322.447 48.0538C322.447 44.8689 319.866 42.2871 316.681 42.2871C313.496 42.2871 310.914 44.8689 310.914 48.0538C310.914 51.2386 313.496 53.8204 316.681 53.8204Z" fill="#121212"/>
<path d="M310.914 48.054C311.159 55.3799 321.702 55.3309 321.957 48.054C321.731 40.7868 311.169 40.7378 310.914 48.054ZM310.914 48.054C310.915 47.0583 311.163 46.0784 311.636 45.2022C312.109 44.3261 312.792 43.5811 313.624 43.0343C314.456 42.4874 315.411 42.1558 316.403 42.0692C317.395 41.9826 318.393 42.1437 319.307 42.538C320.221 42.9324 321.023 43.5476 321.641 44.3285C322.259 45.1094 322.673 46.0315 322.846 47.012C323.019 47.9925 322.946 49.0007 322.634 49.946C322.321 50.8913 321.778 51.7442 321.055 52.428C320.196 53.2214 319.126 53.7486 317.973 53.9456C316.821 54.1426 315.636 54.001 314.562 53.538C313.489 53.0749 312.573 52.3103 311.925 51.3369C311.278 50.3635 310.926 49.223 310.914 48.054Z" fill="#E0E0E0"/>
<path d="M293.624 53.8204C296.809 53.8204 299.391 51.2386 299.391 48.0538C299.391 44.8689 296.809 42.2871 293.624 42.2871C290.439 42.2871 287.857 44.8689 287.857 48.0538C287.857 51.2386 290.439 53.8204 293.624 53.8204Z" fill="#121212"/>
<path d="M287.867 48.0539C288.103 55.3799 298.655 55.3309 298.9 48.0539C298.685 40.7868 288.112 40.7377 287.867 48.0539ZM287.867 48.0539C287.866 47.0573 288.113 46.0761 288.586 45.1986C289.058 44.3211 289.742 43.5748 290.574 43.0269C291.407 42.4791 292.362 42.1468 293.355 42.06C294.348 41.9731 295.347 42.1345 296.262 42.5296C297.177 42.9246 297.979 43.541 298.597 44.3231C299.215 45.1053 299.628 46.0287 299.8 47.0104C299.973 47.9921 299.898 49.0011 299.583 49.9468C299.269 50.8925 298.724 51.7451 297.998 52.4279C297.141 53.2226 296.071 53.7509 294.918 53.9486C293.766 54.1463 292.581 54.0048 291.508 53.5414C290.434 53.0779 289.519 52.3125 288.872 51.3383C288.226 50.3641 287.877 49.223 287.867 48.0539Z" fill="#E0E0E0"/>
</g>
<defs>
<linearGradient id="paint0_linear_616_6309" x1="121.187" y1="118.705" x2="118.584" y2="123.019" gradientUnits="userSpaceOnUse">
<stop stop-color="#FF0036"/>
<stop offset="1" stop-color="#9C1A36"/>
</linearGradient>
<linearGradient id="paint1_linear_616_6309" x1="139.521" y1="102.761" x2="129.753" y2="110.574" gradientUnits="userSpaceOnUse">
<stop stop-color="#FF0036"/>
<stop offset="1" stop-color="#9C1A36"/>
</linearGradient>
<linearGradient id="paint2_linear_616_6309" x1="150.147" y1="81.0547" x2="142.252" y2="83.7341" gradientUnits="userSpaceOnUse">
<stop stop-color="#FF0036"/>
<stop offset="1" stop-color="#9C1A36"/>
</linearGradient>
<linearGradient id="paint3_linear_616_6309" x1="152.157" y1="56.9658" x2="149.794" y2="57.1677" gradientUnits="userSpaceOnUse">
<stop stop-color="#FF0036"/>
<stop offset="1" stop-color="#9C1A36"/>
</linearGradient>
<linearGradient id="paint4_linear_616_6309" x1="148.667" y1="34.251" x2="139.368" y2="38.2807" gradientUnits="userSpaceOnUse">
<stop stop-color="#FF0036"/>
<stop offset="1" stop-color="#9C1A36"/>
</linearGradient>
<linearGradient id="paint5_linear_616_6309" x1="136.335" y1="16.4844" x2="126.533" y2="25.6694" gradientUnits="userSpaceOnUse">
<stop stop-color="#FF0036"/>
<stop offset="1" stop-color="#9C1A36"/>
</linearGradient>
<linearGradient id="paint6_linear_616_6309" x1="116.835" y1="6.49121" x2="112.815" y2="15.1682" gradientUnits="userSpaceOnUse">
<stop stop-color="#FF0036"/>
<stop offset="1" stop-color="#9C1A36"/>
</linearGradient>
<linearGradient id="paint7_linear_616_6309" x1="93.428" y1="4.98291" x2="92.8702" y2="8.58665" gradientUnits="userSpaceOnUse">
<stop stop-color="#FF0036"/>
<stop offset="1" stop-color="#9C1A36"/>
</linearGradient>
<linearGradient id="paint8_linear_616_6309" x1="69.57" y1="9.16846" x2="63.4518" y2="18.7354" gradientUnits="userSpaceOnUse">
<stop stop-color="#FF0036"/>
<stop offset="1" stop-color="#9C1A36"/>
</linearGradient>
<linearGradient id="paint9_linear_616_6309" x1="49.3505" y1="22.2451" x2="39.189" y2="29.601" gradientUnits="userSpaceOnUse">
<stop stop-color="#FF0036"/>
<stop offset="1" stop-color="#9C1A36"/>
</linearGradient>
<linearGradient id="paint10_linear_616_6309" x1="35.6223" y1="42.1289" x2="28.9053" y2="43.9949" gradientUnits="userSpaceOnUse">
<stop stop-color="#FF0036"/>
<stop offset="1" stop-color="#9C1A36"/>
</linearGradient>
<linearGradient id="paint11_linear_616_6309" x1="30.8885" y1="66.0205" x2="30.2927" y2="66.0482" gradientUnits="userSpaceOnUse">
<stop stop-color="#FF0036"/>
<stop offset="1" stop-color="#9C1A36"/>
</linearGradient>
<linearGradient id="paint12_linear_616_6309" x1="100.453" y1="70.2671" x2="14.6672" y2="133.093" gradientUnits="userSpaceOnUse">
<stop stop-color="#FF0036"/>
<stop offset="1" stop-color="#9C1A36"/>
</linearGradient>
<linearGradient id="paint13_linear_616_6309" x1="406.603" y1="142.762" x2="342.061" y2="185.349" gradientUnits="userSpaceOnUse">
<stop stop-color="#FF0036"/>
<stop offset="1" stop-color="#9C1A36"/>
</linearGradient>
<clipPath id="clip0_616_6309">
<rect width="394.064" height="320" fill="white" transform="translate(13 5)"/>
</clipPath>
</defs>
</svg>
