<svg width="420" height="330" viewBox="0 0 420 330" fill="none" xmlns="http://www.w3.org/2000/svg">
<g clip-path="url(#clip0_616_6347)">
<path d="M210.202 84.1875C203.383 84.1875 196.718 86.2095 191.048 89.9978C185.379 93.7861 180.96 99.1705 178.35 105.47C175.741 111.77 175.058 118.702 176.388 125.39C177.719 132.077 181.002 138.22 185.824 143.042C190.645 147.864 196.788 151.147 203.476 152.477C210.164 153.808 217.096 153.125 223.396 150.515C229.695 147.906 235.08 143.487 238.868 137.818C242.656 132.148 244.678 125.482 244.678 118.664C244.678 109.52 241.046 100.751 234.58 94.2853C228.115 87.8198 219.346 84.1875 210.202 84.1875ZM210.202 142.184C205.545 142.186 200.992 140.806 197.119 138.219C193.246 135.633 190.228 131.956 188.445 127.654C186.662 123.352 186.195 118.617 187.103 114.049C188.011 109.482 190.254 105.286 193.547 101.993C196.84 98.6999 201.036 96.4575 205.603 95.5493C210.171 94.6411 214.905 95.108 219.208 96.8909C223.51 98.6738 227.187 101.693 229.773 105.565C232.36 109.438 233.739 113.991 233.738 118.648C233.738 121.739 233.129 124.8 231.946 127.655C230.763 130.511 229.03 133.105 226.844 135.291C224.659 137.476 222.064 139.21 219.209 140.393C216.353 141.575 213.293 142.184 210.202 142.184Z" fill="url(#paint0_linear_616_6347)"/>
<path d="M223.993 295.795C224.021 301.384 222.798 306.909 220.411 311.963C218.025 317.016 214.536 321.471 210.202 325C203.432 319.418 198.807 311.662 197.115 303.052C195.423 294.442 196.77 285.512 200.924 277.783H203.023C202.569 279.566 202.34 281.398 202.341 283.238C202.325 286.424 203.022 289.573 204.382 292.454C205.743 295.335 207.731 297.875 210.202 299.886C212.674 297.875 214.664 295.336 216.025 292.455C217.387 289.574 218.086 286.425 218.07 283.238C218.071 281.398 217.837 279.564 217.373 277.783H219.48C222.459 283.318 224.01 289.509 223.993 295.795Z" fill="url(#paint1_linear_616_6347)"/>
<path d="M244.655 226.927C259.534 237.875 269.394 254.561 275.04 271.922C275.477 273.454 276.672 277.691 277.093 279.17C277.86 282.931 278.978 287.689 279.392 291.504L280.066 296.477L279.491 296.354C282.329 291.109 284.765 285.657 286.777 280.043C297.074 251.918 298.607 220.055 284.211 193.064C278.511 182.504 271.069 172.983 262.2 164.9L265.456 167.965C274.224 176.214 281.391 186.015 286.594 196.871C299.02 222.92 297.319 253.673 287.436 280.258C285.274 286.202 282.64 291.963 279.56 297.488L279.438 296.546C279.009 293.619 278.603 289.497 278.066 286.647L277.07 281.752L276.572 279.308C276.166 277.829 274.987 273.623 274.565 272.083C268.965 254.776 259.319 238.074 244.686 226.934L244.655 226.927Z" fill="#E0E0E0"/>
<path d="M175.741 226.927C161.077 238.066 151.432 254.76 145.831 272.075C145.41 273.569 144.238 277.821 143.824 279.3L143.326 281.744L142.33 286.639C141.794 289.512 141.38 293.634 140.959 296.538L140.836 297.48C137.756 291.956 135.123 286.194 132.96 280.25C123.046 253.665 121.376 222.897 133.803 196.863C139.008 186.008 146.174 176.208 154.941 167.957L158.197 164.893C149.33 172.966 141.889 182.477 136.186 193.025C121.79 220.016 123.322 251.88 133.619 280.043C135.638 285.669 138.079 291.134 140.92 296.392L140.346 296.515L141.02 291.543C141.418 287.712 142.552 282.97 143.318 279.208C143.724 277.729 144.935 273.508 145.372 271.96C151.018 254.6 160.878 237.913 175.757 226.965L175.741 226.927Z" fill="#E0E0E0"/>
<path d="M242.365 242.778H178.04C177.435 242.778 176.944 243.269 176.944 243.874V256.017C176.944 256.622 177.435 257.113 178.04 257.113H242.365C242.97 257.113 243.46 256.622 243.46 256.017V243.874C243.46 243.269 242.97 242.778 242.365 242.778Z" fill="#121212" stroke="#E0E0E0" stroke-miterlimit="10"/>
<path d="M230.727 257.12V276.618C230.725 276.928 230.6 277.224 230.381 277.442C230.161 277.66 229.864 277.783 229.555 277.783H190.834C190.525 277.783 190.228 277.66 190.008 277.442C189.788 277.224 189.664 276.928 189.662 276.618V257.12" stroke="#E0E0E0" stroke-miterlimit="10"/>
<path d="M183.993 242.786C149.991 185.648 147.609 111.716 177.519 52.3859L177.68 52.0488C187.504 57.9277 198.753 60.999 210.202 60.9284C221.649 60.9988 232.895 57.9275 242.717 52.0488L242.885 52.3859C265.103 96.8219 269.876 149.616 255.91 197.331C251.3 213.228 244.746 228.495 236.396 242.786C244.648 228.452 251.099 213.154 255.603 197.239C269.287 149.578 264.498 97.0057 242.227 52.6924L242.717 52.8303C232.881 58.674 221.643 61.7377 210.202 61.6945C198.749 61.742 187.497 58.6782 177.649 52.8303L178.132 52.6924C148.137 111.846 150.551 185.54 183.97 242.786H183.993Z" fill="#E0E0E0"/>
<path d="M181.311 45.858C190.088 50.9362 200.062 53.5809 210.202 53.5194C220.34 53.5799 230.31 50.9352 239.085 45.858C231.132 31.2792 221.433 17.7234 210.202 5.49023C198.966 17.7212 189.264 31.2773 181.311 45.858Z" fill="#121212"/>
<path d="M181.311 45.8581C198.794 55.8638 221.572 55.7336 238.909 45.5516L238.779 46.0266C230.807 31.4913 221.132 17.9578 209.957 5.71251H210.44C199.191 17.904 189.42 31.3788 181.326 45.8581H181.311ZM181.311 45.8581C189.12 31.1761 198.745 17.5341 209.957 5.25283L210.194 5L210.44 5.26815C221.806 17.5729 231.586 31.2527 239.553 45.9883C222.016 56.4078 198.794 56.3541 181.326 45.8581H181.311Z" fill="#E0E0E0"/>
<path d="M210.202 242.778C209.689 220.866 209.704 196.496 210.202 174.592C210.692 196.526 210.708 220.889 210.202 242.778Z" fill="#E0E0E0"/>
</g>
<defs>
<linearGradient id="paint0_linear_616_6347" x1="244.718" y1="84.1875" x2="170.547" y2="146.912" gradientUnits="userSpaceOnUse">
<stop stop-color="#FF0036"/>
<stop offset="1" stop-color="#9C1A36"/>
</linearGradient>
<linearGradient id="paint1_linear_616_6347" x1="224.009" y1="277.783" x2="183.097" y2="297.999" gradientUnits="userSpaceOnUse">
<stop stop-color="#FF0036"/>
<stop offset="1" stop-color="#9C1A36"/>
</linearGradient>
<clipPath id="clip0_616_6347">
<rect width="170.396" height="320" fill="white" transform="translate(125 5)"/>
</clipPath>
</defs>
</svg>
