<svg width="60" height="60" viewBox="0 0 60 60" fill="none" xmlns="http://www.w3.org/2000/svg">
<path fillRule="evenodd" clipRule="evenodd" d="M41.9192 5.5038C40.9874 5.47261 40.012 5.63437 39.0341 5.95006C37.0782 6.58144 35.0286 7.81185 32.9253 9.51546C32.101 10.1831 31.2692 10.9463 30.4346 11.756C29.6185 10.9669 28.8038 10.2242 27.9977 9.57125C25.896 7.869 23.852 6.63812 21.9006 6.00817C19.9491 5.37821 18.0074 5.35869 16.4127 6.27546C14.818 7.19222 13.8643 8.8751 13.4365 10.8728C13.0087 12.8706 13.0558 15.2496 13.4855 17.913C13.6348 18.8381 13.8477 19.8086 14.0901 20.7974C13.1789 21.0724 12.294 21.3615 11.4734 21.6806C8.99693 22.6437 6.94782 23.7959 5.45565 25.167C3.96348 26.5381 3 28.2021 3 30.0293C3 31.8565 3.96348 33.5182 5.45565 34.8893C6.94782 36.2604 8.99693 37.4149 11.4734 38.378C12.3508 38.7193 13.3008 39.0265 14.2815 39.317C13.9288 40.6294 13.643 41.903 13.4482 43.1102C13.0181 45.7757 12.9727 48.1551 13.4015 50.1573C13.8303 52.1596 14.7844 53.852 16.387 54.7733C17.9896 55.6946 19.94 55.672 21.8959 55.0406C23.8518 54.4092 25.899 53.1811 28.0023 51.4775C28.819 50.816 29.6452 50.0614 30.472 49.2602C31.3031 50.0662 32.1326 50.8244 32.9533 51.4891C35.055 53.1914 37.1013 54.4199 39.0528 55.0499C41.0042 55.6798 42.9459 55.6994 44.5406 54.7826C46.1353 53.8658 47.0867 52.183 47.5145 50.1852C47.9423 48.1875 47.8952 45.8108 47.4655 43.1474C47.2702 41.9369 46.9842 40.6591 46.6298 39.3426C47.6429 39.045 48.6229 38.7295 49.5266 38.378C52.0031 37.4149 54.0522 36.2604 55.5444 34.8893C57.0365 33.5182 58 31.8565 58 30.0293C58 28.2021 57.0365 26.5381 55.5444 25.167C54.0522 23.7959 52.0031 22.6437 49.5266 21.6806C48.6943 21.3569 47.7958 21.064 46.8702 20.7858C47.1146 19.791 47.3316 18.8135 47.4818 17.8828C47.9118 15.2172 47.9573 12.8356 47.5285 10.8333C47.0997 8.83105 46.1432 7.14097 44.5406 6.21967C43.7393 5.75903 42.8511 5.535 41.9192 5.5038ZM41.8095 7.92567C42.3943 7.9416 42.8931 8.08015 43.3198 8.32545C44.1732 8.81604 44.804 9.77087 45.1405 11.3423C45.4771 12.9138 45.4654 15.037 45.0682 17.4993C44.9321 18.3423 44.7347 19.2358 44.5103 20.1512C42.0656 19.5654 39.3868 19.1307 36.5317 18.8752C35.0985 16.8982 33.6258 15.097 32.141 13.4992C32.9264 12.7359 33.7066 12.0219 34.4683 11.4051C36.4112 9.83137 38.2507 8.76055 39.7857 8.26502C40.5532 8.01725 41.2248 7.90975 41.8095 7.92567ZM19.1298 7.93265C19.7179 7.9163 20.3909 8.02351 21.1606 8.27199C22.7001 8.76895 24.5427 9.8393 26.4874 11.4144C27.2337 12.0189 27.9965 12.7192 28.7656 13.4644C27.2699 15.0752 25.785 16.892 24.3422 18.8868C21.4992 19.147 18.8313 19.5841 16.3987 20.1722C16.176 19.2618 15.9785 18.3729 15.8431 17.5341C15.4455 15.0697 15.4356 12.9462 15.7731 11.3702C16.1106 9.79423 16.7466 8.8322 17.6078 8.33707C18.0385 8.0895 18.5417 7.949 19.1298 7.93265ZM30.472 15.2122C31.4456 16.2671 32.4194 17.4216 33.3852 18.6637C32.4362 18.6243 31.4756 18.601 30.5 18.601C29.505 18.601 28.5261 18.6251 27.5588 18.666C28.5248 17.4229 29.4982 16.2679 30.472 15.2122ZM30.5 21.0042C32.1253 21.0042 33.7094 21.0707 35.2502 21.1832C36.3105 22.6995 37.3466 24.3081 38.3338 26.0107C39.2013 27.5067 39.9863 29.0004 40.7007 30.4756C39.9787 31.9703 39.1806 33.4842 38.3011 35.0009C37.527 36.336 36.7186 37.604 35.8968 38.8266C34.1563 38.9715 32.3528 39.0521 30.5 39.0521C28.6026 39.0521 26.7586 38.9667 24.9795 38.815C24.1714 37.61 23.3766 36.3611 22.6148 35.0474C21.7374 33.5341 20.9431 32.023 20.2222 30.5314C20.9461 29.0313 21.744 27.5117 22.6265 25.9898C23.6086 24.2961 24.6416 22.6968 25.6961 21.1879C27.2535 21.0729 28.856 21.0042 30.5 21.0042ZM38.3268 21.4807C40.297 21.7255 42.1468 22.0653 43.8683 22.4732C43.3575 24.1406 42.7283 25.8822 41.9659 27.6795C41.4709 26.7294 40.9582 25.776 40.4043 24.8207C39.733 23.6629 39.0338 22.5592 38.3268 21.4807ZM22.5448 21.4993C21.8527 22.5576 21.1717 23.6399 20.514 24.7742C19.953 25.7418 19.4296 26.708 18.929 27.6702C18.1732 25.8837 17.5478 24.152 17.0406 22.4941C18.7493 22.0855 20.5884 21.7469 22.5448 21.4993ZM46.233 23.1054C47.0802 23.3606 47.8984 23.627 48.6489 23.9189C50.9318 24.8067 52.7376 25.858 53.908 26.9334C55.0784 28.0088 55.5864 29.0344 55.5864 30.0293C55.5864 31.0242 55.0784 32.0498 53.908 33.1252C52.7376 34.2006 50.9318 35.2519 48.6489 36.1398C47.8149 36.4641 46.8985 36.7583 45.9458 37.0369C45.2663 34.944 44.3988 32.7604 43.3665 30.5314C44.5535 27.9722 45.5123 25.4769 46.233 23.1054ZM14.7274 23.117C15.4397 25.4649 16.3863 27.9353 17.5565 30.4686C16.5174 32.7107 15.6457 34.9066 14.9631 37.0114C14.044 36.74 13.1587 36.4539 12.3511 36.1398C10.0682 35.2519 8.26236 34.2006 7.09197 33.1252C5.92158 32.0498 5.41363 31.0242 5.41363 30.0293C5.41363 29.0344 5.92158 28.0088 7.09197 26.9334C8.26236 25.858 10.0682 24.8067 12.3511 23.9189C13.0901 23.6315 13.8946 23.3689 14.7274 23.117ZM30.5 24.5627C27.2139 24.5627 24.5243 27.2407 24.5243 30.5128C24.5243 33.7848 27.2139 36.4628 30.5 36.4628C33.7861 36.4628 36.4757 33.7848 36.4757 30.5128C36.4757 27.2407 33.7861 24.5627 30.5 24.5627ZM18.9571 33.3274C19.4598 34.2945 19.9828 35.2648 20.5467 36.2374C20.9879 36.9983 21.4385 37.739 21.8959 38.4663C20.2909 38.2447 18.7652 37.9642 17.3324 37.6319C17.788 36.2425 18.3331 34.8001 18.9571 33.3274ZM41.9963 33.3274C42.6227 34.8036 43.1681 36.2483 43.6256 37.6412C42.1883 37.9731 40.6579 38.2527 39.0481 38.4733C39.5115 37.7371 39.9691 36.9871 40.416 36.2165C40.9757 35.2511 41.4966 34.2874 41.9963 33.3274ZM16.6438 39.9422C18.8068 40.4525 21.1512 40.8444 23.6373 41.0997C25.2968 43.4897 27.0257 45.6373 28.7656 47.5147C27.9876 48.27 27.2164 48.9789 26.4617 49.5902C24.5188 51.1639 22.677 52.2324 21.1419 52.728C19.6069 53.2235 18.4612 53.1581 17.6078 52.6675C16.7544 52.1769 16.126 51.2221 15.7894 49.6507C15.4529 48.0792 15.4622 45.9583 15.8595 43.496C16.0397 42.379 16.309 41.1829 16.6438 39.9422ZM44.3165 39.9515C44.6541 41.1998 44.9242 42.4003 45.1055 43.5239C45.5031 45.9883 45.513 48.1118 45.1755 49.6878C44.838 51.2638 44.2068 52.2282 43.3455 52.7233C42.4842 53.2184 41.3275 53.283 39.7881 52.7861C38.2486 52.2891 36.4059 51.2188 34.4613 49.6437C33.7011 49.028 32.9246 48.3133 32.141 47.5518C33.8926 45.6671 35.6337 43.5086 37.3044 41.1044C39.7967 40.8507 42.1476 40.4612 44.3165 39.9515ZM26.7558 41.3438C27.983 41.4104 29.2263 41.4553 30.5 41.4553C31.7316 41.4553 32.9346 41.4131 34.1228 41.3507C32.9082 42.9825 31.6701 44.4659 30.437 45.8017C29.2046 44.463 27.9689 42.977 26.7558 41.3438Z" fill="#E0E0E0"/>
</svg>
