<svg width="96" height="96" viewBox="0 0 96 96" fill="none" xmlns="http://www.w3.org/2000/svg">
<path d="M51.4333 13.64L14.8 8.07334C13.1 7.80667 11.3667 8.27334 10.0667 9.37334C8.76667 10.5067 8 12.14 8 13.84V84.0733C8 85.9067 9.5 87.4067 11.3333 87.4067H22.1667V69.9067C22.1667 66.6733 24.7667 64.0733 28 64.0733H36.3333C39.5667 64.0733 42.1667 66.6733 42.1667 69.9067V87.4067H56.3333V19.4067C56.3333 16.54 54.2667 14.1067 51.4333 13.64ZM26.3333 56.5733H21.3333C19.9533 56.5733 18.8333 55.4533 18.8333 54.0733C18.8333 52.6933 19.9533 51.5733 21.3333 51.5733H26.3333C27.7133 51.5733 28.8333 52.6933 28.8333 54.0733C28.8333 55.4533 27.7133 56.5733 26.3333 56.5733ZM26.3333 46.5733H21.3333C19.9533 46.5733 18.8333 45.4533 18.8333 44.0733C18.8333 42.6933 19.9533 41.5733 21.3333 41.5733H26.3333C27.7133 41.5733 28.8333 42.6933 28.8333 44.0733C28.8333 45.4533 27.7133 46.5733 26.3333 46.5733ZM26.3333 36.5733H21.3333C19.9533 36.5733 18.8333 35.4533 18.8333 34.0733C18.8333 32.6933 19.9533 31.5733 21.3333 31.5733H26.3333C27.7133 31.5733 28.8333 32.6933 28.8333 34.0733C28.8333 35.4533 27.7133 36.5733 26.3333 36.5733ZM26.3333 26.5733H21.3333C19.9533 26.5733 18.8333 25.4533 18.8333 24.0733C18.8333 22.6933 19.9533 21.5733 21.3333 21.5733H26.3333C27.7133 21.5733 28.8333 22.6933 28.8333 24.0733C28.8333 25.4533 27.7133 26.5733 26.3333 26.5733ZM43 56.5733H38C36.62 56.5733 35.5 55.4533 35.5 54.0733C35.5 52.6933 36.62 51.5733 38 51.5733H43C44.38 51.5733 45.5 52.6933 45.5 54.0733C45.5 55.4533 44.38 56.5733 43 56.5733ZM43 46.5733H38C36.62 46.5733 35.5 45.4533 35.5 44.0733C35.5 42.6933 36.62 41.5733 38 41.5733H43C44.38 41.5733 45.5 42.6933 45.5 44.0733C45.5 45.4533 44.38 46.5733 43 46.5733ZM43 36.5733H38C36.62 36.5733 35.5 35.4533 35.5 34.0733C35.5 32.6933 36.62 31.5733 38 31.5733H43C44.38 31.5733 45.5 32.6933 45.5 34.0733C45.5 35.4533 44.38 36.5733 43 36.5733ZM43 26.5733H38C36.62 26.5733 35.5 25.4533 35.5 24.0733C35.5 22.6933 36.62 21.5733 38 21.5733H43C44.38 21.5733 45.5 22.6933 45.5 24.0733C45.5 25.4533 44.38 26.5733 43 26.5733Z" fill="#E0E0E0"/>
<path d="M83.3974 43.5462L59.6641 38.5762V87.4062H82.1641C85.3807 87.4062 87.9974 84.7895 87.9974 81.5728V49.2462C87.9974 46.4928 86.1207 44.1495 83.3974 43.5462ZM75.4974 77.4062H70.4974C69.1174 77.4062 67.9974 76.2862 67.9974 74.9062C67.9974 73.5262 69.1174 72.4062 70.4974 72.4062H75.4974C76.8774 72.4062 77.9974 73.5262 77.9974 74.9062C77.9974 76.2862 76.8774 77.4062 75.4974 77.4062ZM75.4974 67.4062H70.4974C69.1174 67.4062 67.9974 66.2862 67.9974 64.9062C67.9974 63.5262 69.1174 62.4062 70.4974 62.4062H75.4974C76.8774 62.4062 77.9974 63.5262 77.9974 64.9062C77.9974 66.2862 76.8774 67.4062 75.4974 67.4062ZM75.4974 57.4062H70.4974C69.1174 57.4062 67.9974 56.2862 67.9974 54.9062C67.9974 53.5262 69.1174 52.4062 70.4974 52.4062H75.4974C76.8774 52.4062 77.9974 53.5262 77.9974 54.9062C77.9974 56.2862 76.8774 57.4062 75.4974 57.4062Z" fill="#E0E0E0"/>
</svg>
