<svg width="124" height="124" viewBox="0 0 124 124" fill="none" xmlns="http://www.w3.org/2000/svg">
<path d="M69.9591 104.627H54.041V94.0149H69.9591V104.627Z" stroke="#FF0036" stroke-width="4" stroke-miterlimit="10" stroke-linecap="round" stroke-linejoin="round"/>
<path d="M24.681 29.989C21.7507 29.989 19.375 27.6135 19.375 24.683C19.375 21.7527 21.7507 19.377 24.681 19.377C27.6114 19.377 29.987 21.7525 29.987 24.683C29.987 27.6133 27.6114 29.989 24.681 29.989Z" stroke="#FF0036" stroke-width="4" stroke-miterlimit="10" stroke-linecap="round" stroke-linejoin="round"/>
<path d="M67.3064 29.989H56.6943V19.377H67.3064V29.989Z" stroke="#FF0036" stroke-width="4" stroke-miterlimit="10" stroke-linecap="round" stroke-linejoin="round"/>
<path d="M99.3187 29.989C96.3884 29.989 94.0127 27.6135 94.0127 24.683C94.0127 21.7527 96.3884 19.377 99.3187 19.377C102.249 19.377 104.625 21.7525 104.625 24.683C104.625 27.6133 102.249 29.989 99.3187 29.989Z" stroke="#FF0036" stroke-width="4" stroke-miterlimit="10" stroke-linecap="round" stroke-linejoin="round"/>
<path d="M54.0408 94.0149L43.4287 77.92L61.9998 40.6009L80.5709 77.92L69.9588 94.0149" stroke="#FF0036" stroke-width="4" stroke-miterlimit="10" stroke-linecap="round" stroke-linejoin="round"/>
<path d="M62 40.6009V77.9199" stroke="#FF0036" stroke-width="4" stroke-miterlimit="10" stroke-linecap="round" stroke-linejoin="round"/>
<path d="M29.9873 24.6829H56.6943" stroke="#FF0036" stroke-width="4" stroke-miterlimit="10" stroke-linecap="round" stroke-linejoin="round"/>
<path d="M67.3057 24.6829H94.0126" stroke="#FF0036" stroke-width="4" stroke-miterlimit="10" stroke-linecap="round" stroke-linejoin="round"/>
<path d="M24.6807 61.825C24.6807 43.1134 38.694 27.6337 56.6937 25.059" stroke="#FF0036" stroke-width="4" stroke-miterlimit="10" stroke-linecap="round" stroke-linejoin="round"/>
<path d="M67.3057 25.059C85.3053 27.6337 99.3187 43.1134 99.3187 61.825" stroke="#FF0036" stroke-width="4" stroke-miterlimit="10" stroke-linecap="round" stroke-linejoin="round"/>
</svg>
