<svg width="96" height="96" viewBox="0 0 96 96" fill="none" xmlns="http://www.w3.org/2000/svg">
<path fill-rule="evenodd" clip-rule="evenodd" d="M65 28C65 29.656 63.656 31 62 31C60.344 31 59 29.656 59 28V22C59 15.924 54.076 11 48 11C41.924 11 37 15.924 37 22V28C37 29.656 35.656 31 34 31C32.344 31 31 29.656 31 28V22C31 12.612 38.612 5 48 5C57.388 5 65 12.612 65 22V28Z" fill="#E0E0E0"/>
<path fill-rule="evenodd" clip-rule="evenodd" d="M77.3696 33.4L80.5696 81.4C80.7336 83.888 79.8616 86.328 78.1616 88.148C76.4576 89.968 74.0776 91 71.5896 91H24.4136C21.9256 91 19.5456 89.968 17.8416 88.148C16.1416 86.328 15.2696 83.888 15.4336 81.4L18.6336 33.4C18.9496 28.672 22.8776 25 27.6136 25H68.3896C73.1256 25 77.0536 28.672 77.3696 33.4ZM57.9456 42.712C56.1776 46.428 52.3896 49 48.0016 49C43.6136 49 39.8256 46.428 38.0576 42.712C37.3496 41.216 35.5576 40.58 34.0616 41.292C32.5656 42 31.9296 43.792 32.6376 45.288C35.3656 51.032 41.2216 55 48.0016 55C54.7816 55 60.6376 51.032 63.3656 45.288C64.0736 43.792 63.4376 42 61.9416 41.292C60.4456 40.58 58.6536 41.216 57.9456 42.712Z" fill="#E0E0E0"/>
</svg>
