<svg width="220" height="100" viewBox="0 0 220 100" fill="none" xmlns="http://www.w3.org/2000/svg">
<g clip-path="url(#clip0_603_400)">
<path d="M74.4 35C66.4 35 64.7 39.5 64 41.4L56 65.6H145.2C155.5 65.6 156.5 60.2 157.2 58.2L165 35H74.4ZM154.3 58.2C152.9 62.3 149 62.8 145.2 62.8H59.8L66.7 42.2C67.9 38.6 70.9 37.7 74.5 37.7H161.2C158.9 44.5 156.5 51.4 154.3 58.2Z" fill="#818181"/>
<path d="M103.7 51.3L102.4 55.8C101.9 57.7 100.9 57.6 100.9 57.6C99.9 57.6 100.5 56 100.5 56L104.3 44.2C104.5 43.2 104.9 43 105.6 43C106.3 43 106.2 43.9 106.2 43.9L104.7 48.3H108.9L111.5 40H105.2C101 40 100.4 43.6 100.4 43.6L95.8 57C94.4 60.8 100.2 60.4 100.2 60.4C105.4 60.4 105.9 57.6 105.9 57.6L107.8 51.4H103.7V51.3Z" fill="#818181"/>
<path d="M125.4 51.5H128.2L129.2 48.7H126.2L127.9 42.9H131.9L132.9 39.9H121.3L115.2 47.4L117.8 40H113.4L106.7 60H110.8L113.8 51.3C115.7 51.4 115.1 52.4 115.1 52.4L113.4 57.6C112.8 59.4 113.2 60 113.2 60H117.2C117 58.8 117.3 58.2 117.3 58.2L119.3 51.7C119.9 49.8 118.7 49.4 117.6 49.4C116.5 49.4 117.3 48.5 117.3 48.5L124.2 40.4L118.2 59.9H126.2L127.2 57H123.8L125.4 51.5Z" fill="#818181"/>
<path d="M91.1 40L87.2 50.9L88.4 40H83L76.3 60H79.2L82.5 49.6L81.8 60H86.9L94 40H91.1Z" fill="#818181"/>
<path d="M74.6 48.2C73.5 47.3 73.7 45.7 74 44.8C74.3 43.9 74.7 42.8 75.6 42.8C76.6 42.8 76.2 43.7 76.2 43.7L75.1 47.3H79.1L81.5 40.3C78.9 39.6 76.2 39.7 76.2 39.7C70.6 39.7 70.2 42.4 70.2 42.4L69.2 45.7C67.9 49.9 71 50.7 72 51.6C73 52.5 72.4 54.4 72.3 54.8C72.2 55.2 71.6 57.6 70.5 57.6C69.5 57.6 69.9 56 69.9 56L71 51.9H66.8L64.4 59.7C68.3 60.6 70.6 60.5 72.8 60C75 59.5 76 57.5 77.2 53.9C78.6 50.2 75.7 49.1 74.6 48.2Z" fill="#818181"/>
<path d="M137.7 58L139.5 52.8C140.1 51.1 138.9 49.9 138.9 49.9C141.2 49 142.1 43.9 142.6 41.8C143 39.7 141.3 40 141.3 40H133.9L127.5 60H131.6L134.5 51.2C135.9 51.2 135.5 52.8 135.5 52.8L133.8 58.1C133.3 59.6 133.8 60 133.8 60H137.9C137.4 58.8 137.7 58 137.7 58ZM136.4 48.4H135.5L137.3 42.8H138.1C138.5 42.8 139 42.8 138.5 44.7C137.9 46.6 137.3 48.4 136.4 48.4Z" fill="#818181"/>
<path d="M95.6 40L88.5 60H93.2L100.2 40H95.6Z" fill="#818181"/>
<path d="M157.3 39C156.7 39 156.3 39.5 156.3 40C156.3 40.6 156.8 41 157.3 41C157.9 41 158.3 40.5 158.3 40C158.3 39.5 157.9 39 157.3 39ZM157.3 40.9C156.8 40.9 156.4 40.5 156.4 40C156.4 39.5 156.8 39.1 157.3 39.1C157.8 39.1 158.2 39.5 158.2 40C158.2 40.5 157.8 40.9 157.3 40.9Z" fill="#818181"/>
<path d="M150.4 39.7C144.8 39.7 144.4 42.4 144.4 42.4L143.4 45.7C142.1 49.9 145.2 50.7 146.2 51.6C147.2 52.5 146.6 54.4 146.5 54.8C146.4 55.2 145.8 57.6 144.7 57.6C143.7 57.6 144.1 56 144.1 56L145.2 51.9H141L138.6 59.7C142.5 60.6 144.8 60.5 147 60C149.2 59.5 150.2 57.5 151.4 53.9C152.6 50.3 149.7 49.2 148.6 48.3C147.5 47.4 147.7 45.8 148 44.9C148.3 44 148.7 42.9 149.6 42.9C150.6 42.9 150.2 43.8 150.2 43.8L149.1 47.4H153.1L155.5 40.4C153 39.6 150.4 39.7 150.4 39.7Z" fill="#818181"/>
<path d="M157.6 40C157.7 39.9 157.7 39.9 157.7 39.7C157.7 39.4 157.5 39.4 157.3 39.4H156.8V40.5H156.9V40.1H157.3C157.5 40.1 157.5 40.3 157.5 40.4V40.5H157.7C157.6 40.4 157.7 40.4 157.7 40.2C157.7 40.1 157.7 40.1 157.6 40ZM157.4 40H157V39.6H157.4C157.5 39.6 157.6 39.6 157.6 39.8C157.6 39.9 157.5 40 157.4 40Z" fill="#818181"/>
</g>
<defs>
<clipPath id="clip0_603_400">
<rect width="109" height="30.6" fill="white" transform="translate(56 35)"/>
</clipPath>
</defs>
</svg>
