<?xml version="1.0" encoding="utf-8"?>
<!-- Generator: Adobe Illustrator 25.3.0, SVG Export Plug-In . SVG Version: 6.00 Build 0)  -->
<svg version="1.1" id="Layer_1" xmlns="http://www.w3.org/2000/svg" xmlns:xlink="http://www.w3.org/1999/xlink" x="0px" y="0px"
	 width="652px" height="526px" viewBox="0 0 652 526" style="enable-background:new 0 0 652 526;" xml:space="preserve">
<style type="text/css">
	.st0{fill:none;stroke:#262626;}
</style>
<path class="st0" d="M623.3,91.9L623.3,91.9c6.3,4.4,13.2,10,18.5,14.4c2.7,2.2,5,4.2,6.6,5.6c0.8,0.7,1.4,1.3,1.9,1.6
	c0.2,0.2,0.4,0.3,0.5,0.4l0,0c1.9,10.5-0.8,18.8-6,25.3c-5.2,6.6-13,11.4-21,14.9c-8,3.5-16.3,5.7-22.7,7.1
	c-3.1,0.7-5.8,1.2-7.7,1.5l-0.3,0.1c-0.8,0.1-1.4,0.3-1.9,0.3c-0.3,0.1-0.5,0.1-0.6,0.1c0,0-0.1,0-0.1,0c-7.6-2.3-11.5-0.8-13.6,1.6
	c-1,1.2-1.5,2.5-1.8,3.5c-0.1,0.5-0.2,1-0.2,1.3c0,0.2,0,0.3,0,0.4c0,0,0,0.1,0,0.1v0v0v0v0c0,0,0,0,0.5,0H575v0.3l0.2,0.1
	c13.7,9.1,20.6,19.6,24,27.7c1.7,4.1,2.6,7.6,3,10.1c0,0.2,0.1,0.4,0.1,0.6c-0.3-0.3-0.6-0.6-0.9-0.9c-1.1-0.9-2.6-1.2-3.9-1.4
	c-1.3-0.2-2.6-0.1-3.6,0c-0.5,0.1-0.9,0.1-1.2,0.2c-0.1,0-0.3,0.1-0.3,0.1c0,0-0.1,0-0.1,0l0,0l0,0l0,0l0,0c0,0,0,0,0.1,0.5
	l-0.1-0.5l-0.8,0.2l0.6,0.6c3.7,3.9,6,9.4,7.2,15.5c1.3,6.1,1.6,12.9,1.4,19.1c-0.2,6.2-0.8,12-1.4,16.2c-0.3,2.1-0.6,3.8-0.8,5
	c-0.1,0.6-0.2,1-0.3,1.4c0,0.2-0.1,0.3-0.1,0.4l0,0.1l0,0l0,0l0,0c0,0,0,0,0.5,0.1l-0.5-0.1l-0.1,0.7l0.7,0
	c21.3-1.6,32.7,5.7,38.8,13.3c3.1,3.8,4.8,7.7,5.8,10.7c0.5,1.5,0.8,2.7,1,3.6c0.1,0.4,0.1,0.8,0.2,1c0,0.1,0,0.2,0,0.3
	c0,0,0,0.1,0,0.1l0,0l0,0v0l0,0.1l0,0.1c2.2,4.3,2.6,7.9,1.9,10.9c-0.6,3-2.3,5.5-4.3,7.4c-2,1.9-4.2,3.4-6,4.3
	c-0.8,0.4-1.6,0.8-2.1,1c0.2-1.1,0.2-2-0.1-2.8c-0.3-1-0.8-1.8-1.4-2.4c-0.6-0.6-1.3-1-1.8-1.2c-0.3-0.1-0.5-0.2-0.6-0.3
	c-0.1,0-0.1-0.1-0.2-0.1c0,0,0,0-0.1,0l0,0l0,0l0,0l0,0c0,0,0,0-0.1,0.5l0.1-0.5l-0.3-0.1l-0.2,0.3c-2.4,3.4-4.3,5.2-5.7,6.1
	c-1.4,0.9-2.2,0.8-2.7,0.5c-0.6-0.3-0.9-1.1-1.2-1.8c-0.1-0.4-0.2-0.7-0.2-0.9c0-0.1,0-0.2,0-0.3c0,0,0-0.1,0-0.1v0
	c-0.2-9.6-2.7-14.9-6.5-17.4c-3.8-2.4-8.6-1.9-13.3-0.2c-4.7,1.7-9.3,4.6-12.8,7.1c-1.7,1.2-3.2,2.4-4.2,3.2c-0.5,0.4-0.9,0.7-1.2,1
	c-0.1,0.1-0.2,0.2-0.3,0.3c0,0-0.1,0.1-0.1,0.1l0,0l0,0l0,0c0,0,0,0,0.3,0.4l-0.3-0.4l0,0l0,0c-12.5,12.7-20.9,17.4-26.1,19
	c-2.6,0.8-4.4,0.8-5.6,0.6c-0.6-0.1-1-0.2-1.2-0.3c-0.1,0-0.1,0-0.1-0.1c0,0-0.1,0-0.1-0.1c-2.7-4.8-5.5-6.1-7.7-6.1
	c-1.1,0-2,0.3-2.7,0.7c-0.3,0.2-0.6,0.3-0.7,0.4c-0.1,0.1-0.1,0.1-0.2,0.1c-3.3,1-5.6,2.9-7.2,5.3c-1.5,2.4-2.2,5.4-2.4,8.7
	c-0.2,6.6,2,14.6,4.9,22.3c3,7.7,6.7,15.1,9.8,20.6c1.5,2.8,2.8,5,3.8,6.6c0.5,0.8,0.9,1.4,1.1,1.8c0.1,0.2,0.2,0.4,0.3,0.5l0.1,0.1
	l0,0l0,0l0,0c0,0,0,0,0.4-0.3l-0.4,0.3l0,0l0,0c12,16.2,16.2,32.4,17.4,44.6c0.6,6.1,0.5,11.1,0.2,14.7c-0.1,1.8-0.3,3.2-0.5,4.1
	c-0.1,0.5-0.1,0.8-0.2,1.1c0,0.1,0,0.2-0.1,0.3c0,0,0,0.1,0,0.1l0,0v0l0,0l0,0.1v0.1c0,15.7-9,28.7-18.1,37.8
	c-4.5,4.5-9.1,8.1-12.5,10.5c-1.7,1.2-3.1,2.1-4.1,2.8c-0.5,0.3-0.9,0.5-1.2,0.7c-0.1,0.1-0.2,0.1-0.3,0.2l-0.1,0l0,0l0,0l0,0
	c0,0,0,0,0,0.1l0-0.1l0.3,0.9c19.6-1.6,29.2,2,34,5.9c2.4,1.9,3.6,3.9,4.1,5.5c0.2,0.5,0.3,0.9,0.4,1.2c-0.8-0.6-1.9-1-2.9-1.3
	c-1.6-0.4-3.3-0.6-4.9-0.7c-1.6,0-3.1,0-4.1,0.1c-0.5,0-1,0.1-1.3,0.1c-0.1,0-0.2,0-0.3,0c0,0-0.1,0-0.1,0c0,0-0.1,0-0.1,0l0,0l0,0
	h0v0c0,0,0,0,0.1,0.5l-0.1-0.5l-0.7,0.1l0.4,0.6l3,5.3c-7.6-2-18.7-3.4-31-4.3c-13-0.9-27.4-1.4-40.9-1.5c-13.5-0.1-26.1,0-35.2,0.1
	c-4.6,0.1-8.3,0.2-10.9,0.2c-1.3,0-2.3,0.1-3,0.1c-0.3,0-0.6,0-0.8,0l-0.2,0l0,0h0h0c0,0,0,0,0,0.5l0-0.5l0,0h0
	c-25.4,2-37.6,0.4-43.4-1.7c-2.9-1-4.2-2.1-4.7-2.9c-0.3-0.4-0.4-0.7-0.4-0.9c0-0.1,0-0.2,0-0.2c0,0,0,0,0,0c0,0,0,0,0,0v0l0-0.1
	l0-0.1c-0.9-5.9-3-10-5.7-12.9c-2.7-2.9-5.9-4.5-9-5.4c-3.1-0.9-6-1-8.2-0.9c-1.1,0-2,0.1-2.6,0.2c-0.3,0-0.6,0.1-0.7,0.1
	c-0.1,0-0.2,0-0.2,0l-0.1,0l0,0l0,0h0c0,0,0,0,0.1,0.5l-0.1-0.5l-0.5,0.1l0.2,0.5c0.9,2.5,1.7,4.2,2.5,5.2
	c-14.7-2.7-28.2-10.9-38.4-18.8c-5.4-4.2-9.9-8.3-13-11.3c-1.5-1.5-2.7-2.8-3.6-3.6c-0.4-0.4-0.7-0.8-0.9-1
	c-0.1-0.1-0.2-0.2-0.2-0.3l-0.1-0.1l0,0l0,0l0,0c0,0,0,0-0.1,0.1l0.1-0.1l0,0l0,0c-13.9-10.4-26.9-16.6-36.4-20.2
	c-4.8-1.8-8.7-2.9-11.4-3.6c-1.4-0.4-2.4-0.6-3.1-0.7c-0.2-0.1-0.4-0.1-0.6-0.1l0.8-4.3l0-0.2l-0.1-0.2c-0.5-1-1.5-1.9-2.8-2.8
	c-1.3-0.9-2.9-1.7-4.7-2.5c-3.6-1.6-8.1-3.1-12.5-4.3c-4.4-1.2-8.6-2.3-11.8-3c-1.1-0.2-2-0.4-2.8-0.6l5.6-1.1l1.3-0.3l-1.1-0.7
	c-1.4-0.8-8.4-4.3-18.2-9.1c-9.8-4.8-22.3-10.8-34.7-16.8c-12.4-6-24.6-11.8-33.7-16.2c-4.6-2.2-8.3-4-11-5.3
	c-1.3-0.6-2.4-1.1-3.1-1.5l-0.8-0.4l-0.2-0.1l-0.1,0l0,0l0,0c0,0,0,0-0.2,0.5l0.2-0.5l0,0C84,354.1,58,332.1,41.7,314.5
	c-8.1-8.8-13.8-16.4-17.4-21.9c-1.8-2.7-3.1-4.9-4-6.4c-0.4-0.7-0.7-1.3-0.9-1.7c-0.1-0.2-0.2-0.3-0.2-0.4l0,0l0-0.1l0,0
	c0,0,0,0,0,0c-28-59.5-19.8-114.7-4.6-155c7.6-20.2,17-36.6,24.5-48c3.7-5.7,7-10.1,9.3-13.1c1.2-1.5,2.1-2.7,2.7-3.4
	c0.3-0.4,0.6-0.7,0.7-0.9c0.1-0.1,0.1-0.2,0.2-0.2l0,0c65-58,135.6-66.9,189.9-61.3c27.2,2.8,50.3,9.2,66.6,14.9
	c8.2,2.9,14.6,5.5,19,7.5c0.3,0.1,0.5,0.2,0.8,0.3c-6-1.4-9.7-1-12,0.1c-1.5,0.7-2.5,1.6-3,2.4c-0.3,0.4-0.4,0.7-0.5,1
	c-0.1,0.1-0.1,0.2-0.1,0.3c0,0,0,0.1,0,0.1c0,0,0,0,0,0l0,0l0,0v0c0,0,0,0,0.5,0.1l-0.5-0.1l-0.1,0.3l0.3,0.2
	c31,23,45.4,44.7,49.6,64.3c4.3,19.5-1.6,37-11.3,51.6c-9.7,14.7-23.3,26.4-34.5,34.6c-5.6,4.1-10.6,7.2-14.1,9.3
	c-1.8,1.1-3.2,1.9-4.2,2.4c1-1.9,1.6-3.3,1.9-4.5c0.4-1.4,0.3-2.5,0-3.2c-0.4-0.7-1-1-1.5-1.1c-0.2-0.1-0.5-0.1-0.6-0.1
	c-0.1,0-0.1,0-0.2,0c0,0,0,0-0.1,0l0,0l0,0l0,0h0c0,0,0,0,0.1,0.5l-0.1-0.5l-0.2,0l-0.1,0.2c-1.7,2.1-4.6,4.1-7.9,5.9
	c-3.3,1.8-7.1,3.4-10.6,4.8c-3.6,1.3-6.9,2.4-9.3,3.1c-1.2,0.4-2.2,0.6-2.9,0.8c-0.3,0.1-0.6,0.2-0.8,0.2c-0.1,0-0.1,0-0.1,0l-0.1,0
	l-0.1,0l0,0l0,0h0c0,0,0,0,0.1,0.5l-0.1-0.5l0,0l0,0c-0.6,0.3-1.1,0.4-1.5,0.3c-0.3,0-0.6-0.2-0.8-0.4c-0.4-0.4-0.7-1.2-0.8-2.3
	c-0.1-1-0.1-2.1,0-2.9c0-0.4,0.1-0.8,0.1-1c0-0.1,0-0.1,0-0.2c0,0,0-0.1,0-0.1c8.2-10.3,11.5-18.9,11.6-25.9
	c0.1-7-2.9-12.4-6.9-16.5c-4-4-9.1-6.8-13.1-8.5c-2-0.9-3.8-1.5-5.1-1.8c-0.6-0.2-1.1-0.3-1.5-0.4c-0.2,0-0.3-0.1-0.4-0.1
	c0,0-0.1,0-0.1,0l0,0l0,0h0c0,0,0,0-0.1,0.5l0.1-0.5l0,0c-35-7.2-56.1,5.2-68.5,19.5c-6.2,7.1-10.2,14.7-12.6,20.4
	c-1.2,2.9-2.1,5.3-2.6,7.1c-0.3,0.9-0.5,1.5-0.6,2c-0.1,0.2-0.1,0.4-0.1,0.5c0,0.1,0,0.1,0,0.1l0,0l0,0l0,0c0,0,0,0,0.5,0.1
	l-0.5-0.1l0,0l0,0c-9.8,50.7,2.9,84.2,18.2,105.1c7.6,10.4,15.9,17.7,22.2,22.4c3.2,2.3,5.9,4,7.8,5.1c1,0.5,1.7,1,2.2,1.2
	c0.3,0.1,0.5,0.2,0.6,0.3c0.1,0,0.1,0.1,0.2,0.1l0,0c0,0,0,0,0,0 M623.3,91.9L623.3,91.9l0.3-0.4C623.3,91.9,623.3,91.9,623.3,91.9
	L623.3,91.9L623.3,91.9L623.3,91.9l-0.1-0.1c-0.1-0.1-0.1-0.1-0.2-0.3c-0.2-0.2-0.5-0.6-1-1c-0.8-0.9-2.1-2.2-3.7-3.7
	c-3.2-3.1-7.8-7.4-13.4-12c-11.2-9.2-26.6-19.7-43-24.9l0,0l-0.1,0c-0.1,0-0.2,0-0.3-0.1c-0.2-0.1-0.6-0.2-1.1-0.3
	c-0.9-0.2-2.3-0.5-3.9-0.9c-3.3-0.7-7.9-1.5-12.9-2c-5-0.5-10.4-0.8-15.5-0.4c-5.1,0.4-9.7,1.5-13.2,3.6l-0.6,0.4l-0.1-0.7v0l0,0
	l0,0l0,0c0,0,0-0.1,0-0.1c0-0.1-0.1-0.3-0.1-0.5c-0.1-0.4-0.3-1-0.5-1.8c-0.5-1.5-1.3-3.5-2.6-5.8c-2.6-4.5-7.2-9.8-15.1-12.9l0,0
	l-0.1,0l-0.4-0.1c-0.3-0.1-0.8-0.2-1.3-0.4c-1.2-0.4-2.8-0.9-4.9-1.6c-4.1-1.4-9.6-3.2-15.3-5.3c-5.7-2-11.8-4.3-16.8-6.3
	c-4.5-1.8-8.3-3.5-10.6-4.9 M213.8,321.9c28.5,14.7,47.4,30.2,59.2,42c5.9,5.9,10,10.9,12.6,14.4c1.3,1.8,2.3,3.1,2.9,4.1
	c0.3,0.5,0.5,0.8,0.7,1.1c0.1,0.1,0.1,0.2,0.2,0.3l0,0l0,0l0,0l0,0v0l0.9-0.3c-3.1-26.9,11.8-56.8,27.5-80
	c7.9-11.6,15.9-21.5,22-28.6c3-3.5,5.6-6.3,7.4-8.2c0.9-1,1.6-1.7,2.1-2.2c0.2-0.2,0.4-0.4,0.5-0.6c0.1-0.1,0.1-0.1,0.1-0.1l0,0
	c7.2-5.8,16.9-17.8,27.3-32.4c10.5-14.7,21.7-32.1,32.1-48.7c10.4-16.7,19.9-32.6,26.8-44.4c3.4-5.9,6.2-10.7,8.2-14.1
	c1-1.7,1.7-3,2.2-3.9c0.3-0.4,0.5-0.8,0.6-1l0.1-0.3l0-0.1l0,0l0,0c0,0,0,0-0.4-0.2l0.4,0.2l0.1-0.1l0-0.1
	c0.4-7.9,4.4-18.5,8.3-27.3c1.9-4.4,3.9-8.2,5.3-11c0.7-1.4,1.3-2.5,1.7-3.3c0.2-0.4,0.4-0.7,0.5-0.9c0.1-0.1,0.1-0.2,0.1-0.2l0-0.1
	l0,0l0,0l0,0c0,0,0,0-0.4-0.2l0.4,0.2l0.3-0.5l-0.5-0.2c-13.7-6.3-19.4-14.6-21.7-21.2c-1.2-3.3-1.5-6.2-1.5-8.3
	c0-1,0.1-1.9,0.1-2.5c0-0.3,0.1-0.5,0.1-0.7c0-0.1,0-0.1,0-0.2c2.7-5.6,4.3-14,5.1-21c0.4-3.5,0.7-6.6,0.9-8.9
	c0.1-1.1,0.1-2.1,0.2-2.7c0,0,0-0.1,0-0.1"/>
</svg>
