<svg width="60" height="61" viewBox="0 0 60 61" fill="none" xmlns="http://www.w3.org/2000/svg">
<path d="M43.625 3H17.375C9.44875 3 3 9.44875 3 17.375V43.625C3 51.5513 9.44875 58 17.375 58H43.625C51.5513 58 58 51.5513 58 43.625V17.375C58 9.44875 51.5513 3 43.625 3ZM48.7688 48C48.7688 48 46.7063 44.4912 43.2488 44.4912C39.9163 44.4912 37.365 48 30.6562 48C18.1875 47.9987 11.12 38.7525 9.29 35.875C9.14625 35.6488 9.415 35.3988 9.64125 35.5425C14.9437 38.8763 20.0725 40.5 23.625 40.4987C28.8213 40.4975 31.75 38 31.75 38C26.9638 35.1813 15.5 22.0625 13.0575 18.3988C12.8887 18.1463 13.1912 17.8675 13.4237 18.0625C23.3575 26.4175 29.0188 29.5662 29.0188 29.5662C26.9163 27.8013 20.6562 19.5613 18.0525 15.8975C17.8762 15.65 18.2 15.3637 18.4225 15.57C25.5475 22.195 38 31.75 38 31.75C38.7837 29.545 39.28 26.8988 39.2475 24.875C39.1637 19.5387 35.7225 14.2175 34.2963 12.1362C34.135 11.9012 34.4287 11.6375 34.66 11.8038C43.9375 18.4688 46.7513 26.7913 46.75 31.5938C46.7487 35.0438 45.5 37.2188 45.5 37.2188C45.5 37.2188 50.79 42.99 48.7688 48Z" fill="#E0E0E0"/>
</svg>
