<svg width="60" height="60" viewBox="0 0 60 60" fill="none" xmlns="http://www.w3.org/2000/svg">
<path d="M14.2172 46.283L4.8112 36.877C3.69123 35.7297 3 34.1088 3 32.5317C3 31.8 3.41233 30.6548 3.72404 29.9997L12.406 11.9062L14.2172 46.283Z" fill="#E0E0E0"/>
<path d="M46.4208 13.7172L37.0148 4.3112C36.1934 3.48435 34.4828 2.5 33.0347 2.5C31.7901 2.5 30.5684 2.75046 29.7798 3.22404L12.4137 11.906L46.4208 13.7172Z" fill="#E0E0E0"/>
<path d="M25.4333 57.5002H48.2309V47.7311L31.2235 42.3008L15.6642 47.7311L25.4333 57.5002Z" fill="#E0E0E0"/>
<path d="M12.406 41.218C12.406 44.1207 12.7702 44.8328 14.2139 46.2841L15.6609 47.7322H48.2309L32.3118 29.6399L12.406 11.9062V41.218Z" fill="#E0E0E0"/>
<path d="M41.3568 11.9062H12.406L48.2309 47.7267H58V25.2934L46.4208 13.7131C44.7933 12.0834 43.3496 11.9062 41.3568 11.9062Z" fill="#E0E0E0"/>
<path opacity="0.2" d="M14.5804 46.6429C13.1334 45.1915 12.7735 43.7598 12.7735 41.218V12.2694L12.4137 11.9062V41.218C12.4137 43.7609 12.4137 44.4653 14.5804 46.644L15.6642 47.7278L14.5804 46.6429Z" fill="#E0E0E0"/>
<path opacity="0.2" d="M57.6401 24.9336V47.3669H47.871L48.2308 47.7311H57.9999V25.2934L57.6401 24.9336Z" fill="#E0E0E0"/>
<path opacity="0.2" d="M46.4208 13.7175C44.6282 11.9216 43.1604 11.9062 40.997 11.9062H12.4137L12.7735 12.2661H40.997C42.0765 12.2661 44.8021 12.0845 46.423 13.7142L46.4208 13.7175Z" fill="#E0E0E0"/>
<path opacity="0.2" d="M57.6402 24.9333L46.4208 13.7172L37.0148 4.3112C36.1934 3.48435 34.4828 2.5 33.0347 2.5C31.79 2.5 30.5684 2.75046 29.7798 3.22404L12.4137 11.906L3.72733 29.9995C3.41671 30.659 3 31.803 3 32.5314C3 34.1119 3.69561 35.7251 4.80683 36.8735L13.4811 45.4833C13.712 45.7632 13.9577 46.0304 14.2172 46.2839L14.577 46.6437L15.6598 47.7276L25.0658 57.1336L25.4257 57.4934H48.2189V47.7265H57.988V25.2932L57.6402 24.9333Z" fill="#E0E0E0"/>
</svg>
