<svg width="220" height="100" viewBox="0 0 220 100" fill="none" xmlns="http://www.w3.org/2000/svg">
<g clip-path="url(#clip0_603_438)">
<path d="M57.3 60.5C55.5 59.4 54.1 55.4 54.1 50.7C54.1 50.5 54.1 50.4 54.1 50.2C49 49.4 45.3 47.2 45.3 44.6C44.1 46.1 43.3 47.9 43.3 49.8C43.3 55.5 49.5 60.1 57.3 60.5ZM41 50.4C41 44.1 48.8 39 58.4 39C68 39 75.8 44.1 75.8 50.4C75.8 56.7 68 61.8 58.4 61.8C48.8 61.7 41 56.6 41 50.4ZM58.4 40.6C60.3 40.6 61.8 43.4 62.4 47.4C66 46.8 68.5 45.5 68.5 44C68.5 42 63.9 40.3 58.3 40.3C52.8 40.3 48.3 42 48.3 44C48.3 45.5 50.8 46.8 54.4 47.4C55 43.5 56.6 40.6 58.4 40.6ZM59.5 60.5C67.3 60.1 73.5 55.5 73.5 49.9C73.5 48 72.8 46.2 71.5 44.7C71.4 47.3 67.7 49.5 62.7 50.3C62.7 50.5 62.7 50.6 62.7 50.8C62.7 55.5 61.3 59.4 59.5 60.5ZM58.4 47.7C59.2 47.7 60 47.7 60.8 47.6C60.4 45.1 59.5 43.3 58.4 43.3C57.3 43.3 56.4 45.1 56 47.6C56.8 47.6 57.6 47.7 58.4 47.7ZM58.4 57C59.8 57 60.9 54.1 61 50.4C59.3 50.6 57.5 50.6 55.8 50.4C55.9 54.1 57 57 58.4 57ZM129.9 50.4C129.9 45.6 133.8 41.7 138.6 41.7C143.4 41.7 147.3 45.6 147.3 50.4C147.3 55.2 143.4 59.1 138.6 59.1C133.8 59 129.9 55.1 129.9 50.4ZM138.6 55.8C141.3 55.8 143.4 53.3 143.4 50.3C143.4 47.3 141.2 44.8 138.6 44.8C135.9 44.8 133.8 47.3 133.8 50.3C133.7 53.4 135.9 55.8 138.6 55.8ZM157.1 45.3V58.6H153.4V45.3H148.3V42.3H162.2V45.3H157.1ZM166.6 55L165.2 58.7H161L167.7 42.3H172.3L179 58.7H174.7L173.3 55H166.6ZM170 52.2H172.3L170 46.2L167.7 52.2H170ZM89.7 45.3V58.6H86V45.3H81V42.3H94.9V45.3H89.7ZM95.8 50.4C95.8 45.6 99.7 41.7 104.5 41.7C109.3 41.7 113.2 45.6 113.2 50.4C113.2 55.2 109.3 59.1 104.5 59.1C99.6 59 95.8 55.1 95.8 50.4ZM104.4 55.8C107.1 55.8 109.2 53.3 109.2 50.3C109.2 47.3 107 44.8 104.4 44.8C101.7 44.8 99.6 47.3 99.6 50.3C99.6 53.4 101.8 55.8 104.4 55.8ZM121.5 58.6H123.4V52.4L129.8 42.3H125.5L121.5 49.2L117.5 42.3H113.2L119.6 52.4V58.6H121.5Z" fill="#818181"/>
</g>
<defs>
<clipPath id="clip0_603_438">
<rect width="138" height="22.7" fill="white" transform="translate(41 39)"/>
</clipPath>
</defs>
</svg>
