<svg width="22" height="22" viewBox="0 0 22 22" fill="none" xmlns="http://www.w3.org/2000/svg">
<g clip-path="url(#clip0_122_1405)">
<path d="M11 22C17.0751 22 22 17.0751 22 11C22 4.92487 17.0751 0 11 0C4.92487 0 0 4.92487 0 11C0 17.0751 4.92487 22 11 22Z" fill="#03A9F4"/>
<path d="M18.1254 6.58069C17.5894 6.81477 17.0225 6.97027 16.4421 7.0424C17.0539 6.67959 17.5113 6.10482 17.7274 5.42714C17.1547 5.76703 16.5281 6.00641 15.8747 6.1349C15.4743 5.7067 14.9543 5.40889 14.3824 5.28021C13.8105 5.15154 13.213 5.19795 12.6678 5.41341C12.1226 5.62887 11.6549 6.00341 11.3254 6.48831C10.9959 6.97321 10.82 7.54603 10.8205 8.13227C10.8185 8.35603 10.8413 8.57933 10.8885 8.79806C9.72627 8.74097 8.58911 8.43933 7.55134 7.91284C6.51358 7.38635 5.59856 6.64686 4.86604 5.74266C4.48952 6.38589 4.37287 7.14862 4.53994 7.87498C4.707 8.60134 5.14516 9.23647 5.76486 9.65056C5.30231 9.63809 4.84956 9.51448 4.44486 9.29016V9.32201C4.44616 9.99623 4.67953 10.6494 5.10574 11.1719C5.53195 11.6943 6.12502 12.0541 6.78525 12.1907C6.5354 12.2563 6.27792 12.2885 6.01959 12.2862C5.83359 12.2897 5.64775 12.2732 5.46525 12.237C5.65441 12.8169 6.01857 13.3239 6.50765 13.6883C6.99673 14.0527 7.58671 14.2566 8.19644 14.272C7.16319 15.0796 5.88944 15.5183 4.57802 15.5182C4.34435 15.5202 4.11081 15.5066 3.87894 15.4777C5.21612 16.3398 6.77477 16.7953 8.36578 16.789C13.7428 16.789 16.6824 12.3354 16.6824 8.4753C16.6824 8.34648 16.6824 8.22201 16.6722 8.09753C17.2447 7.68437 17.7371 7.17036 18.1254 6.58069Z" fill="white"/>
</g>
<defs>
<clipPath id="clip0_122_1405">
<rect width="22" height="22" fill="white"/>
</clipPath>
</defs>
</svg>
