<svg width="65" height="65" viewBox="0 0 65 65" fill="none" xmlns="http://www.w3.org/2000/svg">
<path d="M34.3014 0.414528L35.1374 0.809316C35.9576 1.2041 36.904 1.33044 37.803 1.14094L38.7021 0.967231C39.9639 0.714567 41.273 1.04619 42.251 1.88314L42.9607 2.48322C43.6548 3.0833 44.538 3.43071 45.4529 3.47808L46.3677 3.52546C47.6453 3.58862 48.8283 4.23608 49.5696 5.29411L50.1059 6.0521C50.6421 6.7943 51.3993 7.3628 52.2825 7.63126L53.1658 7.89971C54.3961 8.27871 55.374 9.21041 55.8314 10.4106L56.1627 11.2633C56.4939 12.116 57.0933 12.8425 57.8661 13.332L58.6548 13.8215C59.7431 14.5006 60.4687 15.6376 60.6106 16.9167L60.721 17.8326C60.8314 18.7485 61.2258 19.6012 61.8567 20.2645L62.4876 20.9277C63.3709 21.8594 63.7967 23.1385 63.6232 24.4177L63.4971 25.3336C63.3709 26.2495 63.5444 27.1654 64.0018 27.9707L64.4592 28.7761C65.0901 29.8973 65.169 31.2396 64.6958 32.4397L64.3488 33.2925C64.0018 34.1452 63.9387 35.0769 64.1753 35.9771L64.4119 36.8614C64.7431 38.1089 64.4908 39.4354 63.7337 40.4618L63.1816 41.204C62.6296 41.9462 62.3456 42.8464 62.3456 43.7623L62.3614 44.6782C62.3772 45.9573 61.7936 47.189 60.7999 47.9944L60.0901 48.5787C59.3803 49.163 58.8756 49.9525 58.6548 50.8527L58.434 51.7528C58.1343 53.0003 57.2668 54.0426 56.0996 54.5795L55.2636 54.9585C54.4276 55.3375 53.7494 55.9849 53.3078 56.7903L52.8661 57.5956C52.251 58.7326 51.1627 59.5222 49.9008 59.7433L49.0018 59.9012C48.1027 60.0591 47.2667 60.5171 46.6516 61.1961L46.0365 61.8752C45.169 62.8226 43.9071 63.3122 42.6295 63.2174L41.7147 63.1543C40.7999 63.0911 39.885 63.328 39.1122 63.8175L38.3393 64.3228C37.2667 65.0177 35.926 65.1914 34.7115 64.7808L33.844 64.4808C32.9765 64.1807 32.0301 64.1807 31.1626 64.4808L30.2951 64.7808C29.0806 65.1914 27.7399 65.0177 26.6673 64.3228L25.8945 63.8175C25.1216 63.3122 24.2068 63.0753 23.2919 63.1543L22.3771 63.2174C21.0995 63.3122 19.8377 62.8069 18.9702 61.8752L18.355 61.1961C17.7399 60.5171 16.9039 60.0591 16.0049 59.9012L15.1058 59.7433C13.844 59.5222 12.7556 58.7169 12.1405 57.5956L11.6989 56.7903C11.2572 55.9849 10.579 55.3375 9.74302 54.9585L8.90705 54.5795C7.73986 54.0426 6.87235 53.0003 6.57266 51.7528L6.35184 50.8527C6.13102 49.9525 5.62629 49.163 4.91651 48.5787L4.20673 47.9944C3.21304 47.189 2.62944 45.9573 2.64521 44.6782L2.66098 43.7623C2.67676 42.8464 2.37707 41.9462 1.82502 41.204L1.27297 40.4618C0.500097 39.4354 0.247731 38.1089 0.594735 36.8614L0.831328 35.9771C1.06792 35.0927 1.00483 34.1452 0.657826 33.2925L0.310822 32.4397C-0.178138 31.2554 -0.0835002 29.8973 0.547416 28.7761L1.00483 27.9707C1.46224 27.1654 1.63575 26.2495 1.50956 25.3336L1.38338 24.4177C1.20988 23.1385 1.61997 21.8594 2.51903 20.9277L3.14994 20.2645C3.78086 19.6012 4.19096 18.7485 4.28559 17.8326L4.396 16.9167C4.53796 15.6376 5.26351 14.5006 6.35184 13.8215L7.14049 13.332C7.91336 12.8425 8.5285 12.116 8.84396 11.2633L9.17519 10.4106C9.63261 9.21041 10.6263 8.27871 11.8408 7.89971L12.7241 7.63126C13.6074 7.3628 14.3645 6.7943 14.9008 6.0521L15.437 5.29411C16.1784 4.25187 17.3613 3.58862 18.6389 3.52546L19.5538 3.47808C20.4686 3.43071 21.3519 3.0833 22.0459 2.48322L22.7557 1.88314C23.7336 1.04619 25.0427 0.714567 26.3046 0.967231L27.2036 1.14094C28.1027 1.31464 29.0333 1.2041 29.8692 0.809316L30.7052 0.414528C31.7935 -0.138176 33.15 -0.138176 34.3014 0.414528Z" fill="white"/>
<path d="M32.4719 63.0608C49.3366 63.0608 63.0082 49.3731 63.0082 32.4884C63.0082 15.6037 49.3366 1.91602 32.4719 1.91602C15.6071 1.91602 1.93555 15.6037 1.93555 32.4884C1.93555 49.3731 15.6071 63.0608 32.4719 63.0608Z" fill="#0A0A0A"/>
<path d="M32.4721 63.5018C15.3901 63.5018 1.49414 49.5894 1.49414 32.4872C1.49414 15.385 15.3901 1.47266 32.4721 1.47266C49.5542 1.47266 63.4501 15.385 63.4501 32.4872C63.4501 49.5894 49.5542 63.5018 32.4721 63.5018ZM32.4721 2.35698C15.879 2.35698 2.37742 15.8745 2.37742 32.4872C2.37742 49.0999 15.879 62.6174 32.4721 62.6174C49.0652 62.6174 62.5668 49.0999 62.5668 32.4872C62.5668 15.8745 49.0652 2.35698 32.4721 2.35698Z" fill="white"/>
<path d="M6.87207 27.0847L7.0298 26.5478L10.5945 26.2161L7.73958 24.0369L7.89731 23.5L11.1781 26.074L11.0203 26.6425L6.87207 27.0847Z" fill="white"/>
<path d="M8.33887 22.4909L9.41142 20.2012L9.80575 20.3907L8.93824 22.2541L10.0739 22.791L10.9256 20.975L11.3199 21.1645L10.4682 22.9805L11.6827 23.549L12.5502 21.6856L12.9446 21.8751L11.872 24.1648L8.33887 22.4909Z" fill="white"/>
<path d="M12.7083 19.2839L12.2824 19.9313L13.56 20.7841L13.2919 21.1788L10.0742 19.0154L10.9417 17.7205C11.3361 17.1362 11.9985 16.9625 12.5821 17.3573C13.1657 17.7521 13.213 18.3522 12.9607 18.8259L14.8534 18.8417L14.538 19.3154L12.7083 19.2839ZM11.273 18.0205L10.7051 18.8575L11.9354 19.6786L12.5032 18.8417C12.7556 18.4627 12.6767 18.0363 12.314 17.7837C11.9512 17.5468 11.5253 17.6415 11.273 18.0205Z" fill="white"/>
<path d="M12.4395 15.746L12.7549 15.3828L15.7044 17.8937L15.389 18.2569L12.4395 15.746Z" fill="white"/>
<path d="M13.6855 14.325L15.5152 12.5879L15.8149 12.9037L14.3322 14.325L15.184 15.2251L16.6351 13.8354L16.9348 14.1513L15.4837 15.5409L16.6982 16.82L16.3512 17.1516L13.6855 14.325Z" fill="white"/>
<path d="M16.4307 11.8782L16.8092 11.5781L19.1594 14.6575L18.7808 14.9575L16.4307 11.8782Z" fill="white"/>
<path d="M17.9443 10.756L20.1052 9.44531L20.326 9.80852L18.5753 10.8665L19.2219 11.9404L20.9412 10.8981L21.162 11.2613L19.4428 12.3036L20.1368 13.4406L21.8876 12.3825L22.1084 12.7457L19.9475 14.0564L17.9443 10.756Z" fill="white"/>
<path d="M21.3359 8.81499L22.5662 8.32546C23.6861 7.88329 24.7113 8.37283 25.1214 9.38349C25.5315 10.4099 25.1057 11.468 24.0016 11.9101L22.7713 12.3997L21.3359 8.81499ZM23.8438 11.5153C24.7113 11.1679 24.9795 10.3468 24.664 9.57299C24.3486 8.7992 23.623 8.37283 22.724 8.72024L21.9511 9.03608L23.071 11.8312L23.8438 11.5153Z" fill="white"/>
<path d="M30.0738 7.93009L29.7268 10.4094L28.67 10.5041L27.2031 6.76152L28.323 6.65098L29.159 9.16183L29.5691 6.52465L30.3262 6.44569L31.2252 8.95654L31.5564 6.33515L32.6763 6.22461L31.9508 10.1883L30.894 10.283L30.0738 7.93009Z" fill="white"/>
<path d="M35.4528 6.47667C36.6358 6.603 37.4087 7.5347 37.2825 8.70327C37.1563 9.87185 36.1784 10.5983 35.0112 10.4561C33.8282 10.3298 33.0396 9.3981 33.1815 8.22953C33.3077 7.06095 34.2699 6.33454 35.4528 6.47667ZM35.3582 7.3452C34.7115 7.26624 34.2541 7.70841 34.191 8.34007C34.1279 8.95594 34.4749 9.49285 35.1058 9.57181C35.7367 9.65077 36.2099 9.19281 36.273 8.57694C36.3361 7.94528 35.9891 7.42416 35.3582 7.3452Z" fill="white"/>
<path d="M40.4521 7.55002C41.572 7.91322 42.1714 8.97126 41.8086 10.0925C41.4458 11.2137 40.3575 11.7348 39.2376 11.3716C38.1177 11.0084 37.5184 9.95033 37.8811 8.82913C38.2282 7.70793 39.3323 7.18681 40.4521 7.55002ZM40.184 8.38697C39.5688 8.19747 39.0326 8.52909 38.8433 9.12917C38.654 9.72925 38.8906 10.3293 39.5058 10.5188C40.1209 10.7083 40.6572 10.3767 40.8465 9.77662C41.0357 9.17655 40.7991 8.57647 40.184 8.38697Z" fill="white"/>
<path d="M43.434 8.73633L45.9419 10.0628L45.5476 10.805L43.923 9.95228L43.6233 10.5208L45.2163 11.3577L44.822 12.0999L43.229 11.263L42.8977 11.8788L44.5223 12.7316L44.128 13.4738L41.6201 12.1631L43.434 8.73633Z" fill="white"/>
<path d="M46.6826 13.7254L45.2315 14.2465L44.2852 13.5359L46.5565 12.7779L46.6826 10.5039L47.6132 11.2145L47.4871 12.6358L48.812 12.1146L49.7584 12.8253L47.6132 13.5675L47.4871 15.9678L46.5565 15.2572L46.6826 13.7254Z" fill="white"/>
<path d="M50.4845 13.5352L51.8094 14.9564C52.4088 15.5881 52.2984 16.346 51.7936 16.8198C51.2889 17.2935 50.5476 17.3409 49.9482 16.7093L49.3015 16.0302L48.3394 16.9303L47.6611 16.2039L50.4845 13.5352ZM51.0996 15.4301L50.5476 14.8459L49.9167 15.4459L50.4687 16.0302C50.658 16.2197 50.9104 16.2513 51.0996 16.0776C51.2889 15.8881 51.2889 15.6196 51.0996 15.4301Z" fill="white"/>
<path d="M53.3544 16.7734L54.9317 19.1264L54.2377 19.6001L53.2124 18.0683L52.6762 18.4315L53.6856 19.9317L52.9758 20.4055L51.9664 18.9053L51.3828 19.3001L52.408 20.8319L51.714 21.3056L50.1367 18.9527L53.3544 16.7734Z" fill="white"/>
<path d="M53.8442 22.5997L53.6233 22.1417L52.4404 22.6944L52.0303 21.7943L55.5476 20.1836L56.352 21.9522C56.7148 22.726 56.3994 23.4209 55.7369 23.7209C55.1218 24.0051 54.6328 23.7841 54.3647 23.4998L53.4025 24.8105L52.9293 23.7683L53.8442 22.5997ZM55.5161 22.1417L55.1849 21.4311L54.3962 21.7943L54.7274 22.5049C54.8379 22.7418 55.0744 22.8682 55.3268 22.7576C55.5792 22.6471 55.6265 22.3786 55.5161 22.1417Z" fill="white"/>
<path d="M56.6511 25.2693L56.3672 24.2271L57.2031 23.9902L58.0391 27.038L57.2031 27.2749L56.9192 26.2326L54.0328 27.038L53.7646 26.0747L56.6511 25.2693Z" fill="white"/>
<path fill-rule="evenodd" clip-rule="evenodd" d="M18.1187 23.9277H46.8253C48.6392 23.9277 50.1061 25.3963 50.1061 27.2124V38.1717C50.1061 39.9877 48.6392 41.4563 46.8253 41.4563H36.5256L37.9294 44.9147L31.7149 41.4563H18.1187C16.3048 41.4563 14.8379 39.9877 14.8379 38.1717V27.2124C14.8379 25.3963 16.3048 23.9277 18.1187 23.9277Z" fill="white"/>
<path d="M16.6046 26.8956C16.8097 26.6271 17.1094 26.485 17.5037 26.4534C18.2292 26.406 18.6551 26.7534 18.7655 27.4956C19.2229 30.5118 19.6961 33.0543 20.2166 35.1545L23.3712 29.138C23.6551 28.601 24.0179 28.301 24.4595 28.2694C25.0904 28.222 25.4848 28.6326 25.6425 29.4854C26.0053 31.3961 26.4627 33.0385 27.0147 34.4123C27.3933 30.7487 28.0242 28.0957 28.9075 26.4692C29.1125 26.0744 29.4438 25.8533 29.8539 25.8217C30.1851 25.7902 30.5006 25.9007 30.7687 26.106C31.0368 26.3271 31.1788 26.5955 31.2103 26.9271C31.2261 27.1798 31.1788 27.4167 31.0684 27.622C30.5006 28.6642 30.0431 30.4013 29.6804 32.8332C29.3176 35.1861 29.1914 37.0179 29.286 38.3444C29.3176 38.7076 29.2545 39.0235 29.1125 39.2919C28.939 39.6077 28.6867 39.7814 28.3397 39.813C27.9611 39.8446 27.5826 39.6551 27.204 39.2761C25.8633 37.9023 24.8065 35.8494 24.0179 33.1332C23.0873 34.9808 22.3933 36.3705 21.9359 37.2864C21.0841 38.9129 20.3586 39.7499 19.7592 39.7972C19.3649 39.8288 19.0337 39.4972 18.7497 38.8024C18.0084 36.9232 17.2198 33.2595 16.368 27.8431C16.3365 27.4956 16.3996 27.164 16.6046 26.8956Z" fill="#0A0A0A"/>
<path d="M47.5977 29.1708C47.0771 28.2707 46.3043 27.7022 45.2948 27.4969C45.0267 27.4338 44.7585 27.418 44.5062 27.418C43.1181 27.418 41.9983 28.1444 41.115 29.5814C40.3737 30.8131 39.9951 32.1712 39.9951 33.6398C39.9951 34.761 40.2317 35.7085 40.6891 36.4981C41.2096 37.3982 41.9825 37.9667 42.992 38.172C43.2601 38.2352 43.5282 38.251 43.7806 38.251C45.1686 38.251 46.3043 37.5245 47.156 36.0875C47.8973 34.84 48.2759 33.4819 48.2759 31.9975C48.2917 30.8921 48.0551 29.9446 47.5977 29.1708ZM45.7838 33.1661C45.5787 34.1136 45.2159 34.8242 44.6797 35.2979C44.2538 35.6769 43.8752 35.8349 43.5125 35.7559C43.1655 35.6927 42.8816 35.3769 42.6607 34.8242C42.4872 34.3662 42.4084 33.9399 42.4084 33.5135C42.4084 33.1503 42.4399 32.7871 42.5188 32.4555C42.645 31.8554 42.8973 31.2869 43.2759 30.7342C43.7491 30.0236 44.2538 29.7393 44.7743 29.8499C45.1213 29.913 45.4052 30.2289 45.626 30.7816C45.7995 31.2395 45.8784 31.6659 45.8784 32.0923C45.8784 32.4713 45.8469 32.8345 45.7838 33.1661Z" fill="#0A0A0A"/>
<path d="M38.5604 29.1708C38.0399 28.2707 37.267 27.7022 36.2576 27.4969C35.9894 27.4338 35.7213 27.418 35.4689 27.418C34.0809 27.418 32.961 28.1444 32.0935 29.5814C31.3522 30.8131 30.9736 32.1712 30.9736 33.6398C30.9736 34.761 31.2102 35.7085 31.6676 36.4981C32.1881 37.3982 32.961 37.9667 33.9705 38.172C34.2386 38.2352 34.5068 38.251 34.7591 38.251C36.1471 38.251 37.2828 37.5245 38.1503 36.0875C38.8916 34.84 39.2702 33.4819 39.2702 31.9975C39.2544 30.8921 39.0336 29.9446 38.5604 29.1708ZM36.7465 33.1661C36.5415 34.1136 36.1787 34.8242 35.6424 35.2979C35.2165 35.6769 34.838 35.8349 34.4752 35.7559C34.1282 35.6927 33.8443 35.3769 33.6235 34.8242C33.45 34.3662 33.3711 33.9399 33.3711 33.5135C33.3711 33.1503 33.4027 32.7871 33.4815 32.4555C33.6077 31.8554 33.8601 31.2869 34.2386 30.7342C34.7118 30.0236 35.2165 29.7393 35.737 29.8499C36.0841 29.913 36.368 30.2289 36.5888 30.7816C36.7623 31.2395 36.8412 31.6659 36.8412 32.0923C36.8412 32.4713 36.8096 32.8345 36.7465 33.1661Z" fill="#0A0A0A"/>
<path d="M18.3555 51.3435L17.0148 52.3858L16.7939 52.2278L17.551 50.2539L17.7719 50.4276L17.1094 52.0541L18.4974 50.9803L18.6709 51.1066L18.0242 52.749L19.3965 51.6594L19.6173 51.8331L17.9296 53.1122L17.7088 52.9543L18.3555 51.3435Z" fill="white"/>
<path d="M20.6901 52.3862C21.2106 52.6863 21.321 53.2864 21.0213 53.8075C20.7217 54.3286 20.1381 54.5023 19.6176 54.2023C19.097 53.8864 18.9866 53.3022 19.2863 52.781C19.586 52.2599 20.1696 52.0704 20.6901 52.3862ZM20.5639 52.5757C20.1696 52.3389 19.7437 52.4968 19.4914 52.9074C19.2548 53.3179 19.3179 53.7759 19.7122 53.997C20.1065 54.2339 20.5324 54.0759 20.7847 53.6654C21.0371 53.2706 20.9582 52.8126 20.5639 52.5757Z" fill="white"/>
<path d="M22.8039 53.4916C23.3559 53.7443 23.5294 54.3286 23.2771 54.8813C23.0247 55.434 22.4569 55.6709 21.9206 55.4182C21.3685 55.1655 21.195 54.5813 21.4474 54.0286C21.684 53.4758 22.2518 53.239 22.8039 53.4916ZM22.7092 53.6969C22.2991 53.5074 21.8891 53.6969 21.684 54.1391C21.479 54.5655 21.6051 55.0076 22.0152 55.2129C22.4253 55.4024 22.8354 55.1971 23.0405 54.7708C23.2297 54.3286 23.1193 53.8864 22.7092 53.6969Z" fill="white"/>
<path d="M23.7026 55.0537C23.9077 54.4536 24.4913 54.201 25.0275 54.4063C25.3746 54.5326 25.5638 54.7695 25.6269 55.0379L25.3903 55.0853C25.343 54.88 25.1853 54.6905 24.9487 54.6115C24.5386 54.4694 24.0969 54.6747 23.9392 55.1327C23.7815 55.5906 23.9865 56.0328 24.3966 56.1749C24.6175 56.2539 24.8698 56.2065 25.0275 56.0802L25.201 56.2697C24.9645 56.4276 24.6805 56.5223 24.3335 56.396C23.7973 56.1907 23.4976 55.638 23.7026 55.0537Z" fill="white"/>
<path d="M27.0464 54.9751C27.63 55.1172 27.9297 55.6542 27.7878 56.2384C27.6458 56.8227 27.1411 57.1701 26.5575 57.028C25.9739 56.8859 25.6742 56.349 25.8162 55.7647C25.9581 55.1804 26.4471 54.833 27.0464 54.9751ZM26.9834 55.1962C26.5417 55.0857 26.1789 55.3699 26.0685 55.8279C25.9581 56.2858 26.1632 56.6964 26.6048 56.8069C27.0464 56.9175 27.4092 56.6332 27.5196 56.1753C27.63 55.7015 27.425 55.291 26.9834 55.1962Z" fill="white"/>
<path d="M30.1375 55.8925L29.2227 57.4875L29.1122 57.4717L28.6548 55.703L28.434 57.3927L28.1816 57.3612L28.4498 55.3398L28.8126 55.3872L29.2384 57.0137L30.0744 55.5609L30.4372 55.6083L30.169 57.6296L29.9167 57.598L30.1375 55.8925Z" fill="white"/>
<path d="M32.6777 56.002L31.9521 57.6759H31.8417L31.195 55.9705L31.1635 57.6602H30.9111L30.9584 55.623L31.3212 55.6388L31.9206 57.2022L32.5831 55.6704L32.9458 55.6862L32.8985 57.7233H32.6462L32.6777 56.002Z" fill="white"/>
<path d="M33.4814 55.6397L34.8064 55.5449L34.8221 55.766L33.7496 55.845L33.7969 56.5082L34.8537 56.4292L34.8695 56.6503L33.8127 56.7293L33.86 57.4241L34.9326 57.3452L34.9483 57.5662L33.6234 57.661L33.4814 55.6397Z" fill="white"/>
<path d="M36.1161 56.6026L35.7218 56.6658L35.848 57.4712L35.5956 57.5027L35.2959 55.4814L36.1003 55.3551C36.4631 55.2919 36.7628 55.4972 36.8259 55.8604C36.8732 56.2236 36.6681 56.4605 36.3842 56.5237L37.0467 57.2659L36.747 57.3132L36.1161 56.6026ZM36.1003 55.592L35.564 55.6709L35.6744 56.4447L36.2107 56.3657C36.4473 56.3342 36.5893 56.1447 36.5577 55.9236C36.5262 55.6867 36.3369 55.5604 36.1003 55.592Z" fill="white"/>
<path d="M37.3463 56.1904C37.2043 55.5746 37.5513 55.0535 38.1034 54.9271C38.4662 54.8324 38.7501 54.9429 38.9551 55.1324L38.7816 55.3061C38.6239 55.164 38.3873 55.1008 38.1665 55.1482C37.7406 55.2587 37.4882 55.6693 37.6144 56.1431C37.7248 56.6168 38.1349 56.8695 38.5608 56.7589C38.7974 56.6958 38.9709 56.5379 39.0498 56.3326L39.2864 56.3957C39.1759 56.6642 38.9709 56.8853 38.6239 56.98C38.0403 57.1064 37.4882 56.8063 37.3463 56.1904Z" fill="white"/>
<path d="M39.2393 54.6588L40.5011 54.2324L40.58 54.4535L39.5547 54.8009L39.7598 55.4168L40.7692 55.0852L40.8481 55.3062L39.8386 55.6379L40.0595 56.3011L41.0847 55.9537L41.1636 56.1748L39.9017 56.6012L39.2393 54.6588Z" fill="white"/>
<path d="M41.7149 55.6075C41.7937 55.576 41.9041 55.6233 41.9357 55.7023C41.9672 55.7813 41.9199 55.8918 41.8411 55.9234C41.7622 55.955 41.6518 55.9076 41.6202 55.8286C41.5887 55.7339 41.636 55.6391 41.7149 55.6075Z" fill="white"/>
<path d="M42.0616 54.7072C41.7934 54.1387 42.03 53.5544 42.5505 53.3018C42.8818 53.1438 43.1815 53.1912 43.4338 53.3333L43.2919 53.5386C43.1184 53.4281 42.866 53.4123 42.6452 53.5229C42.2509 53.7123 42.0931 54.1703 42.2982 54.6125C42.5032 55.0546 42.9606 55.2125 43.355 55.023C43.5758 54.9125 43.7177 54.723 43.7335 54.5177L43.9859 54.5335C43.9386 54.8178 43.7808 55.0704 43.4496 55.2283C42.9291 55.4652 42.3297 55.2757 42.0616 54.7072Z" fill="white"/>
<path d="M44.3812 52.3064C44.9017 51.9906 45.4853 52.1643 45.785 52.6854C46.1004 53.2065 45.9742 53.8066 45.4695 54.1066C44.949 54.4225 44.3654 54.2488 44.0657 53.7276C43.7503 53.2223 43.8607 52.6222 44.3812 52.3064ZM44.5074 52.4959C44.113 52.7328 44.0499 53.1907 44.2865 53.5855C44.5389 53.9961 44.9648 54.1382 45.3591 53.9013C45.7534 53.6645 45.8165 53.2065 45.5799 52.8117C45.3275 52.4169 44.8859 52.259 44.5074 52.4959Z" fill="white"/>
<path d="M47.2356 50.774L47.7088 52.5427L47.63 52.6058L46.0527 51.6741L47.0779 53.0322L46.8729 53.1901L45.6426 51.5636L45.9265 51.3425L47.3618 52.1953L46.936 50.5687L47.2199 50.3477L48.4502 51.9742L48.2451 52.1321L47.2356 50.774Z" fill="white"/>
<path d="M32.4719 50.9157C27.4719 50.9157 22.7874 48.9418 19.2858 45.3571C19.0807 45.1518 19.0965 44.836 19.3015 44.6307C19.5066 44.4254 19.8221 44.4412 20.0271 44.6465C23.3236 48.0259 27.7401 49.905 32.4719 49.905C37.2038 49.905 41.6202 48.0416 44.9167 44.6465C45.1218 44.4412 45.4372 44.4412 45.6423 44.6307C45.8473 44.836 45.8473 45.1518 45.6581 45.3571C42.1565 48.9418 37.4719 50.9157 32.4719 50.9157Z" fill="white"/>
<path d="M45.8472 21.0858C45.7052 21.0858 45.5633 21.0227 45.4686 20.9121C42.1721 17.2011 37.4402 15.085 32.4875 15.085C27.5349 15.085 22.803 17.2169 19.5064 20.9121C19.3172 21.1174 19.0017 21.149 18.7809 20.9595C18.5601 20.77 18.5443 20.4542 18.7336 20.2331C22.2194 16.301 27.2352 14.0586 32.4875 14.0586C37.7399 14.0586 42.7399 16.3168 46.2415 20.2331C46.4308 20.4384 46.415 20.77 46.1942 20.9595C46.0838 21.0384 45.9576 21.0858 45.8472 21.0858Z" fill="white"/>
<path d="M32.472 49.5888C27.8348 49.5888 23.4973 47.757 20.248 44.425L20.3585 44.3145C23.5761 47.6149 27.8664 49.4309 32.472 49.4309C37.0777 49.4309 41.368 47.6149 44.5856 44.3145L44.696 44.425C41.4468 47.757 37.1093 49.5888 32.472 49.5888Z" fill="white"/>
<path d="M45.1061 21.2276C41.9042 17.6272 37.2986 15.5585 32.472 15.5585C27.6455 15.5585 23.0398 17.6272 19.8379 21.2276L19.7275 21.1171C22.961 17.4692 27.614 15.3848 32.4878 15.3848C37.3616 15.3848 41.9989 17.4692 45.2481 21.1171L45.1061 21.2276Z" fill="white"/>
</svg>
