<svg width="1920" height="829" viewBox="0 0 1920 829" fill="none" xmlns="http://www.w3.org/2000/svg">
<g opacity="0.05">
<path d="M1664.94 900C1508.39 900 1382.42 847.904 1288.85 743.713L1443.61 589.222C1508.39 655.689 1578.57 689.82 1654.15 689.82C1688.34 689.82 1715.33 680.838 1736.92 664.671C1756.72 648.503 1767.52 626.946 1767.52 600V598.204C1767.52 569.461 1754.92 547.904 1729.73 531.737C1704.53 515.569 1668.54 508.383 1623.56 508.383H1520.98L1484.99 380.838L1688.34 197.605H1350.03V0H1988.85V174.252L1778.31 353.892C1931.27 388.024 2006.85 470.659 2006.85 601.796V603.593C2006.85 691.617 1974.46 763.473 1911.48 815.569C1846.69 873.054 1765.72 900 1664.94 900Z" fill="url(#paint0_linear_41_9623)"/>
<path d="M185.353 900L-87 2.35001H218.223L335.616 451.175L471.792 0H730.058L868.582 453.525L988.323 2.35001H1288.85L1016.5 900H746.493L600.925 437.076L453.009 900H185.353Z" fill="url(#paint1_linear_41_9623)"/>
</g>
<defs>
<linearGradient id="paint0_linear_41_9623" x1="1647.85" y1="0" x2="1647.85" y2="900" gradientUnits="userSpaceOnUse">
<stop stop-color="white" stop-opacity="0.4"/>
<stop offset="1" stop-color="white" stop-opacity="0"/>
</linearGradient>
<linearGradient id="paint1_linear_41_9623" x1="600.925" y1="0" x2="600.925" y2="900" gradientUnits="userSpaceOnUse">
<stop stop-color="white" stop-opacity="0.4"/>
<stop offset="1" stop-color="white" stop-opacity="0"/>
</linearGradient>
</defs>
</svg>
