<svg width="807" height="367" viewBox="0 0 807 367" fill="none" xmlns="http://www.w3.org/2000/svg">
<g clip-path="url(#clip0_203_367)">
<path d="M40.7009 364.535L0 229.991H45.613L63.1565 297.263L83.507 229.639H122.103L142.804 297.615L160.698 229.991H205.61L164.909 364.535H124.559L102.805 295.15L80.7 364.535H40.7009Z" fill="#E0E0E0"/>
<path d="M268.064 367C237.539 367 212.978 356.786 194.732 336.358L224.907 306.068C237.539 319.1 251.222 325.792 265.959 325.792C272.625 325.792 277.889 324.031 282.099 320.861C285.959 317.691 288.064 313.465 288.064 308.181V307.829C288.064 302.194 285.608 297.967 280.695 294.798C275.783 291.628 268.766 290.219 259.994 290.219H239.995L232.977 265.212L272.625 229.287H206.662V190.544H331.221V224.708L290.169 259.929C319.993 266.621 334.729 282.822 334.729 308.534V308.886C334.729 326.144 328.414 340.232 316.133 350.446C303.502 361.717 287.713 367 268.064 367Z" fill="#FF0036"/>
<path d="M337.186 363.478V229.991H383.851V248.658C395.079 234.218 408.412 226.822 423.85 226.822C437.885 226.822 449.113 231.4 457.183 240.205C465.253 249.011 469.113 260.986 469.113 276.131V363.478H422.447V290.923C422.447 283.879 420.693 278.244 417.535 274.369C414.026 270.495 409.465 268.382 403.851 268.382C397.886 268.382 393.325 270.495 389.465 274.369C385.956 278.244 384.202 283.879 384.202 290.923V363.126H337.186V363.478Z" fill="#E0E0E0"/>
<path d="M518.936 366.296C504.901 366.296 493.673 362.069 485.603 353.264C477.533 344.459 473.674 332.484 473.674 317.339V229.991H520.339V302.194C520.339 309.238 522.094 314.873 525.603 318.748C529.111 322.622 533.673 324.735 539.286 324.735C544.9 324.735 549.813 322.622 553.321 318.748C556.83 314.873 558.584 309.238 558.584 302.194V229.991H605.25V363.478H558.584V345.163C547.707 359.251 534.725 366.296 518.936 366.296Z" fill="#E0E0E0"/>
<path d="M665.248 366.296C635.424 366.296 620.337 351.503 620.337 322.27V267.678H604.548V229.991H620.337V196.179H667.003V229.991H697.879V267.678H667.003V312.76C667.003 321.565 671.213 326.144 679.634 326.144C685.248 326.144 691.213 324.735 697.177 321.565V358.195C688.406 363.478 677.88 366.296 665.248 366.296Z" fill="#E0E0E0"/>
<path d="M752.615 366.296C728.756 366.296 707.704 359.604 689.81 346.572L707.353 318.043C722.791 328.257 737.879 333.188 752.966 333.188C760.685 333.188 764.896 330.723 764.896 326.144V325.792C764.896 323.326 763.492 321.565 760.334 320.156C757.176 318.748 751.563 316.634 743.493 314.521C735.773 312.408 729.809 310.647 724.546 308.534C719.633 306.42 714.721 303.955 710.16 300.785C705.599 297.615 702.09 293.389 699.634 288.81C697.178 283.879 696.125 278.244 696.125 271.904V271.2C696.125 257.464 701.037 246.545 710.862 238.797C720.686 231.048 733.668 227.174 749.457 227.174C769.808 227.174 788.404 232.457 804.193 242.671L788.053 272.256C773.317 264.155 760.334 259.929 748.756 259.929C741.387 259.929 737.879 262.042 737.879 266.269V266.621C737.879 269.086 739.282 270.847 742.44 272.256C745.598 273.665 751.212 275.778 759.282 278.244C774.72 282.822 786.65 287.753 794.72 294.093C802.79 300.081 806.649 308.886 806.649 320.861V321.213C806.649 335.654 801.737 346.572 791.913 354.321C782.439 362.421 769.106 366.296 752.615 366.296Z" fill="#E0E0E0"/>
<path d="M521.743 50.0134C521.743 50.0134 527.708 44.0259 532.62 40.1516C532.62 40.1516 543.848 26.0633 556.83 21.4846C556.83 21.4846 569.812 17.6104 575.426 21.4846C575.426 21.4846 576.479 14.7927 582.794 11.975C582.794 11.975 599.285 5.98751 602.443 3.52206C602.443 3.52206 602.794 13.3839 604.899 18.3148C604.899 18.3148 606.654 27.4722 595.777 33.1075C595.777 33.1075 601.741 45.0825 602.092 52.1267C602.092 52.1267 629.109 106.014 640.337 116.228C640.337 116.228 666.301 145.462 663.845 169.412C663.845 169.412 671.213 154.971 693.669 141.94C693.669 141.94 721.388 127.499 713.669 82.7687C713.669 82.7687 708.055 54.5921 680.687 60.9319C680.687 60.9319 661.74 65.8628 674.722 84.1775C674.722 84.1775 675.424 88.404 673.319 87.3474C673.319 87.3474 663.494 84.5297 660.687 80.6555C660.687 80.6555 658.582 80.3033 661.038 84.882C661.038 84.882 605.952 53.1833 654.723 12.3272C654.723 12.3272 654.021 8.45297 646.302 11.6228C646.302 11.6228 706.3 -23.9501 757.527 27.4722C757.527 27.4722 792.614 72.5547 770.51 125.386C770.51 125.386 760.334 148.631 729.458 164.481C729.458 164.481 691.564 184.909 689.459 186.318L692.617 187.022C692.617 187.022 679.634 189.84 678.231 193.01L678.582 195.123C678.582 195.123 669.108 196.884 658.231 206.041C658.231 206.041 647.354 220.13 634.723 221.891C634.723 221.891 635.776 222.595 636.828 219.073C636.828 219.073 628.057 216.96 626.653 227.174C626.653 227.174 627.355 231.752 607.355 229.991C607.355 229.991 570.865 228.583 558.935 232.457L560.339 229.639C560.339 229.639 556.128 228.935 554.725 230.696C554.725 230.696 554.725 222.947 570.163 224.356C570.163 224.356 555.777 215.199 555.777 201.11C555.777 201.11 552.97 186.67 562.444 172.229C562.444 172.229 576.83 146.87 566.654 143.348C566.654 143.348 564.549 141.235 562.444 145.462C562.444 145.462 558.935 148.279 549.111 137.009C549.111 137.009 534.725 122.568 534.374 139.474C534.374 139.474 534.024 144.053 530.164 138.065C530.164 138.065 528.059 138.77 528.76 141.235C528.76 141.235 520.69 138.065 524.199 130.317C524.199 130.317 525.603 115.876 542.444 117.285C542.444 117.285 538.936 98.618 544.9 91.5739C544.9 91.5739 541.041 90.5173 540.69 93.6871C540.69 93.6871 540.69 83.1209 551.567 75.0201C551.567 75.0201 551.567 70.0892 545.602 72.2025C545.602 71.8503 518.585 69.0326 521.743 50.0134Z" fill="#FF0036"/>
</g>
<defs>
<clipPath id="clip0_203_367">
<rect width="807" height="367" fill="white"/>
</clipPath>
</defs>
</svg>
