<?xml version="1.0" encoding="utf-8"?>
<!-- Generator: Adobe Illustrator 25.3.0, SVG Export Plug-In . SVG Version: 6.00 Build 0)  -->
<svg version="1.1" id="Layer_1" xmlns="http://www.w3.org/2000/svg" xmlns:xlink="http://www.w3.org/1999/xlink" x="0px" y="0px"
	 width="64px" height="64px" viewBox="0 0 64 64" style="enable-background:new 0 0 64 64;" xml:space="preserve">
<style type="text/css">
	.st0{fill:#FFFFFF;}
</style>
<g>
	<path class="st0" d="M36.1,55.2h-8.2c-0.7,0-1.2-0.5-1.2-1.2v-5.5c0-0.7,0.5-1.2,1.2-1.2h8.2c0.7,0,1.2,0.5,1.2,1.2V54
		C37.3,54.7,36.8,55.2,36.1,55.2z M29.1,52.8h5.8v-3.1h-5.8V52.8z"/>
</g>
<g>
	<path class="st0" d="M12.7,16.7c-2.2,0-3.9-1.8-3.9-3.9s1.8-3.9,3.9-3.9c2.2,0,3.9,1.8,3.9,3.9S14.9,16.7,12.7,16.7z M12.7,11.2
		c-0.8,0-1.5,0.7-1.5,1.5s0.7,1.5,1.5,1.5c0.8,0,1.5-0.7,1.5-1.5S13.6,11.2,12.7,11.2z"/>
</g>
<g>
	<path class="st0" d="M34.7,16.7h-5.5c-0.7,0-1.2-0.5-1.2-1.2V10c0-0.7,0.5-1.2,1.2-1.2h5.5c0.7,0,1.2,0.5,1.2,1.2v5.5
		C35.9,16.1,35.4,16.7,34.7,16.7z M30.5,14.3h3.1v-3.1h-3.1V14.3z"/>
</g>
<g>
	<path class="st0" d="M51.3,16.7c-2.2,0-3.9-1.8-3.9-3.9s1.8-3.9,3.9-3.9s3.9,1.8,3.9,3.9S53.4,16.7,51.3,16.7z M51.3,11.2
		c-0.8,0-1.5,0.7-1.5,1.5s0.7,1.5,1.5,1.5s1.5-0.7,1.5-1.5S52.1,11.2,51.3,11.2z"/>
</g>
<g>
	<path class="st0" d="M36.1,49.7c-0.2,0-0.5-0.1-0.7-0.2c-0.6-0.4-0.7-1.1-0.3-1.7l5.1-7.7L32,23.6l-8.2,16.5l5.1,7.7
		c0.4,0.6,0.2,1.3-0.3,1.7c-0.6,0.4-1.3,0.2-1.7-0.3l-5.5-8.3c-0.2-0.4-0.3-0.8-0.1-1.2l9.6-19.3c0.2-0.4,0.6-0.7,1.1-0.7
		s0.9,0.3,1.1,0.7l9.6,19.3c0.2,0.4,0.2,0.8-0.1,1.2l-5.5,8.3C36.9,49.5,36.5,49.7,36.1,49.7z"/>
</g>
<g>
	<path class="st0" d="M32,41.4c-0.7,0-1.2-0.5-1.2-1.2V21c0-0.7,0.5-1.2,1.2-1.2s1.2,0.5,1.2,1.2v19.3C33.2,40.9,32.7,41.4,32,41.4z
		"/>
</g>
<g>
	<path class="st0" d="M29.3,13.9H15.5c-0.7,0-1.2-0.5-1.2-1.2s0.5-1.2,1.2-1.2h13.8c0.7,0,1.2,0.5,1.2,1.2S29.9,13.9,29.3,13.9z"/>
</g>
<g>
	<path class="st0" d="M48.5,13.9H34.7c-0.7,0-1.2-0.5-1.2-1.2s0.5-1.2,1.2-1.2h13.8c0.7,0,1.2,0.5,1.2,1.2S49.2,13.9,48.5,13.9z"/>
</g>
<g>
	<path class="st0" d="M12.7,33.1c-0.7,0-1.2-0.5-1.2-1.2c0-10.1,7.5-18.7,17.6-20.2c0.7-0.1,1.3,0.4,1.4,1s-0.4,1.3-1,1.4
		c-8.8,1.3-15.5,8.9-15.5,17.8C13.9,32.6,13.4,33.1,12.7,33.1z"/>
</g>
<g>
	<path class="st0" d="M51.3,33.1c-0.7,0-1.2-0.5-1.2-1.2c0-8.9-6.7-16.5-15.5-17.8c-0.7-0.1-1.1-0.7-1-1.4c0.1-0.7,0.7-1.1,1.4-1
		c10,1.4,17.6,10.1,17.6,20.2C52.5,32.6,51.9,33.1,51.3,33.1z"/>
</g>
</svg>
