<svg width="220" height="100" viewBox="0 0 220 100" fill="none" xmlns="http://www.w3.org/2000/svg">
<g clip-path="url(#clip0_603_412)">
<path d="M154.5 54.3V51.5C154.5 49.7 155.2 48.2 156.6 46.9C158 45.6 159.7 45 161.7 45C163.6 45 165.1 45.6 166.4 46.8C167.7 48 168.4 49.4 168.4 51.2C168.4 51.8 168.3 52.4 168.1 52.8C167.9 53.2 167.7 53.5 167.4 53.7C167.1 53.9 166.8 54 166.5 54C166.2 54 165.9 54.1 165.4 54.1H158.8V54.6C158.8 55.5 159.2 56.3 159.8 56.9C160.5 57.5 161.4 57.8 162.6 57.8C163.4 57.8 164.3 57.6 165 57.2C165.8 56.8 166.3 56.6 166.6 56.6C167.1 56.6 167.4 56.8 167.7 57.2C168 57.6 168.2 58 168.2 58.4C168.2 59 167.6 59.6 166.5 60.2C165.4 60.8 164 61.1 162.4 61.1C160.1 61.1 158.2 60.5 156.7 59.2C155.3 58 154.5 56.3 154.5 54.3ZM158.8 51.6H163.6C164 51.6 164.2 51.5 164.3 51.4C164.4 51.3 164.5 51.1 164.5 50.8C164.5 50.1 164.2 49.5 163.7 49.1C163.1 48.6 162.5 48.4 161.7 48.4C161 48.4 160.3 48.6 159.7 49C159.1 49.4 158.9 50 158.9 50.7L158.8 51.6Z" fill="#818181"/>
<path d="M169 58.2C169 57.8 169.1 57.4 169.4 57C169.7 56.6 170 56.4 170.4 56.4C170.6 56.4 171 56.5 171.3 56.7C171.7 56.9 172.1 57.2 172.7 57.4C173.3 57.6 174 57.7 174.8 57.7C176.4 57.7 177.2 57.2 177.2 56.3C177.2 55.8 176.9 55.4 176.4 55.1C175.9 54.8 175.2 54.5 174.5 54.4C173.8 54.2 173 54 172.2 53.7C171.5 53.4 170.8 53 170.3 52.4C169.8 51.8 169.5 51 169.5 50C169.5 48.6 170 47.5 170.9 46.5C171.8 45.5 173.3 45 175.3 45C176.7 45 177.9 45.2 178.9 45.6C180 46 180.5 46.5 180.5 47.1C180.5 47.5 180.3 47.9 180 48.4C179.7 48.9 179.4 49.1 178.9 49.1C178.7 49.1 178.3 49 177.5 48.7C176.7 48.4 176 48.3 175.3 48.3C174.6 48.3 174 48.5 173.6 48.8C173.2 49.1 173 49.4 173 49.8C173 50.2 173.2 50.4 173.6 50.7C174 50.9 174.5 51.1 175.1 51.3C175.7 51.4 176.3 51.6 177 51.8C177.6 52 178.3 52.3 178.9 52.6C179.5 52.9 179.9 53.3 180.3 54C180.7 54.6 180.9 55.4 180.9 56.3C180.9 57.8 180.4 59 179.3 59.8C178.2 60.7 176.8 61.1 174.9 61.1C173.3 61.1 171.9 60.8 170.7 60.3C169.6 59.6 169 59 169 58.2Z" fill="#818181"/>
<path d="M112.5 59.8C113.7 60.6 115 61 116.4 61C118.3 61 120 60.3 121.5 58.9C123 57.4 123.8 55.4 123.8 53C123.8 50.6 123 48.6 121.5 47.1C120 45.7 118.3 45 116.4 45C114.9 45 113.6 45.4 112.3 46.3C112.2 46.1 112.1 45.9 111.9 45.7C111.2 45 109.8 45 109 45.7C108.6 46.1 108.4 46.6 108.4 47.1V65.8V66C108.4 66.3 108.6 66.6 109 66.9C109.4 67.2 109.8 67.3 110.4 67.3C111 67.3 111.4 67.2 111.8 66.9C112.2 66.6 112.4 66.3 112.4 66L112.5 59.8ZM119.4 54.9C118.8 56.5 117.7 57.2 116 57.2C114.7 57.2 113.5 56.7 112.5 55.6V50.5C113.5 49.4 114.7 48.9 116 48.9C117.1 48.9 118 49.2 118.6 49.9C119.3 50.6 119.6 51.7 119.6 53C119.7 53.7 119.6 54.4 119.4 54.9Z" fill="#818181"/>
<path d="M136.1 47C134.9 45.7 133.3 45.1 131.2 45.1C129.5 45.1 127.8 45.5 126.2 46.1C125.2 46.5 125 47.3 125 47.7C125 48.3 125.2 48.8 125.6 49.1C126.2 49.7 126.8 49.7 127.4 49.5C130 48.7 132.1 48.7 133 49.5C133.3 49.8 133.6 50.3 133.6 51H131.1C128.9 51 127.1 51.5 125.9 52.4C124.7 53.3 124.1 54.6 124.1 56.2C124.1 57.7 124.6 58.9 125.7 59.8C126.7 60.6 127.9 61.1 129.3 61.1C130.7 61.1 131.9 60.8 132.8 60.4C133.1 60.2 133.4 60.1 133.6 59.9C133.6 60.2 133.8 60.5 134.2 60.7C134.6 61 135 61.1 135.6 61.1C136.2 61.1 136.6 61 137 60.7C137.4 60.4 137.6 60.1 137.6 59.8V59V51.3C137.6 49.5 137.1 48.1 136.1 47ZM132.2 56.8C131.6 57.2 130.9 57.3 130.2 57.3C128.1 57.3 128.1 56.4 128.1 55.9C128.1 55.4 128.3 55.2 128.7 55C129.3 54.7 130.2 54.6 131.4 54.6H133.6V55.8C133.2 56.1 132.8 56.5 132.2 56.8Z" fill="#818181"/>
<path d="M150.1 45.8C149.9 46 149.8 46.2 149.7 46.4C148.5 45.6 147.2 45.1 145.7 45.1C143.8 45.1 142.1 45.7 140.7 47C139.1 48.5 138.3 50.4 138.3 52.9C138.3 55.4 139.1 57.3 140.7 58.8C142.1 60.1 143.8 60.7 145.7 60.7C147.1 60.7 148.4 60.3 149.6 59.5V59.7C149.6 62.2 148.6 64.1 146.2 64.1C144.7 64.1 143.3 63.8 142 63.1C141.7 63 141.4 62.9 141.1 62.9C140.8 62.9 140.3 63 139.9 63.5C139.6 63.9 139.4 64.3 139.4 64.9C139.4 65.5 139.7 66 140.3 66.4C142.1 67.4 144.2 67.9 146.5 67.9C148.8 67.9 150.6 67.2 151.8 65.8C153 64.4 153.7 61.7 153.7 59.2V47.2C153.7 46.6 153.5 46.2 153.1 45.8C152.2 45 150.9 45 150.1 45.8ZM149.5 55.4C148.4 56.4 147.4 57 146.4 57C145.7 57 145.1 56.9 144.6 56.7C143 56.1 142.3 54.9 142.3 52.9C142.3 51.5 142.7 50.5 143.4 49.8C143.7 49.5 144.1 49.2 144.6 49.1C145.1 48.9 145.7 48.8 146.4 48.8C147 48.8 147.6 49 148.2 49.3C148.7 49.6 149.2 50 149.6 50.4L149.5 55.4Z" fill="#818181"/>
<path d="M40 46.3C40 45.8 40.3 45.4 40.9 45.1C41.5 44.8 42.1 44.6 42.7 44.6C43.3 44.6 43.7 44.8 43.9 45.3L47.1 54.6L49.5 46.5C49.7 45.9 50.1 45.7 50.9 45.7C51.7 45.7 52.2 46 52.3 46.5L54.7 54.6L62.4 33.8C62.7 33.2 63.1 33 63.8 33C64.4 33 65.7 33.5 66.2 33.8C66.8 34.2 67.1 34.5 67.1 35C67.1 35.2 67.1 35.4 67 35.6L56.9 59.8C56.7 60.3 56.2 60.5 55.2 60.5C54.3 60.5 53.7 60.2 53.5 59.8L51 52.6L48.5 59.7C48.3 60.2 47.7 60.5 46.7 60.5C45.8 60.5 45.3 60.2 45.1 59.7L40.1 46.9C40.1 46.7 40 46.5 40 46.3Z" fill="#818181"/>
<path d="M63.9 45.9L66.9 38.8C67.2 38.2 67.5 38.2 67.5 38.2C67.8 38.2 67.8 38.9 67.8 38.9V47.4C68.1 46.7 68.6 46.1 69.4 45.6C70.1 45.1 71 44.9 71.9 44.9C73.4 44.9 74.7 45.5 75.8 46.8C76.9 48.1 77.5 49.7 77.5 51.5V59.2C77.5 59.6 77.3 59.9 76.9 60.2C76.5 60.4 76 60.6 75.4 60.6C74.8 60.6 74.4 60.5 73.9 60.2C73.5 60 73.3 59.6 73.3 59.2V51.5C73.3 50.8 73 50.1 72.5 49.5C71.9 48.9 71.3 48.6 70.5 48.6C69.8 48.6 69.2 48.9 68.6 49.4C68.1 50 67.8 50.6 67.8 51.5V59.2C67.8 59.5 67.6 59.8 67.2 60.1C66.8 60.4 66.3 60.5 65.7 60.5C65.1 60.5 64.6 60.4 64.2 60.1C63.8 59.8 63.6 59.5 63.6 59.2V47.5C63.6 47.5 63.6 46.7 63.9 45.9Z" fill="#818181"/>
<path d="M79.1 59.2V46.4C79.1 46 79.3 45.7 79.7 45.5C80.1 45.3 80.5 45.1 81.1 45.1C81.7 45.1 82.2 45.2 82.6 45.5C83 45.7 83.2 46.1 83.2 46.4V59.3C83.2 59.6 83 59.9 82.6 60.2C82.2 60.5 81.7 60.6 81.2 60.6C80.7 60.6 80.2 60.5 79.8 60.2C79.3 59.9 79.1 59.6 79.1 59.2Z" fill="#818181"/>
<path d="M84.9 55.3V39.7C84.9 39.3 85.1 39 85.5 38.8C85.9 38.5 86.4 38.4 86.9 38.4C87.5 38.4 88 38.5 88.4 38.8C88.8 39 89 39.4 89 39.7V45.1H93C93.3 45.1 93.6 45.3 93.8 45.6C94 45.9 94.1 46.3 94.1 46.8C94.1 47.3 94 47.6 93.8 48C93.6 48.4 93.3 48.5 93 48.5H89.1V55.3C89.1 55.9 89.2 56.3 89.5 56.6C89.8 56.9 90.2 57 90.9 57H92.2C92.8 57 93.2 57.2 93.5 57.6C93.8 58 94 58.4 94 58.9C94 59.4 93.8 59.9 93.5 60.2C93.2 60.6 92.8 60.8 92.2 60.8H90.9C86.9 60.6 84.9 58.8 84.9 55.3Z" fill="#818181"/>
<path d="M93.8 54.2V51.4C93.8 49.6 94.5 48.1 95.9 46.8C97.3 45.5 99 44.9 101 44.9C102.9 44.9 104.4 45.5 105.7 46.7C107 47.9 107.7 49.3 107.7 51.1C107.7 51.7 107.6 52.3 107.4 52.7C107.2 53.1 107 53.4 106.7 53.6C106.4 53.8 106.1 53.9 105.8 53.9C105.5 53.9 105.2 54 104.7 54H98V54.5C98 55.4 98.4 56.2 99 56.8C99.7 57.4 100.6 57.7 101.8 57.7C102.6 57.7 103.5 57.5 104.2 57.1C105 56.7 105.5 56.5 105.8 56.5C106.3 56.5 106.6 56.7 106.9 57.1C107.2 57.5 107.4 57.9 107.4 58.3C107.4 58.9 106.8 59.5 105.7 60.1C104.6 60.7 103.2 61 101.6 61C99.3 61 97.4 60.4 95.9 59.1C94.5 57.8 93.8 56.2 93.8 54.2ZM98 51.4H102.8C103.2 51.4 103.4 51.3 103.5 51.2C103.6 51.1 103.7 50.9 103.7 50.6C103.7 49.9 103.4 49.3 102.9 48.9C102.3 48.4 101.7 48.2 100.9 48.2C100.2 48.2 99.5 48.4 98.9 48.8C98.3 49.2 98.1 49.8 98.1 50.5L98 51.4Z" fill="#818181"/>
<path d="M81.1 42.4C82.2045 42.4 83.1 41.5046 83.1 40.4C83.1 39.2955 82.2045 38.4 81.1 38.4C79.9954 38.4 79.1 39.2955 79.1 40.4C79.1 41.5046 79.9954 42.4 81.1 42.4Z" fill="#818181"/>
</g>
<defs>
<clipPath id="clip0_603_412">
<rect width="140.9" height="35" fill="white" transform="translate(40 33)"/>
</clipPath>
</defs>
</svg>
